<svg width="375" height="375" viewBox="0 0 375 375" fill="none" xmlns="http://www.w3.org/2000/svg">
<path d="M187.221 71.5828C133.862 100.522 182.305 152.101 151.495 180.193C120.685 208.284 36.9079 175.811 68.8434 248.762C106.353 334.429 270.62 322.552 306.043 217.449C341.465 112.346 240.587 42.6434 187.221 71.5828Z" fill="#1470FB"/>
<path opacity="0.9" d="M187.221 71.5828C133.862 100.522 182.305 152.101 151.495 180.193C120.685 208.284 36.9079 175.811 68.8434 248.762C106.353 334.429 270.62 322.552 306.043 217.449C341.465 112.346 240.587 42.6434 187.221 71.5828Z" fill="white"/>
<path d="M187.532 341.565C266.803 341.565 331.064 337.813 331.064 333.185C331.064 328.557 266.803 324.805 187.532 324.805C108.262 324.805 44 328.557 44 333.185C44 337.813 108.262 341.565 187.532 341.565Z" fill="#F5F5F5"/>
<path d="M93.657 313.279C93.657 313.279 94.5379 306.809 98.6761 306.098C102.814 305.388 101.571 302.264 102.644 301.05C103.717 299.836 106.538 303.411 104.124 306.876C101.711 310.34 103.688 309.252 102.644 312.472C101.6 315.692 93.2794 318.646 93.657 313.279Z" fill="#263238"/>
<path d="M94.9974 317.787C94.9557 317.794 94.9132 317.794 94.8716 317.787C94.8257 317.77 94.7836 317.744 94.748 317.71C94.7123 317.677 94.6836 317.636 94.6636 317.592C94.6437 317.547 94.6328 317.498 94.6316 317.449C94.6304 317.4 94.639 317.352 94.6569 317.306C94.6569 317.239 97.2182 310.451 94.7531 300.102C93.9915 297.127 92.917 294.241 91.5477 291.493C89.1566 286.311 87.1061 281.795 90.156 273.4C91.1035 270.809 92.0807 268.396 93.0357 266.064C96.5298 257.462 99.2984 250.674 96.3891 244.404C96.368 244.36 96.3559 244.313 96.3534 244.264C96.351 244.216 96.3583 244.167 96.3748 244.122C96.3914 244.076 96.4169 244.035 96.4499 243.999C96.4828 243.964 96.5226 243.935 96.5668 243.915C96.611 243.894 96.6589 243.882 96.7079 243.879C96.7568 243.877 96.8058 243.884 96.8519 243.9C96.8981 243.917 96.9404 243.942 96.9766 243.975C97.0128 244.008 97.0421 244.048 97.0628 244.093C100.105 250.652 97.2848 257.573 93.7167 266.338C92.7692 268.67 91.792 271.076 90.8519 273.652C87.8907 281.795 89.8007 285.918 92.2214 291.182C93.6078 293.977 94.6995 296.91 95.4786 299.932C97.9955 310.518 95.4786 317.291 95.3453 317.573C95.3148 317.639 95.2656 317.694 95.2037 317.732C95.1418 317.77 95.0701 317.79 94.9974 317.787Z" fill="#263238"/>
<path d="M96.2191 316.188C96.2191 316.188 98.8915 312.161 95.0272 310.088C91.163 308.016 90.3931 309.681 88.0094 308.193C85.6257 306.705 83.8047 303.085 83.3975 305.402C82.9903 307.72 85.7516 309.03 84.7744 310.088C83.7972 311.147 91.2962 318.009 96.2191 316.188Z" fill="#263238"/>
<path d="M98.1516 247.498C98.1516 247.498 100.121 239.392 94.1985 239.696C88.2763 239.999 95.3829 246.869 98.1516 247.498Z" fill="#263238"/>
<path d="M93.5174 253.975C93.5174 253.975 91.1781 246.935 87.1066 248.794C83.0351 250.652 89.3423 254.442 93.5174 253.975Z" fill="#263238"/>
<path d="M100.675 254.027C100.675 254.027 99.5799 248.349 104.022 247.876C108.463 247.402 106.886 252.599 100.675 254.027Z" fill="#263238"/>
<path d="M98.6472 265.953C98.6472 265.953 104.199 260.149 106.664 263.94C109.13 267.73 102.541 269.092 98.6472 265.953Z" fill="#263238"/>
<path d="M88.0089 265.857C88.0089 265.857 86.173 257.107 81.5685 260.268C76.964 263.429 83.893 267.078 88.0089 265.857Z" fill="#263238"/>
<path d="M84.7744 278.864C84.7744 278.864 87.6245 269.64 81.073 271.179C74.5216 272.719 79.933 277.065 84.7744 278.864Z" fill="#263238"/>
<path d="M95.1895 281.232C95.1895 281.232 100.246 274.2 104.687 275.947C109.129 277.694 106.16 284.519 95.1895 281.232Z" fill="#263238"/>
<path d="M91.2968 296.231C91.2968 296.231 85.6855 286.037 81.7399 289.946C77.7942 293.854 85.1377 298.622 91.2968 296.231Z" fill="#263238"/>
<path d="M98.1514 295.061C98.1514 295.061 96.2414 286.955 101.009 287.236C105.776 287.517 104.94 292.64 98.1514 295.061Z" fill="#263238"/>
<g opacity="0.2">
<path d="M98.1518 247.498C98.1518 247.498 100.121 239.392 94.1987 239.696C88.2765 239.999 95.3832 246.869 98.1518 247.498Z" fill="white"/>
<path d="M93.5174 253.975C93.5174 253.975 91.1781 246.935 87.1066 248.794C83.0351 250.652 89.3423 254.442 93.5174 253.975Z" fill="white"/>
<path d="M100.675 254.027C100.675 254.027 99.5796 248.349 104.021 247.876C108.463 247.402 106.886 252.599 100.675 254.027Z" fill="white"/>
<path d="M98.6472 265.953C98.6472 265.953 104.199 260.149 106.664 263.94C109.13 267.73 102.541 269.092 98.6472 265.953Z" fill="white"/>
<path d="M88.0089 265.857C88.0089 265.857 86.173 257.107 81.5685 260.268C76.964 263.429 83.893 267.078 88.0089 265.857Z" fill="white"/>
<path d="M84.7744 278.864C84.7744 278.864 87.6245 269.64 81.073 271.179C74.5216 272.719 79.933 277.065 84.7744 278.864Z" fill="white"/>
<path d="M95.1897 281.232C95.1897 281.232 100.246 274.2 104.687 275.947C109.129 277.694 106.161 284.519 95.1897 281.232Z" fill="white"/>
<path d="M91.2966 296.231C91.2966 296.231 85.6853 286.037 81.7396 289.946C77.794 293.854 85.1375 298.622 91.2966 296.231Z" fill="white"/>
<path d="M98.1516 295.061C98.1516 295.061 96.2417 286.955 101.009 287.236C105.776 287.517 104.94 292.64 98.1516 295.061Z" fill="white"/>
</g>
<path d="M96.4788 258.61H96.4048C96.3559 258.599 96.3096 258.578 96.2689 258.549C96.2282 258.52 96.1938 258.482 96.1679 258.439C96.1679 258.402 93.5474 254.264 91.7781 253.391C91.7342 253.369 91.6951 253.34 91.663 253.303C91.6309 253.266 91.6065 253.224 91.5913 253.177C91.5761 253.131 91.5704 253.082 91.5745 253.034C91.5786 252.985 91.5925 252.938 91.6152 252.895C91.6366 252.851 91.6663 252.812 91.7028 252.779C91.7393 252.747 91.7818 252.722 91.8279 252.707C91.874 252.691 91.9227 252.684 91.9713 252.687C92.02 252.69 92.0675 252.703 92.1112 252.724C93.7694 253.554 95.9088 256.692 96.5529 257.721C98.6163 256.105 100.359 254.116 101.69 251.858C101.741 251.779 101.821 251.721 101.913 251.698C102.004 251.675 102.102 251.688 102.184 251.735C102.267 251.781 102.328 251.858 102.356 251.948C102.384 252.038 102.376 252.136 102.334 252.221C100.898 254.7 98.9653 256.855 96.6565 258.55C96.6038 258.586 96.5424 258.606 96.4788 258.61Z" fill="#263238"/>
<path d="M91.9028 270.017C91.8513 270.011 91.8016 269.993 91.7571 269.967C91.7125 269.94 91.6739 269.904 91.6437 269.862C91.6437 269.817 88.4235 265.331 84.6481 263.495C84.561 263.451 84.4946 263.374 84.4628 263.282C84.4311 263.189 84.4365 263.088 84.4779 262.999C84.4992 262.956 84.5289 262.916 84.5654 262.884C84.6019 262.852 84.6444 262.827 84.6905 262.811C84.7366 262.795 84.7853 262.789 84.834 262.792C84.8826 262.795 84.9301 262.808 84.9739 262.829C88.3495 264.473 91.1774 268.011 92.0065 269.107C95.2164 266.543 99.1192 264.996 103.214 264.665C103.263 264.662 103.312 264.669 103.358 264.685C103.404 264.702 103.447 264.727 103.483 264.761C103.519 264.794 103.547 264.834 103.567 264.879C103.587 264.923 103.598 264.971 103.599 265.02C103.603 265.117 103.569 265.212 103.504 265.284C103.439 265.356 103.348 265.4 103.251 265.405C103.185 265.405 96.8405 265.768 92.1915 269.899C92.1556 269.939 92.1109 269.971 92.0609 269.991C92.0109 270.012 91.9568 270.021 91.9028 270.017Z" fill="#263238"/>
<path d="M89.6154 284.793C89.5425 284.791 89.4713 284.77 89.4082 284.734C85.6031 282.143 82.2941 275.236 82.1535 274.947C82.1322 274.903 82.12 274.855 82.1174 274.806C82.1149 274.757 82.1221 274.708 82.1386 274.662C82.1552 274.616 82.1807 274.574 82.2137 274.538C82.2468 274.501 82.2867 274.472 82.3311 274.451C82.3748 274.43 82.4222 274.418 82.4706 274.416C82.519 274.413 82.5674 274.421 82.6129 274.437C82.6585 274.454 82.7002 274.479 82.7357 274.512C82.7713 274.545 82.7998 274.585 82.8197 274.629C82.8197 274.696 86.0621 281.388 89.6228 283.971C90.8591 283.142 97.0256 279.167 101.971 278.671C102.019 278.665 102.068 278.669 102.115 278.682C102.162 278.696 102.206 278.719 102.243 278.751C102.281 278.782 102.311 278.82 102.333 278.864C102.355 278.908 102.368 278.955 102.37 279.004C102.381 279.101 102.352 279.199 102.291 279.275C102.23 279.351 102.142 279.4 102.045 279.411C96.8183 279.93 89.8967 284.682 89.8301 284.727C89.7668 284.77 89.692 284.793 89.6154 284.793Z" fill="#263238"/>
<path d="M95.0342 299.451C94.9792 299.451 94.9247 299.44 94.8748 299.417C94.8249 299.394 94.7807 299.36 94.7455 299.317C92.5213 297.04 89.6587 295.492 86.5358 294.876C86.4872 294.865 86.4411 294.846 86.4001 294.818C86.3591 294.79 86.324 294.754 86.2969 294.712C86.2697 294.671 86.251 294.624 86.2419 294.575C86.2327 294.527 86.2332 294.476 86.2434 294.428C86.2536 294.379 86.2733 294.333 86.3013 294.292C86.3294 294.251 86.3652 294.216 86.4068 294.189C86.4484 294.162 86.4949 294.143 86.5437 294.134C86.5925 294.125 86.6427 294.125 86.6913 294.135C89.8602 294.767 92.7756 296.311 95.0786 298.577C97.4845 296.601 100.305 289.864 100.335 289.797C100.352 289.752 100.379 289.711 100.413 289.676C100.447 289.642 100.488 289.614 100.533 289.596C100.578 289.577 100.626 289.567 100.674 289.568C100.723 289.568 100.771 289.578 100.816 289.598C100.861 289.615 100.902 289.642 100.937 289.676C100.971 289.71 100.999 289.751 101.018 289.796C101.036 289.841 101.046 289.889 101.045 289.937C101.045 289.986 101.035 290.034 101.016 290.079C100.89 290.382 97.8843 297.578 95.2415 299.377C95.1813 299.421 95.1091 299.447 95.0342 299.451Z" fill="#263238"/>
<path d="M95.8037 315.241C95.8037 315.241 98.0986 311.591 100.69 311.073C103.281 310.555 104.391 307.571 105.353 309.363C106.316 311.154 103.673 317.091 95.8037 315.241Z" fill="#263238"/>
<path d="M110.262 313.967L109.241 320.149L109.107 320.97L108.685 323.561L108.382 325.397L108.182 326.589L107.198 332.6H81.8579L80.8733 326.589L80.6808 325.397L80.3699 323.561L79.948 320.97L79.8147 320.149L78.8005 313.967H110.262Z" fill="#1470FB"/>
<path d="M201.687 98.5028H180.419C178.682 98.5028 177.017 99.192 175.789 100.419C174.56 101.646 173.869 103.311 173.867 105.047V123.554C173.869 125.29 174.56 126.954 175.789 128.182C177.017 129.409 178.682 130.098 180.419 130.098H194.01L198.452 135.946V130.098H201.687C203.423 130.098 205.088 129.409 206.317 128.182C207.545 126.954 208.236 125.29 208.238 123.554V105.047C208.236 103.311 207.545 101.646 206.317 100.419C205.088 99.192 203.423 98.5028 201.687 98.5028Z" fill="#1470FB"/>
<path opacity="0.5" d="M201.687 98.5028H180.419C178.682 98.5028 177.017 99.192 175.789 100.419C174.56 101.646 173.869 103.311 173.867 105.047V123.554C173.869 125.29 174.56 126.954 175.789 128.182C177.017 129.409 178.682 130.098 180.419 130.098H194.01L198.452 135.946V130.098H201.687C203.423 130.098 205.088 129.409 206.317 128.182C207.545 126.954 208.236 125.29 208.238 123.554V105.047C208.236 103.311 207.545 101.646 206.317 100.419C205.088 99.192 203.423 98.5028 201.687 98.5028Z" fill="white"/>
<path d="M191.049 124.783C196.879 124.783 201.605 120.056 201.605 114.226C201.605 108.396 196.879 103.67 191.049 103.67C185.218 103.67 180.492 108.396 180.492 114.226C180.492 120.056 185.218 124.783 191.049 124.783Z" fill="#1470FB"/>
<path d="M189.946 118.934C189.805 118.936 189.666 118.907 189.537 118.848C189.409 118.789 189.296 118.702 189.206 118.594L185.068 113.715C184.98 113.619 184.913 113.506 184.87 113.383C184.828 113.26 184.81 113.13 184.819 113C184.827 112.87 184.862 112.743 184.921 112.627C184.979 112.511 185.061 112.407 185.16 112.323C185.26 112.239 185.375 112.176 185.499 112.138C185.624 112.099 185.755 112.086 185.884 112.099C186.014 112.112 186.139 112.152 186.253 112.214C186.367 112.277 186.468 112.362 186.548 112.464L189.953 116.469L195.572 109.851C195.741 109.665 195.976 109.552 196.226 109.535C196.477 109.518 196.725 109.6 196.917 109.762C197.109 109.924 197.23 110.154 197.255 110.405C197.281 110.655 197.208 110.905 197.053 111.102L190.701 118.594C190.609 118.703 190.493 118.791 190.362 118.85C190.231 118.908 190.089 118.937 189.946 118.934Z" fill="white"/>
<path d="M212.436 175.773C211.43 180.032 210.195 184.233 208.734 188.358C207.098 192.799 205.669 196.804 202.723 200.846C198.526 206.768 183.572 208.604 176.628 209.374C176.166 209.407 175.708 209.27 175.34 208.989C174.972 208.709 174.719 208.303 174.628 207.849C174.537 207.395 174.615 206.924 174.847 206.523C175.079 206.122 175.449 205.82 175.888 205.673C179.908 204.414 183.964 203.111 187.858 201.69C190.623 200.764 193.279 199.54 195.779 198.04C196.317 197.7 196.769 197.239 197.097 196.693C201.035 189.809 202.842 181.525 205.018 173.922C206.424 169.14 213.435 170.872 212.421 175.773H212.436Z" fill="#D9877C"/>
<path d="M175.998 205.761L169.979 205.643L172.733 211.728C172.733 211.728 178.115 211.513 177.915 208.767L175.998 205.761Z" fill="#D9877C"/>
<path d="M164.82 208.641L168.966 213.068L172.734 211.728L169.98 205.635L164.82 208.641Z" fill="#D9877C"/>
<path d="M205.535 172.182C202.056 174.892 196.941 195.805 196.941 195.805L182.017 203.141L185.044 209.241C185.044 209.241 200.442 205.991 202.285 204.288C204.129 202.586 211.08 185.293 211.08 185.293L205.535 172.182Z" fill="#1470FB"/>
<path opacity="0.7" d="M211.08 185.293L210.635 186.381C210.162 187.551 209.34 189.549 208.415 191.807C206.253 196.9 203.403 203.289 202.315 204.288C200.471 205.991 185.074 209.248 185.074 209.248L182.046 203.141L196.97 195.805C196.97 195.805 202.085 174.899 205.564 172.182L211.08 185.293Z" fill="white"/>
<path opacity="0.1" d="M210.636 186.381C210.163 187.551 209.341 189.549 208.416 191.807C207.55 187.499 207.33 183.085 207.764 178.712C208.838 180.155 209.859 183.146 210.636 186.381Z" fill="black"/>
<path d="M253.083 218.176C253.083 218.176 236.501 216.407 218.379 227C218.379 227 219.756 223.121 218.023 215.511C215.262 203.355 208.836 184.849 208.303 181.347C207.437 175.647 237.552 170.702 237.552 170.702C237.552 170.702 241.942 186.892 246.043 196.345C250.144 205.798 253.645 216.044 253.083 218.176Z" fill="#1470FB"/>
<path opacity="0.5" d="M253.083 218.176C253.083 218.176 236.501 216.407 218.379 227C218.379 227 219.756 223.121 218.023 215.511C215.262 203.355 208.836 184.849 208.303 181.347C207.437 175.647 237.552 170.702 237.552 170.702C237.552 170.702 241.942 186.892 246.043 196.345C250.144 205.798 253.645 216.044 253.083 218.176Z" fill="white"/>
<path d="M208.452 327.218L213.826 328.743L215.107 320.371L215.795 315.892L210.421 314.367L209.503 320.371L208.452 327.218Z" fill="#B55B52"/>
<path d="M239.381 327.655L244.925 328.395L244.977 320.371L245.014 315.381L239.462 314.656L239.425 320.371L239.381 327.655Z" fill="#B55B52"/>
<path opacity="0.2" d="M239.462 314.656L239.425 320.371H244.977L245.014 315.381L239.462 314.656Z" fill="black"/>
<path opacity="0.2" d="M209.504 320.371H215.108L215.796 315.892L210.422 314.367L209.504 320.371Z" fill="black"/>
<path d="M208.511 326.382L214.626 326.219C214.736 326.215 214.845 326.249 214.933 326.315C215.022 326.381 215.086 326.475 215.114 326.582L216.402 331.527C216.433 331.643 216.438 331.765 216.416 331.883C216.394 332.002 216.345 332.114 216.274 332.211C216.204 332.308 216.112 332.388 216.006 332.445C215.9 332.502 215.782 332.535 215.662 332.541C213.441 332.541 210.273 332.541 207.519 332.593C204.277 332.682 202.219 332.519 198.421 332.593C196.126 332.659 195.401 330.372 196.356 330.128C200.701 329.054 203.536 329.269 207.238 326.841C207.614 326.578 208.054 326.42 208.511 326.382Z" fill="#263238"/>
<path d="M207.993 327.167C207.105 327.366 205.506 327.633 204.877 327.107C204.783 327.032 204.709 326.934 204.661 326.823C204.613 326.712 204.593 326.591 204.603 326.471C204.603 326.398 204.622 326.327 204.658 326.265C204.695 326.203 204.747 326.151 204.81 326.115C205.477 325.708 207.771 326.789 208.023 326.915C208.048 326.927 208.068 326.946 208.081 326.97C208.094 326.994 208.1 327.021 208.097 327.048C208.095 327.076 208.083 327.103 208.065 327.124C208.046 327.146 208.021 327.16 207.993 327.167ZM204.973 326.345H204.921C204.896 326.36 204.876 326.382 204.863 326.408C204.85 326.434 204.844 326.464 204.847 326.493C204.841 326.571 204.852 326.649 204.882 326.721C204.912 326.793 204.958 326.857 205.018 326.908C205.373 327.204 206.298 327.233 207.527 326.996C206.624 326.597 205.388 326.167 204.973 326.345Z" fill="#1470FB"/>
<path d="M207.992 327.167H207.896C207.208 326.878 205.823 325.686 205.905 325.079C205.905 324.931 206.023 324.746 206.386 324.702C206.516 324.682 206.65 324.69 206.777 324.725C206.904 324.759 207.023 324.819 207.126 324.901C207.867 325.464 208.066 326.959 208.074 327.026C208.078 327.049 208.075 327.072 208.065 327.093C208.056 327.114 208.041 327.132 208.022 327.144C208.022 327.144 208 327.159 207.992 327.167ZM206.29 324.99C206.179 325.035 206.171 325.094 206.171 325.116C206.119 325.494 207.067 326.419 207.77 326.811C207.685 326.177 207.406 325.585 206.971 325.116C206.896 325.053 206.808 325.006 206.714 324.979C206.619 324.952 206.52 324.946 206.423 324.961C206.377 324.964 206.332 324.974 206.29 324.99Z" fill="#1470FB"/>
<path d="M239.603 326.382L245.711 326.212C245.822 326.208 245.931 326.243 246.02 326.311C246.109 326.378 246.172 326.474 246.199 326.582L247.495 331.527C247.526 331.643 247.531 331.764 247.508 331.882C247.486 332 247.438 332.112 247.367 332.208C247.296 332.305 247.204 332.385 247.098 332.441C246.992 332.497 246.874 332.529 246.754 332.534C244.533 332.534 241.358 332.534 238.611 332.593C235.369 332.682 233.311 332.519 229.513 332.593C227.218 332.652 226.493 330.372 227.448 330.128C231.793 329.054 234.629 329.269 238.33 326.841C238.705 326.576 239.145 326.417 239.603 326.382Z" fill="#263238"/>
<path d="M239.077 327.167C238.182 327.374 236.583 327.633 235.953 327.107C235.86 327.033 235.787 326.936 235.739 326.827C235.691 326.717 235.671 326.597 235.679 326.478C235.68 326.405 235.7 326.333 235.736 326.27C235.772 326.207 235.824 326.153 235.887 326.116C236.553 325.716 238.848 326.797 239.099 326.922C239.125 326.933 239.146 326.953 239.159 326.977C239.172 327.001 239.177 327.028 239.173 327.056C239.171 327.082 239.161 327.107 239.143 327.127C239.126 327.147 239.103 327.161 239.077 327.167ZM236.057 326.345H236.012C235.987 326.358 235.965 326.378 235.951 326.403C235.936 326.428 235.929 326.457 235.931 326.486C235.923 326.565 235.935 326.645 235.966 326.719C235.998 326.793 236.046 326.858 236.109 326.908C236.464 327.204 237.382 327.233 238.611 326.996C237.708 326.597 236.471 326.167 236.057 326.345Z" fill="#1470FB"/>
<path d="M239.077 327.167C239.046 327.177 239.012 327.177 238.981 327.167C238.292 326.885 236.915 325.686 236.989 325.086C236.989 324.938 237.108 324.753 237.47 324.702C237.735 324.672 238 324.746 238.211 324.909C238.951 325.471 239.143 326.967 239.151 327.033C239.155 327.055 239.152 327.078 239.145 327.099C239.137 327.119 239.124 327.138 239.106 327.152L239.077 327.167ZM237.374 324.99C237.263 325.027 237.256 325.086 237.256 325.116C237.204 325.494 238.151 326.412 238.855 326.811C238.769 326.175 238.489 325.581 238.055 325.109C237.978 325.049 237.89 325.006 237.796 324.98C237.702 324.955 237.604 324.948 237.507 324.961L237.374 324.99Z" fill="#1470FB"/>
<path d="M250.81 205.68C253.771 218.42 248.715 318.624 248.715 318.624H238.973L234.798 235.143L219.46 318.661L209.044 317.921C215.847 253.206 221.858 214.563 221.858 214.563V209.685L250.81 205.68Z" fill="#263238"/>
<path d="M234.813 160.864C235.837 166.875 237.309 172.802 239.218 178.593C240.528 182.643 241.95 186.44 243.319 189.838C246.517 197.818 249.449 203.674 250.144 205.791C250.144 205.791 231.082 213.527 221.858 213.46C208.112 187.802 206.527 173.241 206.527 173.241L212.183 168.111C212.183 168.111 213.079 167.652 213.538 167.43C217.339 165.768 221.231 164.324 225.197 163.107C225.937 162.87 226.715 162.655 227.462 162.448C231.29 161.419 234.813 160.864 234.813 160.864Z" fill="#1470FB"/>
<path d="M224.168 163.196C224.168 163.196 218.816 169.754 216.854 170.162C215.485 170.45 213.005 168.681 213.005 168.681C213.757 168.103 214.361 167.354 214.767 166.497C215.707 164.343 214.426 162.255 212.864 160.434L216.803 151.27C217.326 153.174 217.994 155.035 218.801 156.837C220.104 159.783 221.947 162.5 224.168 163.196Z" fill="#B55B52"/>
<path opacity="0.2" d="M218.802 156.822C218.972 160.412 218.343 164.735 214.76 166.445C215.7 164.291 214.419 162.203 212.857 160.382L216.796 151.218C217.32 153.134 217.991 155.008 218.802 156.822Z" fill="black"/>
<path d="M199.88 151.684C200.124 153.905 202.197 157.688 204.321 155.215C206.446 152.743 199.458 147.938 199.88 151.684Z" fill="#263238"/>
<path d="M214.922 148.168C217.402 152.987 219.097 155.682 218.15 159.442C216.729 165.098 209.689 166.327 205.81 162.337C202.323 158.746 198.858 151.477 202.338 146.961C203.109 145.962 204.122 145.174 205.28 144.672C206.439 144.17 207.706 143.97 208.963 144.09C210.22 144.211 211.426 144.648 212.468 145.361C213.51 146.074 214.355 147.04 214.922 148.168Z" fill="#B55B52"/>
<path d="M210.236 147.013L207.793 141.483C207.793 141.483 213.486 138.456 214.552 141.579C218.52 141.757 220.474 149.53 217.172 153.949C213.93 153.083 210.932 146.317 210.932 146.317C210.717 146.547 210.48 146.776 210.236 147.013Z" fill="#263238"/>
<path d="M218.986 150.974C219.137 151.63 219.156 152.309 219.041 152.973C218.927 153.636 218.682 154.27 218.32 154.838C217.343 156.318 215.655 155.771 214.915 154.223C214.249 152.839 213.953 150.381 215.418 149.397C215.744 149.188 216.116 149.064 216.501 149.034C216.886 149.004 217.273 149.071 217.626 149.227C217.979 149.383 218.289 149.624 218.526 149.929C218.763 150.234 218.922 150.593 218.986 150.974Z" fill="#B55B52"/>
<path d="M208.556 153.602C208.785 153.979 208.763 154.401 208.556 154.549C208.348 154.697 207.919 154.505 207.697 154.127C207.475 153.75 207.49 153.32 207.734 153.18C207.978 153.039 208.334 153.224 208.556 153.602Z" fill="#263238"/>
<path d="M204.247 156.082C204.476 156.459 204.454 156.888 204.21 157.029C203.966 157.17 203.573 156.985 203.351 156.607C203.129 156.23 203.144 155.808 203.388 155.66C203.633 155.512 204.025 155.726 204.247 156.082Z" fill="#263238"/>
<path d="M205.735 155.497C205.932 156.889 205.932 158.302 205.735 159.694C206.102 159.718 206.469 159.665 206.814 159.538C207.158 159.41 207.472 159.211 207.734 158.954L205.735 155.497Z" fill="#A02724"/>
<path d="M209.066 151.447C209.026 151.469 208.982 151.481 208.936 151.481C208.891 151.481 208.846 151.469 208.807 151.447C208.508 151.316 208.182 151.256 207.855 151.273C207.529 151.29 207.211 151.382 206.927 151.543C206.899 151.569 206.867 151.589 206.831 151.601C206.796 151.614 206.758 151.618 206.721 151.614C206.683 151.61 206.647 151.598 206.615 151.579C206.583 151.56 206.555 151.534 206.534 151.503C206.512 151.472 206.498 151.436 206.492 151.399C206.486 151.362 206.488 151.324 206.497 151.288C206.507 151.252 206.525 151.218 206.549 151.189C206.574 151.161 206.604 151.137 206.638 151.122C206.992 150.909 207.392 150.784 207.804 150.758C208.217 150.733 208.629 150.806 209.007 150.973C209.068 151.003 209.117 151.054 209.143 151.117C209.169 151.18 209.17 151.25 209.147 151.314C209.13 151.364 209.102 151.409 209.066 151.447Z" fill="#263238"/>
<path d="M201.516 155.711C201.477 155.743 201.431 155.763 201.382 155.771C201.348 155.774 201.314 155.77 201.281 155.76C201.249 155.749 201.219 155.733 201.192 155.711C201.166 155.689 201.145 155.662 201.129 155.631C201.113 155.601 201.104 155.568 201.101 155.534C201.053 155.122 201.106 154.704 201.256 154.317C201.405 153.93 201.647 153.585 201.96 153.313C202.016 153.271 202.086 153.253 202.156 153.263C202.225 153.273 202.287 153.309 202.33 153.365C202.351 153.391 202.366 153.421 202.375 153.453C202.384 153.485 202.386 153.519 202.382 153.552C202.378 153.585 202.367 153.617 202.351 153.645C202.334 153.674 202.312 153.7 202.286 153.72C202.04 153.933 201.851 154.203 201.735 154.506C201.618 154.81 201.579 155.137 201.619 155.46C201.627 155.507 201.622 155.556 201.603 155.6C201.585 155.645 201.555 155.683 201.516 155.711Z" fill="#263238"/>
<path d="M209.681 161.182C209.645 161.182 209.611 161.173 209.58 161.156C209.549 161.139 209.522 161.115 209.503 161.086C209.487 161.062 209.476 161.036 209.471 161.008C209.465 160.98 209.466 160.951 209.472 160.923C209.478 160.895 209.49 160.869 209.507 160.846C209.524 160.823 209.545 160.804 209.57 160.79C209.57 160.79 211.213 159.724 211.42 158.243C211.423 158.215 211.431 158.188 211.445 158.163C211.458 158.139 211.477 158.117 211.499 158.1C211.521 158.082 211.547 158.07 211.574 158.063C211.601 158.055 211.629 158.054 211.657 158.058C211.686 158.062 211.713 158.071 211.738 158.085C211.762 158.099 211.784 158.118 211.801 158.141C211.818 158.164 211.831 158.19 211.838 158.218C211.845 158.245 211.846 158.274 211.842 158.302C211.605 159.983 209.873 161.1 209.799 161.152C209.763 161.173 209.722 161.184 209.681 161.182Z" fill="#263238"/>
<path d="M211.806 147.346C211.806 147.346 210.473 148.723 209.156 147.635C209.156 147.635 206.935 149.071 206.439 147.243C206.439 147.243 205.698 149.041 204.307 148.36C204.307 148.36 203.455 150.507 202.13 149.774C202.13 149.774 201.694 151.788 200.65 151.255L200.243 153.113C200.243 153.113 198.148 153.15 198.829 151.166C198.829 151.166 197.141 150.004 197.903 148.457C197.903 148.457 196.941 145.955 198.91 145.607C198.91 145.607 198.488 143.452 201.027 143.8C201.027 143.8 200.938 141.705 203.374 142.157C203.374 142.157 203.796 139.307 206.565 140.721C206.565 140.721 208.097 138.307 209.844 139.98C210.498 139.447 211.325 139.17 212.168 139.203C213.686 139.203 214.286 140.847 214.286 140.847C214.644 140.687 215.039 140.626 215.429 140.669C215.819 140.712 216.191 140.858 216.506 141.091C217.883 141.831 217.676 143.8 217.676 143.8C217.676 143.8 220.119 144.733 218.831 146.525C217.543 148.316 211.806 147.346 211.806 147.346Z" fill="#263238"/>
<path d="M216.854 170.147C216.854 170.147 218.757 171.227 220.874 172.219C222.725 170.295 226.922 165.402 225.679 162.677C225.079 161.974 222.754 162.204 222.754 162.204C222.754 162.204 221.489 166.075 216.854 170.147Z" fill="#1470FB"/>
<path d="M216.854 170.147C216.055 171.425 215.444 172.811 215.04 174.263C213.012 173.774 212.013 168.244 212.42 167.452C213.117 166.659 214.007 166.057 215.003 165.705C214.926 166.54 215.054 167.382 215.376 168.156C215.699 168.93 216.206 169.614 216.854 170.147Z" fill="#1470FB"/>
<g opacity="0.2">
<path d="M216.854 170.147C216.854 170.147 218.757 171.227 220.874 172.219C222.725 170.295 226.922 165.402 225.679 162.677C225.079 161.974 222.754 162.204 222.754 162.204C222.754 162.204 221.489 166.075 216.854 170.147Z" fill="white"/>
<path d="M216.854 170.147C216.055 171.425 215.444 172.811 215.04 174.263C213.012 173.774 212.013 168.244 212.42 167.452C213.117 166.659 214.007 166.057 215.003 165.705C214.926 166.54 215.054 167.382 215.376 168.156C215.699 168.93 216.206 169.614 216.854 170.147Z" fill="white"/>
</g>
<path d="M225.679 162.7C227.551 169.666 230.028 176.455 233.082 182.991C237.146 191.907 241.916 200.485 247.347 208.641C249.842 212.305 250.996 223.373 250.996 223.373C250.996 223.373 254.838 220.937 254.986 219.745C255.075 219.005 254.061 211.491 250.73 205.532C248.605 201.734 247.162 197.485 245.74 193.591C242.098 183.612 236.117 160.412 236.117 160.412C233.705 160.597 231.318 161.031 228.995 161.708C227.996 161.959 226.871 162.292 225.679 162.7Z" fill="#1470FB"/>
<path opacity="0.7" d="M254.987 219.745C254.839 220.93 250.997 223.365 250.997 223.365C250.997 223.365 249.842 212.261 247.347 208.634C244.243 204.051 241.382 199.31 238.775 194.428C237.294 191.652 235.969 189.039 234.829 186.692C234.192 185.389 233.615 184.167 233.089 183.042C230.035 176.51 227.558 169.723 225.687 162.759C226.878 162.344 228.004 162.018 229.025 161.73C231.347 161.052 233.734 160.621 236.147 160.442C236.147 160.442 236.998 163.765 238.264 168.437C239.078 171.487 240.077 175.099 241.121 178.763C241.699 180.792 242.291 182.828 242.883 184.775C243.89 188.143 244.882 191.252 245.748 193.613C246.133 194.665 246.488 195.738 246.918 196.826C247.96 199.833 249.237 202.754 250.737 205.561C254.061 211.461 255.075 219.005 254.987 219.745Z" fill="white"/>
<path opacity="0.4" d="M225.679 162.7C227.551 169.666 230.028 176.455 233.082 182.991L233.511 167.245L229.477 167.741L232.911 164.543L228.988 161.678C227.996 161.959 226.871 162.292 225.679 162.7Z" fill="white"/>
<path d="M217.802 228.717L218.979 229.228C219.326 224.361 219.192 219.471 218.58 214.63C217.662 208.567 215.322 201.246 213.716 192.903C213.523 191.889 213.346 190.911 213.183 189.942C210.022 172.123 212.05 168.311 212.184 168.074L209.815 169.518L205.536 172.145C206.772 181.769 213.538 201.394 217.032 215.037C217.884 218.398 217.802 228.717 217.802 228.717Z" fill="#1470FB"/>
<path opacity="0.7" d="M217.802 228.717L218.979 229.228C219.326 224.361 219.192 219.471 218.58 214.63C217.662 208.567 215.322 201.246 213.716 192.903C213.523 191.889 213.346 190.911 213.183 189.942C210.022 172.123 212.05 168.311 212.184 168.074L209.815 169.518L205.536 172.145C206.772 181.769 213.538 201.394 217.032 215.037C217.884 218.398 217.802 228.717 217.802 228.717Z" fill="white"/>
<path opacity="0.4" d="M210.799 174.907L208.283 177.394C208.283 177.394 210.955 185.855 213.183 189.979C210.022 172.16 212.051 168.348 212.184 168.111L209.815 169.554C208.701 171.172 207.863 172.963 207.335 174.855L210.799 174.907Z" fill="white"/>
<path opacity="0.2" d="M231.534 252.917L234.798 235.15L234.169 225.749C234.169 225.749 229.727 242.05 231.534 252.917Z" fill="black"/>
<path d="M220.185 319.49H207.993L208.445 316.336L220.644 316.329L220.185 319.49Z" fill="#1470FB"/>
<path d="M249.819 316.329H238.078V319.483H249.819V316.329Z" fill="#1470FB"/>
<path d="M228.809 186.914L222.791 186.788L225.545 192.881C225.545 192.881 230.927 192.666 230.727 189.92L228.809 186.914Z" fill="#D9877C"/>
<path d="M218.717 189.156C218.162 189.478 218.05 190.234 218.489 190.703L221.33 193.742C221.602 194.032 222.02 194.134 222.395 194.001L225.545 192.881L222.792 186.788L218.717 189.156Z" fill="#D9877C"/>
<path opacity="0.1" d="M241.113 178.712C238.816 175.632 237.461 171.952 237.212 168.118C237.565 168.186 237.913 168.275 238.256 168.385C239.07 171.435 240.092 175.062 241.113 178.712Z" fill="black"/>
<path opacity="0.1" d="M246.91 196.797C244.116 196.313 241.384 195.519 238.767 194.428C237.286 191.652 235.961 189.039 234.821 186.692C237.554 186.273 240.246 185.622 242.868 184.745C243.875 188.113 244.867 191.222 245.733 193.584C246.125 194.613 246.51 195.686 246.91 196.797Z" fill="black"/>
<path d="M245.273 165.128C248.856 170.459 252.038 176.048 254.793 181.851C255.641 183.569 256.253 185.395 256.614 187.277C256.718 187.961 256.698 188.658 256.555 189.335C256.329 190.159 255.887 190.907 255.273 191.502C254.66 192.097 253.899 192.517 253.068 192.718C248.827 193.799 244.429 193.236 240.195 192.94C235.961 192.644 231.793 191.904 227.61 191.089C227.146 190.996 226.734 190.734 226.453 190.353C226.172 189.973 226.043 189.501 226.091 189.03C226.139 188.56 226.361 188.124 226.713 187.808C227.065 187.492 227.522 187.318 227.995 187.321C232.133 187.321 236.301 187.321 240.402 187.232C243.741 187.114 248.183 187.121 250.848 186.277C250.578 186.456 250.346 186.685 250.166 186.953C249.986 187.222 249.86 187.523 249.796 187.839C249.693 188.38 249.752 188.372 249.722 188.35C248.693 185.389 246.872 182.554 245.281 179.77C243.482 176.706 240.735 172.368 238.84 169.303C236.286 165.009 242.342 161.049 245.251 165.128H245.273Z" fill="#D9877C"/>
<path d="M236.138 160.383C241.461 160.153 245.11 164.506 251.01 172.183C260.456 184.479 261.419 190.734 259.153 192.651C255.385 195.805 240.306 194.813 240.306 194.813L237.619 186.1C237.619 186.1 246.458 185.049 246.502 184.434C246.547 183.82 239.099 173.737 239.099 173.737C237.507 171.58 236.413 169.098 235.894 166.468C235.493 164.449 235.576 162.363 236.138 160.383Z" fill="#1470FB"/>
<path opacity="0.7" d="M236.138 160.383C241.461 160.153 245.11 164.506 251.01 172.183C260.456 184.479 261.419 190.734 259.153 192.651C255.385 195.805 240.306 194.813 240.306 194.813L237.619 186.1C237.619 186.1 246.458 185.049 246.502 184.434C246.547 183.82 239.099 173.737 239.099 173.737C237.507 171.58 236.413 169.098 235.894 166.468C235.493 164.449 235.576 162.363 236.138 160.383Z" fill="white"/>
<path d="M112.876 221.3H116.437L126.357 273.445H122.796L112.876 221.3Z" fill="#263238"/>
<path d="M126.097 221.3H129.658L139.578 273.445H136.017L126.097 221.3Z" fill="#263238"/>
<path d="M139.326 221.3H142.887L152.799 273.445H149.238L139.326 221.3Z" fill="#263238"/>
<path opacity="0.4" d="M112.876 221.3H116.437L126.357 273.445H122.796L112.876 221.3Z" fill="white"/>
<path opacity="0.4" d="M126.097 221.3H129.658L139.578 273.445H136.017L126.097 221.3Z" fill="white"/>
<path opacity="0.4" d="M139.326 221.3H142.887L152.799 273.445H149.238L139.326 221.3Z" fill="white"/>
<path d="M119.035 227.318C124.765 224.209 132.73 224.209 140.333 227.318C144.182 228.799 148.728 229.258 150.741 227.081C154.176 223.883 148.158 214.4 136.602 211.395C128.333 209.27 120.153 209.27 113.165 211.395C103.423 214.4 103.119 223.883 108.479 227.081C111.81 229.258 116.096 228.836 119.035 227.318Z" fill="#263238"/>
<path opacity="0.4" d="M119.035 227.318C124.765 224.209 132.73 224.209 140.333 227.318C144.182 228.799 148.728 229.258 150.741 227.081C154.176 223.883 148.158 214.4 136.602 211.395C128.333 209.27 120.153 209.27 113.165 211.395C103.423 214.4 103.119 223.883 108.479 227.081C111.81 229.258 116.096 228.836 119.035 227.318Z" fill="white"/>
<path d="M174.852 277.768H119.546V272.815C119.546 271.834 119.936 270.892 120.63 270.198C121.324 269.504 122.265 269.114 123.247 269.114H171.15C172.132 269.114 173.074 269.504 173.768 270.198C174.462 270.892 174.852 271.834 174.852 272.815V277.768Z" fill="#263238"/>
<path opacity="0.4" d="M174.852 277.768H119.546V272.815C119.546 271.834 119.936 270.892 120.63 270.198C121.324 269.504 122.265 269.114 123.247 269.114H171.15C172.132 269.114 173.074 269.504 173.768 270.198C174.462 270.892 174.852 271.834 174.852 272.815V277.768Z" fill="white"/>
<path d="M144.819 332.6H149.594L150.786 286.326L151.089 274.792H143.316L143.613 286.326L144.819 332.6Z" fill="#263238"/>
<path opacity="0.4" d="M144.819 332.6H149.594L150.786 286.326L151.089 274.792H143.316L143.613 286.326L144.819 332.6Z" fill="white"/>
<path opacity="0.2" d="M143.316 274.792L143.613 286.644H150.786L151.089 274.792H143.316Z" fill="black"/>
<path d="M124.662 332.6L129.918 275.606H123.166L119.413 332.6H124.662Z" fill="#263238"/>
<path opacity="0.4" d="M124.677 332.6L129.4 281.232L129.918 275.532H123.167L122.797 281.232L119.421 332.6H124.677Z" fill="white"/>
<path opacity="0.2" d="M129.917 275.532L129.399 281.462H122.796L123.166 275.532H129.917Z" fill="black"/>
<path d="M174.993 332.6L171.24 275.606H164.489L169.744 332.6H174.993Z" fill="#263238"/>
<path opacity="0.4" d="M169.737 332.6H174.993L171.617 281.232L171.24 275.532H164.489L165.014 281.232L169.737 332.6Z" fill="white"/>
<path opacity="0.2" d="M164.489 275.532L165.014 281.462H171.617L171.24 275.532H164.489Z" fill="black"/>
<path d="M118.384 277.775H176.014C176.836 277.775 177.502 277.109 177.502 276.287V274.933C177.502 274.111 176.836 273.445 176.014 273.445H118.384C117.562 273.445 116.896 274.111 116.896 274.933V276.287C116.896 277.109 117.562 277.775 118.384 277.775Z" fill="#263238"/>
<path opacity="0.6" d="M118.384 277.775H176.014C176.836 277.775 177.502 277.109 177.502 276.287V274.933C177.502 274.111 176.836 273.445 176.014 273.445H118.384C117.562 273.445 116.896 274.111 116.896 274.933V276.287C116.896 277.109 117.562 277.775 118.384 277.775Z" fill="white"/>
<path d="M195.329 233.603L200.17 230.709L200.91 237.808C200.91 237.808 196.247 239.355 195.166 236.949L195.329 233.603Z" fill="#EBB376"/>
<path d="M203.931 231.176C204.411 231.235 204.78 231.63 204.807 232.113L205.036 236.27C205.065 236.785 204.696 237.237 204.186 237.314L200.896 237.808L200.171 230.709L203.931 231.176Z" fill="#EBB376"/>
<path d="M191.308 231.205C189.428 230.783 187.555 230.346 185.697 229.879C183.839 229.413 181.996 228.969 180.226 228.473C179.338 228.229 178.464 227.97 177.665 227.696C177.317 227.577 176.984 227.451 176.688 227.333L176.629 227.2C176.562 227.059 176.495 226.867 176.421 226.689C176.133 225.949 175.851 225.119 175.577 224.261C175.03 222.536 174.526 220.715 174.008 218.901C173.009 215.259 171.787 208.419 170.684 207.59L161.061 210.388C161.801 213.275 162.608 216.103 163.489 218.923C163.792 219.886 164.103 220.848 164.421 221.818C165.036 223.728 165.709 225.615 166.487 227.555C166.583 227.799 166.687 228.036 166.783 228.295C167.094 229.036 167.405 229.776 167.782 230.56C167.916 230.827 168.041 231.086 168.204 231.382L168.426 231.804L168.708 232.285C168.789 232.426 168.922 232.626 169.048 232.818L169.248 233.1C169.3 233.174 169.433 233.344 169.529 233.455L169.855 233.833L169.944 233.929L170.092 234.077C170.203 234.18 170.307 234.277 170.425 234.373C170.543 234.469 170.758 234.632 170.928 234.75L171.336 235.002C172.026 235.382 172.753 235.692 173.505 235.927C174.097 236.12 174.652 236.261 175.185 236.394C176.258 236.653 177.273 236.853 178.287 237.045C180.308 237.408 182.284 237.682 184.253 237.926C186.223 238.171 188.206 238.363 190.176 238.541C192.145 238.718 194.099 238.859 196.098 238.94L196.964 232.522L191.308 231.205Z" fill="#1470FB"/>
<path opacity="0.2" d="M166.806 228.281C166.71 228.036 166.606 227.799 166.51 227.54C165.733 225.601 165.029 223.713 164.444 221.803C164.126 220.833 163.815 219.871 163.512 218.909C163.754 217.435 164.093 215.978 164.526 214.548C166.203 218.925 166.979 223.596 166.806 228.281Z" fill="black"/>
<path d="M181.212 324.701C181.212 324.701 181.212 324.738 181.212 324.746C181.221 324.751 181.231 324.754 181.241 324.754C181.252 324.754 181.262 324.751 181.271 324.746C181.752 325.033 182.264 325.266 182.796 325.442C183.182 325.611 183.619 325.627 184.017 325.486C184.149 325.414 184.257 325.307 184.329 325.175C184.401 325.044 184.434 324.895 184.424 324.746C184.436 324.653 184.423 324.559 184.388 324.472C184.353 324.385 184.297 324.309 184.225 324.25C183.666 324.014 183.041 323.985 182.463 324.168C182.919 323.874 183.257 323.428 183.418 322.91C183.431 322.786 183.401 322.661 183.334 322.556C183.267 322.451 183.166 322.372 183.048 322.333C182.95 322.283 182.842 322.257 182.733 322.257C182.624 322.257 182.516 322.283 182.418 322.333C181.678 322.732 181.308 324.487 181.286 324.553H181.175C181.17 324.605 181.183 324.657 181.212 324.701ZM181.693 324.361L181.545 324.398C181.708 323.828 182.048 322.88 182.507 322.643C182.611 322.587 182.734 322.574 182.848 322.606H182.914C183.107 322.688 183.129 322.806 183.114 322.888C183.092 323.339 182.352 324.035 181.693 324.361ZM181.693 324.687C182.529 324.45 183.684 324.25 184.032 324.524C184.068 324.552 184.097 324.59 184.113 324.633C184.13 324.676 184.136 324.722 184.128 324.768C184.132 324.861 184.111 324.954 184.067 325.036C184.022 325.118 183.957 325.187 183.877 325.234C183.521 325.427 182.722 325.22 181.708 324.687H181.693Z" fill="#1470FB"/>
<path d="M177.769 311.969L174.068 323.806L180.346 324.405L183.707 313.62L177.769 311.969Z" fill="#EBB376"/>
<path opacity="0.2" d="M177.762 311.969L175.926 317.832L182.122 318.713L183.706 313.62L177.762 311.969Z" fill="black"/>
<path d="M180.975 323.776L174.209 321.733C174.154 321.713 174.095 321.704 174.037 321.706C173.979 321.709 173.921 321.723 173.868 321.748C173.815 321.773 173.768 321.808 173.728 321.851C173.689 321.894 173.659 321.944 173.639 321.999L171.684 327.263C171.599 327.545 171.629 327.849 171.768 328.108C171.907 328.368 172.143 328.562 172.425 328.647C174.801 329.321 175.963 329.528 178.946 330.402C180.782 330.949 184.343 332.208 186.964 332.563C189.584 332.919 189.858 330.342 188.785 329.943C186.231 329.025 183.21 326.278 181.915 324.428C181.683 324.111 181.352 323.882 180.975 323.776Z" fill="#263238"/>
<path d="M139.875 248.942C140.741 263.007 142.836 270.683 155.51 272.505C168.183 274.326 187.889 272.505 187.889 272.505L175.801 315.744L187.882 319.793C187.882 319.793 208.062 267.56 205.382 261.889C202.702 256.218 164.667 252.458 164.667 252.458L161.21 245.285L139.875 248.942Z" fill="#1470FB"/>
<path opacity="0.6" d="M196.521 296.179C192.16 308.697 187.874 319.793 187.874 319.793L175.8 315.744L187.889 272.512C179.589 273.229 171.253 273.449 162.927 273.171C160.328 273.052 157.797 272.845 155.524 272.512C142.888 270.683 140.719 262.985 139.889 248.949L161.209 245.292L164.666 252.465C164.666 252.465 202.717 256.226 205.382 261.889C206.825 264.946 201.599 281.536 196.521 296.179Z" fill="white"/>
<path opacity="0.2" d="M196.52 296.179C192.16 308.697 187.874 319.793 187.874 319.793L175.8 315.744L187.889 272.512C179.589 273.229 171.253 273.449 162.927 273.171L163.482 254.198C163.482 254.198 187.097 254.079 195.965 259.276C198.134 260.549 197.542 278.893 196.52 296.179Z" fill="black"/>
<path d="M128.771 248.942C129.637 263.007 131.732 270.683 144.405 272.505C157.079 274.326 176.785 272.505 176.785 272.505L179.502 318.705L191.583 318.313C191.583 318.313 196.957 266.079 194.278 260.408C191.598 254.738 157.264 253.938 157.264 253.938L153.807 245.285L128.771 248.942Z" fill="#1470FB"/>
<path opacity="0.6" d="M128.771 248.942C129.637 263.007 131.732 270.683 144.405 272.505C157.079 274.326 176.785 272.505 176.785 272.505L179.502 318.705L191.583 318.313C191.583 318.313 196.957 266.079 194.278 260.408C191.598 254.738 157.264 253.938 157.264 253.938L153.807 245.285L128.771 248.942Z" fill="white"/>
<path d="M189.014 326.345C189.022 326.348 189.031 326.35 189.04 326.35C189.049 326.35 189.058 326.348 189.066 326.345C189.605 326.493 190.159 326.58 190.717 326.604C191.135 326.662 191.56 326.562 191.909 326.323C192.02 326.223 192.099 326.092 192.135 325.946C192.171 325.801 192.162 325.648 192.109 325.508C192.093 325.416 192.056 325.328 191.999 325.253C191.942 325.178 191.868 325.119 191.783 325.079C191.18 325.005 190.57 325.144 190.058 325.471C190.425 325.064 190.633 324.539 190.643 323.991C190.622 323.868 190.56 323.756 190.467 323.673C190.374 323.59 190.256 323.54 190.132 323.532C190.025 323.517 189.915 323.526 189.812 323.558C189.708 323.59 189.613 323.644 189.532 323.717C188.896 324.309 189.044 326.086 189.044 326.189C189.044 326.189 188.94 326.226 188.948 326.234C188.948 326.256 188.955 326.279 188.967 326.298C188.978 326.317 188.995 326.334 189.014 326.345ZM189.384 325.886L189.259 325.96C189.259 325.368 189.325 324.368 189.71 324.02C189.751 323.977 189.8 323.943 189.855 323.92C189.91 323.897 189.969 323.886 190.028 323.887H190.095C190.302 323.887 190.362 324.02 190.369 324.109C190.258 324.812 189.901 325.452 189.362 325.915L189.384 325.886ZM189.481 326.197C190.221 325.745 191.287 325.242 191.701 325.412C191.744 325.43 191.781 325.459 191.809 325.495C191.838 325.531 191.857 325.574 191.864 325.619C191.89 325.709 191.893 325.803 191.872 325.894C191.851 325.984 191.808 326.068 191.746 326.138C191.413 326.456 190.584 326.471 189.458 326.226L189.481 326.197Z" fill="#1470FB"/>
<path d="M182.256 315.033L181.871 327.426L188.075 326.323L188.415 315.033H182.256Z" fill="#EBB376"/>
<path opacity="0.2" d="M182.256 315.033L182.056 321.17L188.259 320.356L188.422 315.033H182.256Z" fill="black"/>
<path d="M188.518 325.545L181.449 325.39C181.33 325.382 181.213 325.421 181.123 325.498C181.033 325.576 180.977 325.686 180.968 325.804L180.501 331.394C180.493 331.687 180.602 331.971 180.803 332.185C181.004 332.399 181.281 332.524 181.575 332.534C184.047 332.534 185.224 332.43 188.333 332.474C190.243 332.474 194.011 332.763 196.632 332.408C199.252 332.052 198.853 329.447 197.683 329.387C194.981 329.187 191.339 327.359 189.592 325.923C189.286 325.682 188.908 325.549 188.518 325.545Z" fill="#263238"/>
<path d="M178.761 318.72L191.782 319.053L192.671 313.449L178.376 313.36L178.761 318.72Z" fill="#1470FB"/>
<path opacity="0.2" d="M178.761 318.72L191.782 319.053L192.671 313.449L178.376 313.36L178.761 318.72Z" fill="white"/>
<path d="M170.685 207.59C168.258 214.379 166.341 221.34 164.948 228.414C164.311 231.597 163.741 235.002 163.327 238.519C162.919 241.916 162.66 245.425 162.586 248.949H128.771C128.771 248.949 128.771 229.635 134.515 214.437C135.535 211.644 136.842 208.965 138.416 206.442C138.712 205.954 139.031 205.473 139.356 205.014C140.254 203.737 141.594 202.84 143.117 202.497C146.983 201.604 150.962 201.307 154.917 201.616C161.987 202.326 170.685 207.59 170.685 207.59Z" fill="#1470FB"/>
<path opacity="0.2" d="M188.518 325.545L181.449 325.39C181.33 325.382 181.213 325.421 181.123 325.498C181.033 325.576 180.977 325.686 180.968 325.804L180.501 331.394C180.493 331.687 180.602 331.971 180.803 332.185C181.004 332.399 181.281 332.524 181.575 332.534C184.047 332.534 185.224 332.43 188.333 332.474C190.243 332.474 194.011 332.763 196.632 332.408C199.252 332.052 198.853 329.447 197.683 329.387C194.981 329.187 191.339 327.359 189.592 325.923C189.286 325.682 188.908 325.549 188.518 325.545Z" fill="white"/>
<path d="M203.738 238.474L196.979 227.718C196.915 227.614 196.895 227.488 196.923 227.369C196.951 227.25 197.024 227.147 197.127 227.081L197.29 226.985C197.341 226.953 197.398 226.931 197.457 226.921C197.516 226.911 197.577 226.913 197.636 226.926C197.695 226.94 197.75 226.966 197.798 227.001C197.847 227.037 197.888 227.081 197.919 227.133L204.678 237.882L204.863 239.14L203.738 238.474Z" fill="#263238"/>
<path opacity="0.2" d="M164.948 228.414C164.311 231.597 163.741 235.002 163.327 238.518C156.368 240.414 140.985 243.871 136.506 238.881C130.658 232.359 136.506 213.919 136.506 213.919L146.522 216.081C146.522 216.081 145.338 227.185 146.478 227.962C147.485 228.628 161.698 228.458 164.948 228.414Z" fill="black"/>
<path d="M162.616 229.805L167.457 226.911L168.197 234.018C168.197 234.018 163.534 235.557 162.453 233.159L162.616 229.805Z" fill="#EBB376"/>
<path d="M171.219 227.378C171.699 227.438 172.067 227.832 172.094 228.315L172.323 232.474C172.352 232.988 171.985 233.44 171.475 233.518L168.183 234.018L167.458 226.911L171.219 227.378Z" fill="#EBB376"/>
<path d="M163.475 228.887C159.27 229.524 154.962 230.161 150.809 230.546C148.738 230.785 146.651 230.864 144.568 230.783C144.568 230.294 144.568 229.739 144.568 229.176C144.613 228.243 144.709 227.251 144.827 226.215C145.079 224.202 145.375 222.136 145.738 220.063C146.478 215.933 147.367 211.691 148.359 207.708L142.436 206.228C141.893 206.089 141.327 206.062 140.773 206.148C140.218 206.235 139.688 206.433 139.212 206.731C138.737 207.028 138.326 207.419 138.007 207.88C137.687 208.341 137.463 208.861 137.351 209.411C136.714 212.446 136.203 215.451 135.781 218.538C135.478 220.759 135.189 223.054 135.041 225.401C134.974 226.57 134.93 227.762 134.937 229.013C134.933 230.387 135.042 231.759 135.263 233.114C135.429 234.146 135.756 235.145 136.233 236.076C136.44 236.464 136.688 236.829 136.973 237.164C137.144 237.383 137.332 237.589 137.536 237.778C137.647 237.882 137.758 237.985 137.876 238.082C137.973 238.163 138.075 238.24 138.18 238.311C138.794 238.746 139.474 239.081 140.193 239.303C141.057 239.563 141.95 239.715 142.851 239.755C143.544 239.792 144.238 239.792 144.931 239.755C147.322 239.596 149.7 239.27 152.045 238.778C156.458 237.843 160.809 236.639 165.074 235.172L163.475 228.887Z" fill="#1470FB"/>
<path d="M148.432 231.708C146.914 233.929 143.427 238.889 141.48 239.762C141.729 239.998 142.024 240.179 142.346 240.295C142.669 240.411 143.012 240.459 143.353 240.436C144.612 240.436 159.891 238 161.697 237.549C163.504 237.097 161.039 223.298 160.506 222.299C159.973 221.3 157.115 221.218 156.064 221.677C154.324 222.484 150.741 228.355 148.432 231.708Z" fill="#1470FB"/>
<path opacity="0.7" d="M148.432 231.708C146.914 233.929 143.427 238.889 141.48 239.762C141.729 239.998 142.024 240.179 142.346 240.295C142.669 240.411 143.012 240.459 143.353 240.436C144.612 240.436 159.891 238 161.697 237.549C163.504 237.097 161.039 223.298 160.506 222.299C159.973 221.3 157.115 221.218 156.064 221.677C154.324 222.484 150.741 228.355 148.432 231.708Z" fill="white"/>
<path d="M148.462 202.4C148.462 202.4 151.534 199.543 153.044 199.439C154.554 199.336 159.944 202.719 161.076 203.378C162.209 204.036 162.357 209.899 162.357 209.899L160.773 207.109L158.382 210.122L155.805 208.752L154.251 211.447C154.251 211.447 148.884 206.894 148.462 202.4Z" fill="#1470FB"/>
<path opacity="0.7" d="M148.462 202.4C148.462 202.4 151.534 199.543 153.044 199.439C154.554 199.336 159.944 202.719 161.076 203.378C162.209 204.036 162.357 209.899 162.357 209.899L160.773 207.109L158.382 210.122L155.805 208.752L154.251 211.447C154.251 211.447 148.884 206.894 148.462 202.4Z" fill="white"/>
<path d="M152.541 203.726C154.273 206.309 158.382 208.419 158.382 208.419L159.662 205.858C159.277 203.955 159.381 202.896 160.773 201.26L156.908 191.992C156.028 195.109 154.258 198.966 151.727 201.068C151.704 201.068 151.379 201.979 152.541 203.726Z" fill="#EBB376"/>
<path opacity="0.2" d="M158.485 195.768L160.765 201.26C160.267 201.817 159.819 202.416 159.426 203.052C158.019 202.067 156.775 199.351 157.419 197.663C157.656 196.971 158.017 196.329 158.485 195.768Z" fill="black"/>
<path d="M172.461 186.714C172.661 188.861 171.432 192.91 168.915 190.963C167.657 189.993 168.064 183.205 168.064 183.205C168.064 183.205 172.291 184.871 172.461 186.714Z" fill="#263238"/>
<path d="M155.353 185.863C155.353 185.863 155.901 180.133 160.372 178.934C162.165 178.482 164.047 178.519 165.821 179.04C167.595 179.56 169.198 180.546 170.462 181.895C172.291 184.175 172.187 188.202 171.943 190.156C171.699 192.111 157.796 191.474 155.353 185.863Z" fill="#EBB376"/>
<path d="M157.42 186.329C156.006 191.415 154.918 194.331 156.561 197.737C159.041 202.859 166.022 202.645 168.939 198.062C171.559 193.939 173.432 186.307 169.213 182.679C168.277 181.876 167.153 181.324 165.945 181.073C164.738 180.823 163.487 180.883 162.309 181.247C161.13 181.612 160.064 182.269 159.209 183.158C158.354 184.047 157.739 185.138 157.42 186.329Z" fill="#EBB376"/>
<path d="M157.109 180.296C158.145 180.021 159.248 180.165 160.179 180.697C161.111 181.229 161.795 182.106 162.084 183.138C162.602 184.819 160.085 188.72 157.153 190.119C152.497 190.134 154.155 181.014 157.109 180.296Z" fill="#263238"/>
<path d="M154.058 189.816C154.044 190.472 154.16 191.124 154.399 191.735C154.637 192.346 154.995 192.904 155.45 193.376C156.686 194.628 158.189 193.739 158.588 192.118C158.951 190.637 158.744 188.254 157.152 187.61C156.801 187.475 156.422 187.43 156.048 187.477C155.675 187.525 155.32 187.664 155.013 187.882C154.707 188.101 154.459 188.392 154.293 188.729C154.126 189.066 154.045 189.44 154.058 189.816Z" fill="#EBB376"/>
<path d="M164.54 190.26C164.399 190.667 164.503 191.067 164.77 191.163C165.036 191.259 165.369 190.993 165.51 190.586C165.651 190.179 165.547 189.779 165.28 189.69C165.014 189.601 164.681 189.853 164.54 190.26Z" fill="#263238"/>
<path d="M169.153 191.807C169.012 192.214 169.153 192.614 169.382 192.703C169.612 192.792 169.982 192.533 170.123 192.125C170.263 191.718 170.16 191.318 169.893 191.23C169.627 191.141 169.294 191.4 169.153 191.807Z" fill="#263238"/>
<path d="M167.619 191.518C167.706 192.887 167.983 194.238 168.441 195.531C168.096 195.625 167.735 195.646 167.382 195.591C167.028 195.536 166.691 195.407 166.391 195.212L167.619 191.518Z" fill="#D58745"/>
<path d="M163.63 188.305C163.669 188.329 163.714 188.341 163.76 188.341C163.805 188.341 163.85 188.329 163.889 188.305C164.148 188.122 164.446 188.001 164.759 187.952C165.073 187.904 165.393 187.928 165.696 188.024C165.757 188.051 165.827 188.052 165.89 188.027C165.952 188.002 166.002 187.953 166.029 187.891C166.055 187.829 166.056 187.759 166.031 187.697C166.006 187.634 165.957 187.584 165.895 187.558C165.514 187.429 165.107 187.392 164.708 187.45C164.309 187.508 163.93 187.659 163.601 187.891C163.546 187.928 163.508 187.986 163.496 188.051C163.483 188.116 163.497 188.184 163.534 188.239C163.561 188.268 163.594 188.29 163.63 188.305Z" fill="#263238"/>
<path d="M171.691 190.874C171.737 190.889 171.786 190.889 171.832 190.874C171.865 190.871 171.897 190.86 171.926 190.844C171.956 190.828 171.981 190.806 172.002 190.78C172.023 190.754 172.038 190.724 172.047 190.692C172.056 190.66 172.058 190.626 172.054 190.593C172.014 190.196 171.878 189.814 171.659 189.481C171.44 189.147 171.144 188.871 170.796 188.676C170.735 188.647 170.665 188.644 170.601 188.666C170.538 188.688 170.485 188.734 170.455 188.794C170.427 188.854 170.424 188.923 170.446 188.985C170.468 189.047 170.514 189.098 170.574 189.127C170.849 189.284 171.082 189.505 171.252 189.772C171.422 190.039 171.525 190.344 171.551 190.66C171.551 190.705 171.564 190.75 171.589 190.788C171.614 190.826 171.65 190.856 171.691 190.874Z" fill="#263238"/>
<path d="M164.584 195.249L164.362 195.834C165.062 196.072 165.723 196.411 166.324 196.841C166.649 197.248 164.843 199.528 164.488 199.528C164.133 199.528 162.563 198.484 163.503 197.307L162.622 196.782C162.622 196.782 161.312 198.003 160.727 197.826C160.142 197.648 158.551 197.145 159.187 195.679C159.442 195.17 159.835 194.743 160.32 194.446C160.806 194.148 161.365 193.994 161.934 193.998C162.371 193.998 163.955 195.59 163.955 195.59L164.443 195.183C164.214 194.761 163.037 192.725 161.823 192.451C160.468 192.155 156.848 195.316 156.641 197.041C156.434 198.766 157.381 201.334 161.393 202.104C165.406 202.874 167.567 197.9 167.449 196.922C167.308 195.982 165.058 195.375 164.584 195.249Z" fill="#263238"/>
<path d="M164.77 196.397C164.77 196.397 162.453 195.087 161.572 195.042C160.691 194.998 160.461 195.967 164.015 196.937C164.06 196.775 164.16 196.632 164.297 196.534C164.434 196.436 164.601 196.387 164.77 196.397Z" fill="#263238"/>
<path opacity="0.2" d="M165.326 190.919C165.263 191.2 165.124 191.459 164.923 191.666C164.723 191.873 164.468 192.02 164.188 192.091C163.909 192.162 163.615 192.153 163.34 192.066C163.065 191.98 162.82 191.818 162.631 191.6C162.535 191.477 162.446 191.348 162.365 191.215C163.49 192.125 164.378 191.955 165.326 190.919Z" fill="black"/>
<path opacity="0.2" d="M168.649 191.97C169.034 192.71 169.057 193.709 169.982 193.969C168.931 194.28 168.501 192.769 168.649 191.97Z" fill="black"/>
<path opacity="0.2" d="M163.845 184.397C166.384 183.842 169.375 184.145 171.388 185.922C169.115 184.575 166.436 184.338 163.845 184.397Z" fill="black"/>
<path opacity="0.2" d="M163.719 182.487C164.948 182.224 166.219 182.219 167.45 182.474C168.681 182.729 169.846 183.238 170.87 183.968C168.63 182.935 166.184 182.429 163.719 182.487Z" fill="black"/>
<path opacity="0.2" d="M166.807 186.292C167.405 186.192 168.018 186.212 168.609 186.351C169.199 186.489 169.757 186.743 170.249 187.099C169.087 186.81 167.969 186.595 166.807 186.292Z" fill="black"/>
<path opacity="0.2" d="M143.59 240.095C144.871 239.081 145.641 237.497 146.596 236.187L149.32 232.034C151.141 229.265 152.91 226.482 154.909 223.817C155.435 223.143 156.012 222.388 156.937 222.336C157.84 222.133 158.784 222.213 159.64 222.565C159.713 222.622 159.767 222.699 159.795 222.788C160.143 224.311 160.403 225.853 160.572 227.407L161.179 232.33C161.32 233.773 161.697 235.89 161.053 237.253C161.638 235.868 161.194 233.781 160.994 232.359L160.254 227.444C160.061 226.319 159.795 224.268 159.514 223.18C159.494 223.084 159.467 222.99 159.432 222.899C159.432 222.862 159.373 222.802 159.432 222.854C158.647 222.55 157.787 222.49 156.967 222.684C156.116 222.758 155.649 223.424 155.161 224.068C152.2 228.014 149.572 232.27 146.699 236.305C145.693 237.593 144.864 239.148 143.546 240.117L143.59 240.095Z" fill="black"/>
<path d="M156.635 222.98C156.635 222.98 158.989 222.921 159.078 222.98C159.166 223.039 159.507 223.491 158.063 223.491C156.62 223.491 156.198 223.387 156.635 222.98Z" fill="#1470FB"/>
<path d="M162.364 203.555C163.548 204.481 157.604 220.878 156.819 223.025C156.811 223.051 156.809 223.078 156.814 223.105C156.818 223.132 156.829 223.157 156.844 223.179C156.86 223.201 156.881 223.22 156.905 223.233C156.928 223.246 156.955 223.253 156.982 223.254H158.663C158.72 223.256 158.777 223.24 158.825 223.208C158.872 223.176 158.909 223.13 158.929 223.076C159.618 221.27 165.088 206.701 164.466 204.414C164.466 204.414 164.429 204.125 162.764 203.526C162.702 203.491 162.63 203.475 162.559 203.48C162.488 203.486 162.42 203.512 162.364 203.555Z" fill="#263238"/>
<path d="M173.173 237.364C171.954 237.148 170.806 236.64 169.827 235.883C169.793 235.851 169.772 235.808 169.769 235.762C169.766 235.715 169.78 235.67 169.809 235.633C169.838 235.597 169.879 235.573 169.925 235.566C169.971 235.558 170.017 235.569 170.056 235.594C170.981 236.313 172.065 236.801 173.217 237.016C173.265 237.023 173.309 237.049 173.34 237.087C173.37 237.126 173.384 237.174 173.38 237.223C173.369 237.268 173.342 237.308 173.304 237.334C173.265 237.36 173.219 237.37 173.173 237.364Z" fill="#263238"/>
<path d="M171.197 238.481C170.675 238.456 170.164 238.32 169.698 238.082C169.232 237.845 168.822 237.512 168.495 237.105C168.479 237.085 168.468 237.063 168.462 237.039C168.456 237.015 168.455 236.99 168.46 236.965C168.464 236.941 168.473 236.918 168.487 236.897C168.5 236.876 168.518 236.859 168.539 236.845C168.555 236.828 168.574 236.814 168.596 236.804C168.618 236.795 168.641 236.79 168.665 236.79C168.689 236.79 168.712 236.795 168.734 236.804C168.755 236.814 168.775 236.828 168.791 236.845C169.088 237.206 169.456 237.501 169.873 237.713C170.289 237.924 170.745 238.047 171.211 238.074C171.26 238.078 171.305 238.1 171.338 238.136C171.371 238.171 171.389 238.218 171.389 238.267C171.394 238.294 171.392 238.322 171.384 238.349C171.376 238.375 171.363 238.4 171.344 238.42C171.326 238.441 171.303 238.457 171.277 238.468C171.252 238.478 171.224 238.483 171.197 238.481Z" fill="#263238"/>
<path d="M175.163 216.614C175.122 216.609 175.083 216.59 175.054 216.561C175.024 216.531 175.005 216.492 175.001 216.451C174.89 215.503 174.482 212.964 173.868 212.498C173.829 212.468 173.803 212.425 173.796 212.376C173.789 212.327 173.802 212.278 173.831 212.239C173.86 212.199 173.904 212.173 173.953 212.167C174.001 212.16 174.051 212.172 174.09 212.202C174.941 212.846 175.326 216.044 175.363 216.406C175.366 216.431 175.365 216.455 175.358 216.479C175.352 216.503 175.34 216.525 175.325 216.544C175.31 216.563 175.291 216.58 175.27 216.591C175.248 216.603 175.225 216.611 175.2 216.614H175.163Z" fill="#263238"/>
<path d="M176.355 215.222C176.315 215.216 176.279 215.197 176.25 215.169C176.221 215.142 176.2 215.106 176.192 215.067C176.06 214.41 175.879 213.764 175.652 213.134C175.637 213.088 175.64 213.038 175.661 212.994C175.681 212.95 175.718 212.916 175.763 212.898C175.809 212.883 175.859 212.886 175.903 212.907C175.947 212.927 175.981 212.964 176 213.009C176.234 213.661 176.422 214.329 176.562 215.007C176.569 215.055 176.556 215.104 176.527 215.143C176.498 215.182 176.455 215.207 176.407 215.215L176.355 215.222Z" fill="#263238"/>
<path d="M199.193 227.096C199.164 227.097 199.135 227.091 199.11 227.078C199.084 227.065 199.061 227.046 199.045 227.022C198.12 225.815 197.772 225.497 196.891 225.393C196.867 225.392 196.843 225.385 196.822 225.374C196.801 225.363 196.782 225.347 196.766 225.329C196.751 225.31 196.74 225.288 196.733 225.265C196.727 225.242 196.725 225.218 196.728 225.194C196.73 225.169 196.737 225.145 196.748 225.123C196.76 225.101 196.776 225.082 196.795 225.066C196.815 225.051 196.838 225.04 196.862 225.034C196.886 225.028 196.911 225.027 196.935 225.031C197.986 225.149 198.416 225.608 199.341 226.8C199.356 226.819 199.366 226.842 199.372 226.865C199.378 226.889 199.38 226.913 199.376 226.937C199.373 226.961 199.365 226.984 199.352 227.005C199.34 227.026 199.324 227.045 199.304 227.059C199.273 227.085 199.234 227.099 199.193 227.096Z" fill="#263238"/>
<path d="M199.193 225.393C199.164 225.395 199.136 225.389 199.11 225.376C199.084 225.363 199.062 225.343 199.045 225.319C198.67 224.763 198.095 224.373 197.439 224.231C197.415 224.228 197.391 224.221 197.37 224.209C197.348 224.197 197.33 224.181 197.314 224.161C197.299 224.142 197.288 224.12 197.282 224.096C197.275 224.073 197.273 224.048 197.276 224.024C197.279 224 197.287 223.976 197.299 223.955C197.311 223.933 197.327 223.915 197.346 223.9C197.365 223.884 197.387 223.873 197.411 223.867C197.434 223.86 197.459 223.858 197.483 223.861C198.241 224.017 198.908 224.463 199.341 225.105C199.371 225.144 199.383 225.193 199.377 225.242C199.37 225.291 199.344 225.334 199.304 225.364C199.271 225.384 199.232 225.394 199.193 225.393Z" fill="#263238"/>
<g opacity="0.7">
<path d="M173.173 237.364C171.954 237.148 170.806 236.64 169.827 235.883C169.793 235.851 169.772 235.808 169.769 235.762C169.766 235.715 169.78 235.67 169.809 235.633C169.838 235.597 169.879 235.573 169.925 235.566C169.971 235.559 170.017 235.569 170.056 235.594C170.981 236.313 172.065 236.801 173.217 237.016C173.265 237.023 173.309 237.049 173.34 237.087C173.37 237.126 173.384 237.174 173.38 237.223C173.369 237.268 173.342 237.308 173.304 237.334C173.265 237.36 173.219 237.37 173.173 237.364Z" fill="white"/>
<path d="M171.196 238.481C170.674 238.456 170.163 238.32 169.697 238.082C169.231 237.845 168.821 237.512 168.494 237.105C168.478 237.085 168.467 237.063 168.461 237.039C168.455 237.015 168.454 236.99 168.459 236.965C168.463 236.941 168.472 236.918 168.486 236.897C168.499 236.876 168.517 236.859 168.538 236.845C168.554 236.828 168.574 236.814 168.595 236.804C168.617 236.795 168.64 236.79 168.664 236.79C168.688 236.79 168.711 236.795 168.733 236.804C168.754 236.814 168.774 236.828 168.79 236.845C169.087 237.206 169.455 237.501 169.872 237.713C170.288 237.924 170.744 238.047 171.211 238.074C171.259 238.078 171.304 238.1 171.337 238.136C171.37 238.171 171.388 238.218 171.388 238.267C171.393 238.294 171.391 238.322 171.383 238.349C171.375 238.375 171.362 238.4 171.343 238.42C171.325 238.441 171.302 238.457 171.276 238.468C171.251 238.478 171.223 238.483 171.196 238.481Z" fill="white"/>
<path d="M175.163 216.614C175.122 216.609 175.083 216.59 175.054 216.561C175.024 216.531 175.005 216.492 175.001 216.451C174.89 215.503 174.482 212.964 173.868 212.498C173.829 212.468 173.803 212.425 173.796 212.376C173.789 212.327 173.802 212.278 173.831 212.239C173.86 212.199 173.904 212.173 173.953 212.167C174.001 212.16 174.051 212.172 174.09 212.202C174.941 212.846 175.326 216.044 175.363 216.406C175.366 216.431 175.365 216.455 175.358 216.479C175.352 216.503 175.34 216.525 175.325 216.544C175.31 216.563 175.291 216.58 175.27 216.591C175.248 216.603 175.225 216.611 175.2 216.614H175.163Z" fill="white"/>
<path d="M176.356 215.222C176.316 215.215 176.28 215.197 176.251 215.169C176.221 215.142 176.201 215.106 176.193 215.066C176.061 214.41 175.88 213.764 175.653 213.134C175.638 213.088 175.641 213.038 175.662 212.994C175.682 212.95 175.719 212.916 175.764 212.897C175.81 212.883 175.86 212.886 175.904 212.907C175.948 212.927 175.982 212.964 176.001 213.009C176.235 213.661 176.423 214.329 176.563 215.007C176.57 215.055 176.557 215.104 176.528 215.143C176.499 215.181 176.456 215.207 176.408 215.215L176.356 215.222Z" fill="white"/>
<path d="M199.192 227.096C199.163 227.097 199.134 227.091 199.109 227.078C199.083 227.065 199.06 227.046 199.044 227.022C198.119 225.815 197.771 225.497 196.89 225.393C196.866 225.392 196.842 225.385 196.821 225.374C196.8 225.363 196.781 225.347 196.766 225.328C196.75 225.31 196.739 225.288 196.732 225.265C196.726 225.242 196.724 225.217 196.727 225.193C196.729 225.169 196.736 225.145 196.747 225.123C196.759 225.101 196.775 225.081 196.795 225.066C196.814 225.051 196.837 225.04 196.861 225.034C196.885 225.027 196.91 225.026 196.934 225.031C197.986 225.149 198.415 225.608 199.34 226.8C199.355 226.819 199.365 226.841 199.371 226.865C199.377 226.889 199.379 226.913 199.375 226.937C199.372 226.961 199.364 226.984 199.351 227.005C199.339 227.026 199.323 227.044 199.303 227.059C199.272 227.085 199.233 227.099 199.192 227.096Z" fill="white"/>
<path d="M199.193 225.393C199.164 225.395 199.135 225.388 199.109 225.376C199.084 225.363 199.061 225.343 199.045 225.319C198.67 224.763 198.094 224.373 197.439 224.231C197.414 224.228 197.391 224.22 197.369 224.208C197.348 224.197 197.329 224.18 197.314 224.161C197.299 224.142 197.288 224.12 197.281 224.096C197.275 224.073 197.273 224.048 197.276 224.024C197.279 224 197.286 223.976 197.298 223.955C197.31 223.933 197.326 223.915 197.346 223.899C197.365 223.884 197.387 223.873 197.411 223.867C197.434 223.86 197.459 223.858 197.483 223.861C198.241 224.017 198.908 224.463 199.341 225.105C199.371 225.144 199.383 225.193 199.376 225.242C199.369 225.29 199.343 225.334 199.304 225.364C199.271 225.384 199.232 225.394 199.193 225.393Z" fill="white"/>
</g>
<path d="M157.988 332.6H153.62L156.455 245.285H161.956L157.988 332.6Z" fill="#263238"/>
<path d="M217.618 332.6H213.25L216.085 245.285H221.586L217.618 332.6Z" fill="#263238"/>
<path opacity="0.4" d="M157.988 332.6H153.62L156.455 245.285H161.956L157.988 332.6Z" fill="white"/>
<path opacity="0.4" d="M217.618 332.6H213.25L216.085 245.285H221.586L217.618 332.6Z" fill="white"/>
<path d="M289.327 332.6H293.695L290.86 245.285H285.359L289.327 332.6Z" fill="#263238"/>
<path d="M229.698 332.6H234.066L231.231 245.285H225.73L229.698 332.6Z" fill="#263238"/>
<path opacity="0.3" d="M289.327 332.6H293.695L290.86 245.285H285.359L289.327 332.6Z" fill="white"/>
<path opacity="0.3" d="M229.698 332.6H234.066L231.231 245.285H225.73L229.698 332.6Z" fill="white"/>
<path d="M152.569 241.458H295.487V247.787C295.487 248.095 295.364 248.391 295.146 248.609C294.928 248.827 294.633 248.949 294.325 248.949H153.724C153.416 248.949 153.12 248.827 152.902 248.609C152.684 248.391 152.562 248.095 152.562 247.787V241.458H152.569Z" fill="#263238"/>
<path opacity="0.5" d="M295.487 241.458V247.787C295.487 248.095 295.365 248.391 295.147 248.609C294.929 248.827 294.633 248.949 294.325 248.949H153.724C153.572 248.949 153.421 248.919 153.281 248.861C153.14 248.802 153.012 248.716 152.905 248.608C152.798 248.5 152.713 248.372 152.655 248.231C152.598 248.09 152.568 247.939 152.569 247.787V241.458H295.487Z" fill="white"/>
<path opacity="0.1" d="M295.487 241.569V247.787C295.487 248.095 295.365 248.391 295.147 248.609C294.929 248.827 294.633 248.949 294.325 248.949H223.917V244.426L152.569 243.042V241.458L295.487 241.569Z" fill="black"/>
<path d="M299.121 243.042H148.712C148.319 243.042 147.943 242.886 147.665 242.608C147.387 242.33 147.231 241.954 147.231 241.561C147.231 241.169 147.387 240.792 147.665 240.514C147.943 240.237 148.319 240.081 148.712 240.081H299.121C299.514 240.081 299.891 240.237 300.168 240.514C300.446 240.792 300.602 241.169 300.602 241.561C300.602 241.954 300.446 242.33 300.168 242.608C299.891 242.886 299.514 243.042 299.121 243.042Z" fill="#263238"/>
<path opacity="0.6" d="M300.594 241.569C300.594 241.961 300.438 242.338 300.161 242.615C299.883 242.893 299.507 243.049 299.114 243.049H148.712C148.319 243.049 147.943 242.893 147.665 242.615C147.387 242.338 147.231 241.961 147.231 241.569C147.231 241.176 147.387 240.799 147.665 240.522C147.943 240.244 148.319 240.088 148.712 240.088H299.121C299.513 240.09 299.887 240.247 300.163 240.524C300.439 240.802 300.594 241.177 300.594 241.569Z" fill="white"/>
<path opacity="0.2" d="M224.346 241.569C224.346 241.961 224.19 242.338 223.912 242.615C223.635 242.893 223.258 243.049 222.865 243.049H148.712C148.319 243.049 147.943 242.893 147.665 242.615C147.387 242.338 147.231 241.961 147.231 241.569C147.231 241.176 147.387 240.799 147.665 240.522C147.943 240.244 148.319 240.088 148.712 240.088H222.865C223.258 240.088 223.635 240.244 223.912 240.522C224.19 240.799 224.346 241.176 224.346 241.569Z" fill="white"/>
<path d="M164.79 240.125C167.777 239.364 170.843 238.961 173.925 238.926C178.715 238.926 180.528 239.777 184.785 239.777C187.443 239.759 190.087 239.373 192.639 238.63H212.864C209.145 239.635 205.308 240.133 201.456 240.11L164.79 240.125Z" fill="#1470FB"/>
<path opacity="0.7" d="M164.79 240.125C167.777 239.364 170.843 238.961 173.925 238.926C178.715 238.926 180.528 239.777 184.785 239.777C187.443 239.759 190.087 239.373 192.639 238.63H212.864C209.145 239.635 205.308 240.133 201.456 240.11L164.79 240.125Z" fill="white"/>
<path d="M263.211 213.94L260.452 214.361L263.654 235.334L266.413 234.913L263.211 213.94Z" fill="#1470FB"/>
<g opacity="0.7">
<path d="M263.211 213.94L260.452 214.361L263.654 235.334L266.413 234.913L263.211 213.94Z" fill="white"/>
</g>
<g opacity="0.2">
<path d="M261.328 214.712L260.545 214.832L260.578 215.051L261.361 214.931L261.328 214.712Z" fill="black"/>
<path d="M261.546 216.001L260.762 216.12L260.795 216.34L261.579 216.221L261.546 216.001Z" fill="black"/>
<path d="M261.509 215.986L260.726 216.106L260.759 216.325L261.542 216.206L261.509 215.986Z" fill="black"/>
<path d="M261.625 216.583L260.842 216.703L260.875 216.922L261.658 216.802L261.625 216.583Z" fill="black"/>
<path d="M261.711 217.234L260.928 217.353L260.961 217.573L261.744 217.454L261.711 217.234Z" fill="black"/>
<path d="M261.798 217.886L261.015 218.005L261.048 218.225L261.831 218.105L261.798 217.886Z" fill="black"/>
<path d="M261.908 218.482L261.125 218.602L261.159 218.822L261.942 218.702L261.908 218.482Z" fill="black"/>
<path d="M262.002 219.127L261.219 219.247L261.252 219.466L262.035 219.347L262.002 219.127Z" fill="black"/>
<path d="M262.087 219.775L261.304 219.895L261.337 220.114L262.12 219.995L262.087 219.775Z" fill="black"/>
<path d="M262.198 220.368L261.415 220.488L261.449 220.707L262.232 220.587L262.198 220.368Z" fill="black"/>
<path d="M262.29 221.027L261.507 221.147L261.541 221.366L262.324 221.247L262.29 221.027Z" fill="black"/>
<path d="M262.386 221.653L261.603 221.773L261.636 221.992L262.419 221.873L262.386 221.653Z" fill="black"/>
<path d="M262.477 222.287L261.694 222.406L261.728 222.626L262.511 222.506L262.477 222.287Z" fill="black"/>
<path d="M262.574 222.912L261.791 223.032L261.825 223.252L262.608 223.132L262.574 222.912Z" fill="black"/>
<path d="M262.665 223.561L261.882 223.68L261.915 223.9L262.698 223.78L262.665 223.561Z" fill="black"/>
<path d="M262.777 224.157L261.994 224.277L262.027 224.496L262.81 224.377L262.777 224.157Z" fill="black"/>
<path d="M262.98 225.477L262.196 225.596L262.23 225.815L263.014 225.697L262.98 225.477Z" fill="black"/>
<path d="M262.948 225.458L262.165 225.577L262.199 225.796L262.982 225.677L262.948 225.458Z" fill="black"/>
<path d="M263.233 226.627L262.449 226.746L262.483 226.966L263.267 226.847L263.233 226.627Z" fill="black"/>
<path d="M263.153 226.69L262.37 226.81L262.404 227.03L263.187 226.91L263.153 226.69Z" fill="black"/>
<path d="M263.256 227.304L262.473 227.423L262.507 227.643L263.29 227.523L263.256 227.304Z" fill="black"/>
<path d="M263.356 227.935L262.573 228.055L262.607 228.274L263.39 228.154L263.356 227.935Z" fill="black"/>
<path d="M263.457 228.567L262.674 228.687L262.707 228.907L263.49 228.787L263.457 228.567Z" fill="black"/>
<path d="M263.53 229.231L262.747 229.351L262.781 229.57L263.564 229.451L263.53 229.231Z" fill="black"/>
</g>
<path d="M267.193 217.288H266.127V231.412H267.193V217.288Z" fill="#1470FB"/>
<path d="M267.112 215.689H266.216L266.127 217.288H267.2L267.112 215.689Z" fill="#1470FB"/>
<g opacity="0.8">
<path d="M267.112 215.689H266.216L266.127 217.288H267.2L267.112 215.689Z" fill="white"/>
</g>
<g opacity="0.3">
<path d="M267.193 217.288H266.127V231.412H267.193V217.288Z" fill="black"/>
</g>
<path d="M272.633 218.898L271.7 218.779L269.891 232.944L270.823 233.063L272.633 218.898Z" fill="#263238"/>
<path d="M273.116 217.732L272.842 217.406L272.901 215.504L272.309 215.43L271.568 218.739L271.613 219.479L272.546 219.597L272.679 219.22L272.479 221.729H272.597C272.872 220.412 273.045 219.075 273.116 217.732Z" fill="#263238"/>
<g opacity="0.1">
<path d="M273.116 217.732L272.842 217.406L272.901 215.504L272.309 215.43L271.568 218.739L271.613 219.479L272.546 219.597L272.679 219.22L272.479 221.729H272.597C272.872 220.412 273.045 219.076 273.116 217.732Z" fill="white"/>
</g>
<path d="M271.043 222.181L268.126 222.336L268.23 219.405L270.628 219.279L271.043 222.181Z" fill="#263238"/>
<path d="M271.043 222.181L268.126 222.336L268.8 230.257L271.198 230.131L271.043 222.181Z" fill="#1470FB"/>
<path d="M272.146 226.215H261.323L262.189 240.021H271.272L272.146 226.215Z" fill="#263238"/>
<path d="M272.301 225.69H261.167V227.096H272.301V225.69Z" fill="#263238"/>
<g opacity="0.2">
<path d="M272.302 225.69H261.168V227.096H272.302V225.69Z" fill="white"/>
</g>
<path d="M284.544 217.843C284.544 217.843 287.35 210.136 288.742 209.182C290.134 208.227 292.088 201.534 290.415 198.707C288.133 200.229 286.496 202.541 285.818 205.199C285.818 205.199 285.736 197.5 281.805 195.649C281.805 195.649 279.251 201.527 281.11 206.22C280.028 205.469 278.722 205.109 277.408 205.199C277.408 205.199 278.8 208.256 280.88 208.715L282.968 219.494L284.544 217.843Z" fill="#1470FB"/>
<path opacity="0.2" d="M284.544 217.843C284.544 217.843 287.35 210.136 288.742 209.182C290.134 208.227 292.088 201.534 290.415 198.707C288.133 200.229 286.496 202.541 285.818 205.199C285.818 205.199 285.736 197.5 281.805 195.649C281.805 195.649 279.251 201.527 281.11 206.22C280.028 205.469 278.722 205.109 277.408 205.199C277.408 205.199 278.8 208.256 280.88 208.715L282.968 219.494L284.544 217.843Z" fill="black"/>
<path d="M285.159 219.494C285.278 218.209 285.77 216.988 286.575 215.98C287.38 214.972 288.463 214.223 289.689 213.823C294.079 212.209 295.123 210.744 295.123 210.744C295.123 210.744 292.458 209.544 290.437 211.284C292.779 208.643 294.387 205.435 295.101 201.979C293.848 202.574 292.748 203.449 291.886 204.536C291.023 205.623 290.421 206.893 290.126 208.249C290.126 208.249 290.592 203.889 287.905 201.979C287.905 201.979 286.062 205.621 287.328 208.974C287.328 208.974 285.766 207.361 284.367 207.124C284.367 207.124 283.626 211.565 285.803 213.142C285.803 213.142 284.271 217.65 284.241 220.189C284.211 222.729 285.159 219.494 285.159 219.494Z" fill="#1470FB"/>
<path d="M283.62 218.391L283.242 214.741C283.699 214.582 284.1 214.296 284.398 213.915C284.696 213.534 284.878 213.076 284.923 212.594C284.523 212.547 284.118 212.599 283.743 212.746C283.369 212.893 283.036 213.131 282.776 213.438C282.776 213.438 284.257 208.582 282.036 205.821C281.347 206.972 280.873 208.239 280.637 209.559C280.637 209.559 281.036 203.637 276.935 199.699C276.935 199.699 275.847 206.28 278.838 209.863C278.105 209.37 277.275 209.042 276.403 208.9C275.532 208.758 274.64 208.806 273.789 209.041C273.789 209.041 275.27 212.898 278.808 212.95C278.808 212.95 275.847 213.157 274.818 215.4C275.379 215.765 276.008 216.011 276.668 216.123C277.327 216.235 278.003 216.211 278.653 216.051C280.799 215.489 282.539 219.494 282.539 219.494L283.62 218.391Z" fill="#1470FB"/>
<path d="M285.996 220.678L286.996 218.309H279.682L280.689 220.678L278.164 224.698L280.17 240.132H286.507L288.513 224.698L285.996 220.678Z" fill="#1470FB"/>
<path opacity="0.7" d="M285.996 220.678L286.996 218.309H279.682L280.689 220.678L278.164 224.698L280.17 240.132H286.507L288.513 224.698L285.996 220.678Z" fill="white"/>
</svg>
