<svg width="375" height="375" viewBox="0 0 375 375" fill="none" xmlns="http://www.w3.org/2000/svg">
<rect width="375" height="375" fill="white"/>
<path d="M198.145 157.584C172.684 120.629 136.349 40.7975 77.9577 91.604C20.0004 142.094 63.4616 231.557 100.348 261.804C137.631 292.304 257.71 319.962 274.437 242.874C285.979 189.849 226.279 198.404 198.145 157.584Z" fill="#1470FB"/>
<path opacity="0.9" d="M198.145 157.584C172.684 120.629 136.349 40.7975 77.9577 91.604C20.0004 142.094 63.4616 231.557 100.348 261.804C137.631 292.304 257.71 319.962 274.437 242.874C285.979 189.849 226.279 198.404 198.145 157.584Z" fill="white"/>
<path d="M188.009 338.731C264.219 338.731 326 335.124 326 330.675C326 326.226 264.219 322.619 188.009 322.619C111.799 322.619 50.0186 326.226 50.0186 330.675C50.0186 335.124 111.799 338.731 188.009 338.731Z" fill="#F5F5F5"/>
<path d="M252.568 280.842C265.02 280.842 275.114 270.748 275.114 258.295C275.114 245.843 265.02 235.749 252.568 235.749C240.116 235.749 230.021 245.843 230.021 258.295C230.021 270.748 240.116 280.842 252.568 280.842Z" fill="white"/>
<path d="M252.568 281.12C248.053 281.121 243.64 279.784 239.885 277.276C236.131 274.769 233.204 271.205 231.476 267.035C229.747 262.864 229.294 258.275 230.174 253.847C231.054 249.419 233.227 245.352 236.419 242.159C239.611 238.966 243.677 236.792 248.105 235.911C252.533 235.029 257.122 235.481 261.293 237.208C265.464 238.935 269.029 241.861 271.537 245.614C274.046 249.368 275.384 253.781 275.384 258.296C275.379 264.346 272.973 270.147 268.696 274.426C264.418 278.705 258.618 281.112 252.568 281.12ZM252.568 236.034C248.163 236.034 243.857 237.34 240.195 239.787C236.533 242.234 233.678 245.713 231.993 249.782C230.308 253.852 229.867 258.33 230.727 262.65C231.587 266.97 233.708 270.938 236.824 274.052C239.939 277.166 243.907 279.286 248.227 280.145C252.548 281.003 257.025 280.561 261.094 278.874C265.163 277.188 268.641 274.332 271.087 270.669C273.533 267.006 274.838 262.7 274.836 258.296C274.831 252.392 272.483 246.732 268.307 242.558C264.132 238.384 258.471 236.037 252.568 236.034Z" fill="#1470FB"/>
<path d="M256.198 245.513H248.938V271.078H256.198V245.513Z" fill="#1470FB"/>
<path d="M265.35 261.932V254.673H239.786V261.932H265.35Z" fill="#1470FB"/>
<path d="M99.8382 87.8659L99.3542 87.3464C102.649 84.232 106.829 82.2177 111.318 81.5817L111.417 82.2934C107.073 82.906 103.027 84.8533 99.8382 87.8659Z" fill="#1470FB"/>
<path d="M94.5708 95.6447L93.9089 95.3885C94.6274 93.5755 95.5848 91.8665 96.7557 90.307L97.3251 90.734C96.1959 92.2432 95.2699 93.8943 94.5708 95.6447Z" fill="#1470FB"/>
<path d="M114.427 122.91C125.213 122.91 133.956 114.166 133.956 103.381C133.956 92.5953 125.213 83.8519 114.427 83.8519C103.642 83.8519 94.8982 92.5953 94.8982 103.381C94.8982 114.166 103.642 122.91 114.427 122.91Z" fill="#1470FB"/>
<path d="M126.091 94.5843C125.339 93.8034 124.439 93.1804 123.443 92.7516C122.447 92.3228 121.376 92.0968 120.292 92.0869C119.208 92.077 118.133 92.2832 117.129 92.6937C116.126 93.1042 115.214 93.7106 114.448 94.4775C113.682 93.7108 112.771 93.1046 111.769 92.6942C110.766 92.2838 109.691 92.0775 108.607 92.0875C107.524 92.0974 106.453 92.3233 105.458 92.7521C104.463 93.1808 103.563 93.8037 102.812 94.5843C101.339 96.1774 100.546 98.282 100.6 100.451C100.655 102.62 101.553 104.682 103.104 106.199L112.356 115.451C112.633 115.729 112.963 115.949 113.325 116.099C113.688 116.249 114.077 116.327 114.469 116.327C114.862 116.327 115.251 116.249 115.613 116.099C115.976 115.949 116.306 115.729 116.583 115.451L125.835 106.199C127.381 104.677 128.273 102.613 128.321 100.444C128.369 98.2748 127.569 96.1728 126.091 94.5843Z" fill="white"/>
<path d="M114.427 111.914C114.284 111.909 114.145 111.861 114.03 111.776C113.914 111.691 113.827 111.573 113.779 111.437L109.659 99.3884L107.936 104.427C107.888 104.567 107.796 104.688 107.675 104.774C107.554 104.859 107.409 104.905 107.26 104.904H100.364C100.175 104.904 99.9943 104.829 99.8608 104.696C99.7273 104.562 99.6523 104.381 99.6523 104.192C99.6523 104.004 99.7273 103.823 99.8608 103.689C99.9943 103.556 100.175 103.481 100.364 103.481H106.769L109.004 96.9544C109.052 96.8145 109.143 96.6933 109.264 96.6074C109.384 96.5216 109.529 96.4755 109.677 96.4755C109.825 96.4755 109.969 96.5216 110.089 96.6074C110.21 96.6933 110.301 96.8145 110.349 96.9544L114.541 109.217L118.612 99.6304C118.663 99.5082 118.748 99.4028 118.856 99.3261C118.964 99.2494 119.092 99.2044 119.224 99.1962C119.357 99.1886 119.49 99.2185 119.607 99.2827C119.724 99.3469 119.821 99.4427 119.886 99.5592L122.035 103.474H128.519C128.707 103.474 128.888 103.548 129.022 103.682C129.155 103.815 129.23 103.996 129.23 104.185C129.23 104.374 129.155 104.555 129.022 104.688C128.888 104.822 128.707 104.897 128.519 104.897H121.622C121.495 104.898 121.37 104.865 121.26 104.801C121.149 104.737 121.058 104.645 120.996 104.534L119.309 101.516L115.082 111.48C115.027 111.609 114.936 111.718 114.82 111.796C114.703 111.873 114.567 111.914 114.427 111.914Z" fill="#1470FB"/>
<path d="M222.783 305.737H148.503C147.293 305.751 146.093 305.512 144.98 305.037C143.866 304.561 142.864 303.86 142.037 302.976C141.21 302.092 140.575 301.046 140.174 299.904C139.773 298.763 139.614 297.55 139.706 296.343L151.713 118.419C151.922 115.878 153.069 113.506 154.93 111.763C156.791 110.02 159.234 109.032 161.783 108.989H236.077C237.291 108.975 238.494 109.215 239.609 109.692C240.725 110.17 241.729 110.875 242.557 111.762C243.385 112.649 244.019 113.7 244.417 114.846C244.816 115.992 244.972 117.209 244.874 118.419L232.846 296.343C232.629 298.877 231.48 301.24 229.621 302.976C227.762 304.711 225.325 305.695 222.783 305.737Z" fill="#263238"/>
<path d="M239.252 181.447H237.38C237.041 181.451 236.705 181.384 236.394 181.251C236.082 181.117 235.802 180.921 235.571 180.673C235.339 180.425 235.163 180.131 235.051 179.811C234.94 179.491 234.897 179.151 234.925 178.813L237.224 144.801C237.277 144.09 237.596 143.425 238.116 142.937C238.637 142.45 239.322 142.175 240.035 142.168H241.907C242.246 142.164 242.582 142.231 242.893 142.364C243.205 142.497 243.485 142.694 243.716 142.942C243.948 143.19 244.124 143.483 244.236 143.804C244.347 144.124 244.39 144.464 244.362 144.801L242.063 178.813C242.01 179.525 241.691 180.19 241.171 180.678C240.65 181.165 239.965 181.44 239.252 181.447Z" fill="#263238"/>
<path d="M150.632 158.758H148.767C148.491 158.762 148.218 158.708 147.964 158.6C147.71 158.493 147.481 158.333 147.291 158.133C147.102 157.932 146.956 157.694 146.864 157.434C146.771 157.174 146.733 156.898 146.753 156.623L147.586 144.339C147.638 143.762 147.902 143.225 148.326 142.831C148.751 142.437 149.306 142.214 149.885 142.204H151.756C152.031 142.202 152.304 142.257 152.556 142.366C152.809 142.474 153.037 142.634 153.225 142.834C153.414 143.034 153.559 143.271 153.651 143.53C153.744 143.789 153.782 144.065 153.763 144.339L152.931 156.623C152.88 157.2 152.616 157.738 152.192 158.132C151.767 158.527 151.211 158.75 150.632 158.758Z" fill="#1470FB"/>
<path d="M149.151 180.692H147.28C147.004 180.695 146.731 180.641 146.478 180.532C146.225 180.424 145.997 180.265 145.808 180.064C145.62 179.864 145.475 179.626 145.383 179.367C145.29 179.107 145.253 178.832 145.273 178.557L146.105 166.273C146.158 165.697 146.422 165.16 146.846 164.766C147.27 164.372 147.825 164.148 148.404 164.138H150.29C150.565 164.137 150.838 164.192 151.09 164.3C151.343 164.409 151.571 164.568 151.759 164.768C151.947 164.969 152.092 165.206 152.185 165.465C152.278 165.724 152.316 165.999 152.297 166.273L151.464 178.557C151.413 179.137 151.148 179.677 150.72 180.071C150.293 180.466 149.733 180.687 149.151 180.692Z" fill="#1470FB"/>
<path d="M221.21 305.737H146.931C145.72 305.75 144.52 305.512 143.407 305.037C142.294 304.561 141.292 303.86 140.465 302.976C139.637 302.092 139.003 301.046 138.602 299.904C138.2 298.762 138.041 297.549 138.134 296.343L150.148 118.419C150.365 115.877 151.519 113.507 153.387 111.769C155.255 110.031 157.703 109.051 160.254 109.017H234.505C235.716 109.004 236.916 109.243 238.03 109.718C239.144 110.194 240.146 110.897 240.974 111.781C241.801 112.665 242.435 113.712 242.836 114.855C243.237 115.998 243.395 117.211 243.301 118.419L231.281 296.343C231.064 298.878 229.914 301.242 228.054 302.978C226.193 304.714 223.754 305.697 221.21 305.737Z" fill="#1470FB"/>
<path opacity="0.3" d="M138.917 294.35L150.646 120.725H242.497L230.768 294.35H138.917Z" fill="white"/>
<path opacity="0.1" d="M175.178 294.35L207.958 120.725H228.534L195.753 294.35H175.178Z" fill="white"/>
<path opacity="0.1" d="M159.635 294.35L192.415 120.725H202.842L170.061 294.35H159.635Z" fill="white"/>
<path d="M188.11 113.38H206.023C206.172 113.377 206.321 113.406 206.458 113.465C206.596 113.523 206.72 113.61 206.822 113.719C206.924 113.829 207.002 113.958 207.05 114.1C207.099 114.241 207.118 114.391 207.105 114.54C207.08 114.854 206.94 115.147 206.711 115.363C206.482 115.578 206.181 115.701 205.866 115.707H187.953C187.803 115.709 187.655 115.679 187.517 115.62C187.379 115.561 187.256 115.473 187.154 115.363C187.052 115.253 186.974 115.123 186.925 114.982C186.877 114.84 186.858 114.689 186.871 114.54C186.896 114.227 187.037 113.935 187.266 113.72C187.495 113.506 187.796 113.384 188.11 113.38Z" fill="white"/>
<path d="M184.38 322.853L178.103 323.451L175.84 308.968L182.117 308.363L184.38 322.853Z" fill="#B55B52"/>
<path d="M177.384 320.384L183.96 318.341C184.073 318.302 184.197 318.308 184.306 318.358C184.415 318.409 184.5 318.5 184.543 318.612L186.678 323.828C186.731 323.968 186.755 324.117 186.747 324.267C186.74 324.416 186.701 324.562 186.635 324.696C186.568 324.83 186.474 324.948 186.359 325.044C186.244 325.14 186.11 325.21 185.967 325.252C183.59 325.963 181.326 326.127 178.458 327.387C175.106 328.81 173.704 330.718 170.096 330.718C167.512 330.718 166.929 328.348 168.025 328.02C173.007 326.511 172.352 325.273 175.967 321.38C176.343 320.929 176.832 320.585 177.384 320.384Z" fill="#263238"/>
<path opacity="0.2" d="M175.84 308.968L177.007 316.441L183.291 315.836L182.124 308.363L175.84 308.968Z" fill="black"/>
<path d="M180.38 125.963C172.146 124.995 163.954 125.643 155.734 127.237C154.364 127.503 153.115 128.198 152.166 129.222C151.218 130.245 150.621 131.544 150.46 132.93C149.571 140.802 148.553 158.445 152.524 184.763L186.173 181.916C186.237 177.141 182.842 155.384 185.647 132.81C185.761 132.013 185.715 131.201 185.511 130.422C185.307 129.643 184.949 128.913 184.458 128.275C183.967 127.637 183.353 127.103 182.653 126.706C181.953 126.309 181.18 126.056 180.38 125.963Z" fill="white"/>
<path d="M160.788 132.71L161.991 135.115C162.047 135.237 162.136 135.34 162.248 135.413C162.36 135.486 162.49 135.526 162.624 135.528L163.926 135.599C164.159 135.609 164.388 135.539 164.574 135.4L166.816 133.727L164.047 131.713L160.788 132.71Z" fill="#263238"/>
<path d="M163.969 134.909C163.494 134.689 162.956 134.646 162.453 134.788C161.392 138.524 160.232 149.25 160.111 154.004C163.328 163.377 164.381 164.323 164.381 164.323L166.011 153.043C166.011 153.043 164.182 141.506 163.969 134.909Z" fill="#263238"/>
<path d="M173.257 109.736C172.488 114.376 171.834 122.853 175.164 125.849C172.723 128.411 169.528 131.379 164.048 131.713C158.568 132.048 159.414 128.255 160.802 126.226C165.919 124.86 165.67 121.045 164.667 117.479L173.257 109.736Z" fill="#B55B52"/>
<path d="M176.558 125.443C176.171 125.276 175.768 125.145 175.356 125.052C175.255 125.025 175.148 125.032 175.052 125.072C174.955 125.112 174.875 125.183 174.822 125.273C174.295 126.169 172.687 130.176 164.047 131.713C165.47 132.553 167.356 135.158 168.168 136.411C170.758 135.066 177.498 131.044 176.857 125.842C176.844 125.756 176.81 125.675 176.758 125.605C176.706 125.536 176.637 125.48 176.558 125.443Z" fill="#F5F5F5"/>
<path d="M160.851 126.44C160.87 126.359 160.867 126.275 160.845 126.195C160.822 126.115 160.78 126.042 160.722 125.982C160.664 125.923 160.592 125.879 160.513 125.855C160.433 125.83 160.349 125.826 160.268 125.842C159.969 125.9 159.674 125.978 159.385 126.077C159.319 126.103 159.256 126.139 159.2 126.184C158.538 126.796 154.93 132.005 158.311 136.218C159.022 135.073 161.478 132.475 164.047 131.713C161.613 130.617 160.417 128.575 160.851 126.44Z" fill="#F5F5F5"/>
<path opacity="0.2" d="M169.754 112.896L164.673 117.48C164.918 118.307 165.089 119.155 165.185 120.013C167.15 119.679 169.79 117.451 169.932 115.387C170.028 114.553 169.968 113.708 169.754 112.896Z" fill="black"/>
<path d="M162.965 95.7086C158.581 97.4238 158.297 101.025 158.695 104.961C159.094 108.896 163.378 106.292 164.332 103.829C165.286 101.367 169.036 93.3316 162.965 95.7086Z" fill="#263238"/>
<path d="M176.951 103.559C175.734 109.758 175.328 113.437 171.784 116.291C166.439 120.561 159.201 116.875 158.56 110.484C157.984 104.726 160.069 95.538 166.453 93.7445C167.845 93.3346 169.32 93.2951 170.733 93.6298C172.145 93.9645 173.445 94.6619 174.505 95.653C175.565 96.6442 176.349 97.8948 176.778 99.2813C177.206 100.668 177.266 102.142 176.951 103.559Z" fill="#B55B52"/>
<path d="M176.695 108.69C171.478 108.968 172.581 106.007 173.528 104.306C174.474 102.605 172.545 99.7939 173.805 98.3349C171.556 99.2316 169.186 98.4915 166.176 96.3991C163.841 94.7693 160.916 101.281 158.07 98.0146C155.379 94.933 157.877 90.2856 164.34 89.5383C170.802 88.7911 171.976 93.3601 176.218 92.9545C180.459 92.5488 178.986 96.0432 178.154 96.7549C181.712 96.9898 183.655 100.392 176.695 108.69Z" fill="#263238"/>
<path d="M177.334 97.1891C178.15 96.7414 178.832 96.0838 179.309 95.2842C179.785 94.4847 180.04 93.5722 180.046 92.6414C181.455 95.1109 181.305 97.915 177.334 97.1891Z" fill="#263238"/>
<path d="M163.813 110.177C164.38 110.276 164.961 110.258 165.521 110.126C166.081 109.994 166.609 109.75 167.072 109.409C167.086 109.396 167.097 109.38 167.105 109.362C167.112 109.344 167.116 109.325 167.116 109.306C167.116 109.286 167.112 109.267 167.105 109.25C167.097 109.232 167.086 109.216 167.072 109.202C167.044 109.176 167.007 109.161 166.969 109.161C166.93 109.161 166.893 109.176 166.866 109.202C166.347 109.57 165.749 109.813 165.121 109.91C164.492 110.008 163.849 109.958 163.243 109.765C163.204 109.755 163.164 109.76 163.128 109.778C163.093 109.797 163.065 109.827 163.051 109.864C163.04 109.902 163.044 109.943 163.063 109.977C163.081 110.012 163.113 110.038 163.151 110.049C163.367 110.112 163.588 110.155 163.813 110.177Z" fill="#263238"/>
<path d="M178.21 110.59C177.235 111.846 175.807 112.669 174.231 112.882C172.16 113.152 171.47 111.224 172.338 109.423C173.128 107.8 175.185 105.708 177.093 106.27C179 106.833 179.406 109.025 178.21 110.59Z" fill="#B55B52"/>
<path d="M176.153 245.364C176.402 226.782 178.779 182.521 178.779 182.521L152.546 184.735C152.546 184.735 157.763 230.347 160.909 249.307C164.182 269.014 174.224 315.181 174.224 315.181L184.9 314.27C184.9 314.27 181 259.733 176.153 245.364Z" fill="#263238"/>
<path d="M173.584 315.473L186.245 314.398L185.747 310.313L172.552 311.196L173.584 315.473Z" fill="#1470FB"/>
<path d="M167.598 103.929C167.534 104.434 167.207 104.818 166.887 104.783C166.566 104.747 166.346 104.306 166.417 103.793C166.488 103.281 166.808 102.904 167.129 102.939C167.449 102.975 167.67 103.423 167.598 103.929Z" fill="#263238"/>
<path d="M161.791 103.473C161.727 103.986 161.4 104.363 161.08 104.327C160.76 104.292 160.539 103.851 160.61 103.345C160.681 102.84 161.002 102.456 161.322 102.491C161.642 102.527 161.863 102.94 161.791 103.473Z" fill="#263238"/>
<path d="M163.428 104.071C162.571 105.388 161.542 106.585 160.368 107.63C161.123 108.42 162.681 108.206 162.681 108.206L163.428 104.071Z" fill="#A02724"/>
<path opacity="0.4" d="M158.119 103.601C158.012 104.413 158.83 105.089 159.962 105.231C161.094 105.374 162.14 104.754 162.239 103.943" fill="#1470FB"/>
<path opacity="0.4" d="M164.844 104.356C164.687 105.16 165.477 105.886 166.587 106.099C167.698 106.313 168.787 105.744 168.936 104.947" fill="#1470FB"/>
<path d="M167.029 106.32C166.901 106.327 166.773 106.327 166.645 106.32C166.098 106.255 165.584 106.024 165.172 105.658C164.992 105.504 164.852 105.31 164.762 105.091C164.673 104.871 164.638 104.634 164.659 104.398C164.298 104.241 163.913 104.145 163.521 104.114C163.126 104.015 162.713 104.015 162.318 104.114C162.218 104.982 161.137 105.58 159.927 105.43C159.379 105.371 158.865 105.142 158.453 104.776C158.275 104.621 158.135 104.426 158.046 104.208C157.957 103.989 157.921 103.752 157.941 103.516L158.283 103.559C158.268 103.741 158.298 103.923 158.368 104.092C158.439 104.26 158.549 104.409 158.688 104.527C159.047 104.842 159.494 105.039 159.969 105.089C160.994 105.224 161.905 104.747 161.998 104.036C162.048 103.637 162.873 103.665 163.556 103.751C164.24 103.836 165.051 104.028 164.98 104.42C164.965 104.602 164.994 104.785 165.064 104.953C165.135 105.122 165.245 105.271 165.385 105.388C165.748 105.699 166.194 105.897 166.669 105.958C167.143 106.019 167.625 105.939 168.054 105.729C168.22 105.652 168.365 105.536 168.476 105.391C168.588 105.246 168.663 105.077 168.695 104.897V104.726L177.477 105.857L177.434 106.199L168.979 105.11C168.918 105.308 168.817 105.492 168.682 105.65C168.548 105.807 168.382 105.936 168.197 106.028C167.837 106.219 167.436 106.319 167.029 106.32Z" fill="#263238"/>
<path d="M169.833 101.694C169.884 101.694 169.933 101.679 169.976 101.651C170.045 101.611 170.096 101.545 170.117 101.468C170.138 101.391 170.128 101.309 170.09 101.239C169.869 100.825 169.55 100.472 169.16 100.211C168.77 99.9501 168.322 99.7898 167.855 99.744C167.775 99.7401 167.696 99.7677 167.637 99.821C167.577 99.8742 167.54 99.9488 167.535 100.029C167.531 100.107 167.558 100.183 167.609 100.242C167.661 100.3 167.734 100.336 167.812 100.342C168.181 100.385 168.535 100.518 168.841 100.729C169.147 100.94 169.398 101.222 169.57 101.552C169.597 101.597 169.636 101.634 169.682 101.659C169.728 101.684 169.781 101.696 169.833 101.694Z" fill="#263238"/>
<path d="M159.912 100.89C159.962 100.895 160.011 100.888 160.057 100.869C160.103 100.85 160.144 100.821 160.176 100.783C160.406 100.482 160.703 100.239 161.045 100.073C161.386 99.9073 161.761 99.8239 162.14 99.8295C162.179 99.8334 162.219 99.8295 162.257 99.818C162.295 99.8065 162.33 99.7876 162.36 99.7625C162.391 99.7373 162.416 99.7064 162.434 99.6715C162.453 99.6366 162.464 99.5983 162.467 99.559C162.472 99.5207 162.47 99.4817 162.459 99.4444C162.449 99.4071 162.432 99.3722 162.408 99.3417C162.384 99.3112 162.354 99.2858 162.321 99.2669C162.287 99.248 162.25 99.236 162.211 99.2316C161.733 99.2191 161.259 99.3188 160.826 99.5228C160.394 99.7267 160.015 100.029 159.72 100.406C159.67 100.466 159.645 100.545 159.651 100.623C159.658 100.702 159.696 100.775 159.756 100.826C159.802 100.859 159.856 100.881 159.912 100.89Z" fill="#263238"/>
<path d="M198.01 242.368C192.565 214.384 191.341 192.499 186.174 181.874L160.76 184.72C160.76 184.72 175.897 226.419 183.292 244.218C190.971 262.722 206.13 294.336 206.13 294.336H218.827C218.827 294.336 206.977 255.114 198.01 242.368Z" fill="#263238"/>
<path d="M117.453 136.432L114.705 134.695C114.259 134.408 113.728 134.284 113.201 134.345C112.674 134.406 112.184 134.648 111.816 135.03L109.951 136.994C109.75 137.206 109.595 137.457 109.495 137.731C109.395 138.006 109.353 138.298 109.37 138.589C109.387 138.881 109.464 139.166 109.596 139.426C109.728 139.687 109.912 139.918 110.136 140.104L111.467 141.243C112.625 142.224 113.975 142.951 115.431 143.378L119.452 144.567L122.093 141.72C122.897 138.752 117.453 136.432 117.453 136.432Z" fill="#B55B52"/>
<path d="M158.118 135.101C157.122 137.535 156.147 139.798 155.086 142.111C154.026 144.424 152.951 146.709 151.763 148.979C150.574 151.249 149.307 153.505 147.87 155.769C147.158 156.893 146.368 158.018 145.471 159.149C144.507 160.397 143.41 161.535 142.198 162.544C141.397 163.198 140.514 163.744 139.571 164.167C139.273 164.281 138.995 164.394 138.668 164.494L138.169 164.629C137.919 164.691 137.664 164.736 137.408 164.764C136.54 164.862 135.662 164.799 134.817 164.579C133.761 164.284 132.757 163.825 131.842 163.22C131.157 162.793 130.503 162.317 129.885 161.797C127.831 160.003 125.938 158.034 124.227 155.911C122.569 153.918 121.003 151.918 119.502 149.876C118 147.833 116.555 145.826 115.075 143.684L122.946 138.603C125.43 142.612 128.179 146.452 131.173 150.096C132.55 151.784 134.067 153.353 135.707 154.787C136.025 155.047 136.36 155.284 136.71 155.498C136.974 155.676 137.237 155.747 137.052 155.683C136.802 155.614 136.54 155.6 136.283 155.641C136.18 155.65 136.077 155.669 135.977 155.697H135.92C135.885 155.697 135.885 155.697 135.878 155.697C136.04 155.592 136.194 155.475 136.34 155.349C136.99 154.759 137.579 154.106 138.098 153.399C138.703 152.587 139.308 151.676 139.885 150.73C141.063 148.762 142.137 146.733 143.101 144.652C144.098 142.517 145.059 140.382 145.948 138.161C146.838 135.941 147.685 133.685 148.404 131.528L158.118 135.101Z" fill="#1470FB"/>
<g opacity="0.6">
<path d="M158.119 135.101C157.122 137.535 156.147 139.798 155.087 142.111C154.026 144.424 152.952 146.709 151.763 148.979C150.575 151.249 149.308 153.505 147.87 155.769C147.158 156.893 146.368 158.018 145.472 159.149C144.508 160.397 143.41 161.535 142.198 162.544C141.398 163.198 140.515 163.744 139.572 164.167C139.273 164.281 138.995 164.394 138.668 164.494L138.17 164.629C137.919 164.691 137.665 164.736 137.408 164.764C136.541 164.862 135.662 164.799 134.818 164.579C133.761 164.284 132.758 163.825 131.843 163.22C131.158 162.793 130.503 162.317 129.886 161.797C127.832 160.003 125.938 158.034 124.228 155.911C122.569 153.918 121.004 151.918 119.502 149.876C118 147.833 116.556 145.826 115.075 143.684L122.947 138.603C125.431 142.612 128.179 146.452 131.174 150.096C132.55 151.784 134.067 153.353 135.707 154.787C136.025 155.047 136.36 155.284 136.711 155.498C136.974 155.676 137.237 155.747 137.052 155.683C136.802 155.614 136.54 155.6 136.284 155.641C136.18 155.65 136.078 155.669 135.978 155.697H135.921C135.885 155.697 135.885 155.697 135.878 155.697C136.04 155.592 136.194 155.475 136.341 155.349C136.99 154.759 137.579 154.106 138.099 153.399C138.703 152.587 139.308 151.676 139.885 150.73C141.063 148.762 142.137 146.733 143.102 144.652C144.098 142.517 145.059 140.382 145.949 138.161C146.838 135.941 147.685 133.685 148.404 131.528L158.119 135.101Z" fill="white"/>
</g>
<path d="M176.751 124.176C174.082 129.158 164.581 148.139 163.428 159.854C159.222 149.178 160.14 125.564 160.14 125.564C157.143 125.856 154.202 126.575 151.408 127.699C150.507 128.069 149.727 128.681 149.153 129.468C148.579 130.254 148.233 131.184 148.155 132.155C147.336 144.373 147.722 156.643 149.308 168.786C152.262 191.773 155.002 227.522 155.002 227.522C155.002 227.522 178.523 226.54 196.672 222.711C194.458 205.139 186.886 175.689 186.815 167.803C186.729 157.655 186.964 137.813 187.284 129.528C187.338 128.359 186.971 127.209 186.251 126.286C185.53 125.363 184.503 124.728 183.356 124.497C181.179 124.093 178.957 123.986 176.751 124.176Z" fill="#1470FB"/>
<path opacity="0.7" d="M176.751 124.177C174.082 129.158 164.581 148.139 163.428 159.854C159.222 149.178 160.14 125.564 160.14 125.564C157.143 125.857 154.202 126.576 151.408 127.699C150.507 128.069 149.727 128.682 149.153 129.468C148.579 130.254 148.233 131.184 148.155 132.155C147.336 144.373 147.722 156.643 149.308 168.786C152.262 191.773 155.002 227.522 155.002 227.522C155.002 227.522 178.523 226.54 196.672 222.711C194.458 205.139 186.886 175.689 186.815 167.803C186.729 157.655 186.964 137.806 187.284 129.521C187.352 128.387 187.017 127.266 186.338 126.355C185.66 125.443 184.682 124.801 183.576 124.54C181.33 124.099 179.032 123.977 176.751 124.177Z" fill="white"/>
<path d="M171.207 223.707C167.122 201.168 163.884 168.095 163.62 164.117H163.983C164.247 168.095 167.492 201.125 171.57 223.664L171.207 223.707Z" fill="white"/>
<path d="M169.172 183.61H147.479C147.041 183.59 146.621 183.429 146.283 183.151C145.944 182.872 145.705 182.492 145.6 182.066L138.348 148.353C138.295 148.169 138.286 147.975 138.323 147.787C138.359 147.599 138.44 147.422 138.558 147.271C138.676 147.12 138.829 147 139.002 146.919C139.176 146.839 139.367 146.801 139.558 146.808H161.243C161.683 146.827 162.104 146.987 162.444 147.266C162.784 147.544 163.025 147.926 163.129 148.353L170.382 182.066C170.435 182.25 170.443 182.444 170.407 182.632C170.37 182.82 170.29 182.997 170.172 183.147C170.053 183.298 169.901 183.419 169.727 183.499C169.554 183.58 169.363 183.618 169.172 183.61Z" fill="white"/>
<path d="M168.495 183.895H146.433C145.987 183.874 145.559 183.71 145.214 183.426C144.869 183.143 144.625 182.756 144.518 182.322L137.138 148.04C137.085 147.852 137.078 147.654 137.116 147.463C137.154 147.271 137.236 147.092 137.357 146.938C137.478 146.785 137.633 146.662 137.81 146.58C137.987 146.499 138.181 146.46 138.376 146.467H160.439C160.885 146.488 161.312 146.652 161.657 146.935C162.002 147.219 162.247 147.606 162.353 148.04L169.727 182.322C169.781 182.509 169.79 182.707 169.753 182.899C169.716 183.09 169.634 183.27 169.513 183.424C169.393 183.577 169.238 183.7 169.061 183.782C168.884 183.864 168.69 183.903 168.495 183.895Z" fill="#1470FB"/>
<path d="M171.022 164.551L165.534 164.345C164.875 164.322 164.218 164.438 163.606 164.686L160.759 165.825C160.492 165.931 160.249 166.089 160.045 166.291C159.84 166.493 159.679 166.734 159.57 167C159.461 167.266 159.407 167.551 159.41 167.838C159.414 168.125 159.476 168.409 159.592 168.672L160.731 171.134C160.96 171.612 161.348 171.996 161.827 172.221C162.307 172.447 162.849 172.5 163.364 172.373L166.502 171.59C166.502 171.59 172.395 171.12 172.609 168.031L171.022 164.551Z" fill="#B55B52"/>
<path d="M186.174 127.23C187.533 129.365 188.778 131.315 190.003 133.407C191.227 135.5 192.429 137.571 193.561 139.734C194.693 141.898 195.767 144.132 196.742 146.524C197.249 147.776 197.681 149.057 198.038 150.36C198.496 151.948 198.708 153.597 198.664 155.249V155.527C198.666 155.574 198.666 155.622 198.664 155.669C198.664 155.925 198.593 156.181 198.543 156.438C198.493 156.694 198.429 156.893 198.358 157.149C198.287 157.406 198.208 157.541 198.13 157.74C197.858 158.356 197.509 158.935 197.091 159.462C196.51 160.189 195.848 160.848 195.12 161.427C194 162.308 192.81 163.096 191.561 163.782C189.364 164.984 187.102 166.062 184.786 167.013C182.544 167.967 180.309 168.835 178.06 169.654C175.811 170.472 173.598 171.262 171.256 172.045L168.545 163.078C170.68 162.494 172.858 161.775 174.986 161.049C177.114 160.324 179.256 159.512 181.277 158.665C183.261 157.846 185.195 156.912 187.07 155.868C187.862 155.43 188.616 154.927 189.326 154.367C189.513 154.225 189.68 154.06 189.825 153.876C189.763 153.945 189.715 154.024 189.682 154.11C189.682 154.175 189.647 154.217 189.611 154.295C189.583 154.379 189.562 154.465 189.547 154.552C189.517 154.661 189.498 154.773 189.49 154.886C189.49 154.929 189.49 154.936 189.49 154.922V154.872C189.44 154.197 189.309 153.53 189.099 152.886C188.814 151.955 188.477 151.04 188.088 150.146C187.218 148.176 186.234 146.259 185.142 144.403C184.031 142.496 182.85 140.588 181.583 138.709C180.316 136.83 179.021 134.959 177.719 133.251L186.174 127.23Z" fill="#1470FB"/>
<g opacity="0.7">
<path d="M186.173 127.23C187.533 129.365 188.778 131.315 190.002 133.407C191.226 135.5 192.429 137.571 193.561 139.734C194.692 141.898 195.767 144.132 196.742 146.524C197.248 147.776 197.681 149.057 198.037 150.36C198.496 151.948 198.707 153.597 198.664 155.249V155.527C198.666 155.574 198.666 155.622 198.664 155.669C198.664 155.925 198.592 156.181 198.543 156.438C198.493 156.694 198.429 156.893 198.358 157.149C198.286 157.406 198.208 157.541 198.13 157.74C197.858 158.356 197.509 158.935 197.091 159.462C196.509 160.189 195.848 160.848 195.119 161.427C194 162.308 192.81 163.096 191.561 163.782C189.364 164.984 187.102 166.062 184.786 167.013C182.544 167.967 180.309 168.835 178.06 169.654C175.811 170.472 173.598 171.262 171.256 172.045L168.545 163.078C170.68 162.494 172.858 161.775 174.986 161.049C177.113 160.324 179.256 159.512 181.277 158.665C183.26 157.846 185.195 156.912 187.07 155.868C187.862 155.43 188.616 154.927 189.326 154.367C189.513 154.225 189.68 154.06 189.824 153.876C189.763 153.945 189.715 154.024 189.682 154.11C189.682 154.175 189.646 154.217 189.611 154.295C189.583 154.379 189.561 154.465 189.547 154.552C189.517 154.661 189.498 154.773 189.49 154.886C189.49 154.929 189.49 154.936 189.49 154.922V154.872C189.44 154.197 189.309 153.53 189.098 152.886C188.814 151.955 188.476 151.04 188.088 150.146C187.218 148.176 186.234 146.259 185.141 144.403C184.031 142.496 182.85 140.588 181.583 138.709C180.316 136.83 179.021 134.959 177.718 133.251L186.173 127.23Z" fill="white"/>
</g>
<path d="M178.972 151.926C178.924 151.925 178.878 151.912 178.837 151.889C178.796 151.865 178.761 151.831 178.737 151.79C178.716 151.759 178.702 151.724 178.695 151.688C178.688 151.651 178.688 151.613 178.696 151.576C178.704 151.54 178.72 151.505 178.741 151.475C178.763 151.444 178.791 151.418 178.822 151.399L179.933 150.687C180.969 150.034 181.782 149.081 182.265 147.955C182.748 146.829 182.878 145.583 182.637 144.382L180.402 133.066C180.239 132.22 179.795 131.453 179.142 130.891C178.489 130.329 177.665 130.003 176.804 129.967C175.943 129.931 175.095 130.186 174.397 130.691C173.699 131.197 173.192 131.923 172.958 132.752L169.791 143.848C169.445 145.021 169.464 146.271 169.846 147.433C170.227 148.595 170.952 149.613 171.926 150.353L172.979 151.15C173.039 151.196 173.077 151.264 173.087 151.339C173.096 151.413 173.075 151.489 173.029 151.548C173.007 151.578 172.979 151.602 172.947 151.62C172.915 151.639 172.88 151.65 172.844 151.655C172.808 151.66 172.771 151.657 172.735 151.647C172.7 151.637 172.667 151.621 172.638 151.598L171.641 150.808C170.571 150.002 169.771 148.89 169.348 147.619C168.925 146.348 168.898 144.978 169.272 143.691L172.446 132.596C172.718 131.648 173.301 130.82 174.101 130.244C174.901 129.667 175.871 129.376 176.856 129.417C177.841 129.458 178.783 129.829 179.532 130.47C180.281 131.111 180.793 131.985 180.986 132.952L183.221 144.275C183.485 145.587 183.343 146.949 182.816 148.179C182.289 149.409 181.4 150.45 180.267 151.164L179.15 151.876C179.125 151.896 179.097 151.91 179.066 151.919C179.035 151.927 179.003 151.93 178.972 151.926Z" fill="#263238"/>
<path d="M180.68 133.301L172.688 132.966C172.65 132.964 172.613 132.955 172.58 132.939C172.546 132.923 172.515 132.901 172.49 132.873C172.465 132.845 172.446 132.813 172.433 132.777C172.421 132.742 172.415 132.705 172.417 132.667C172.424 132.593 172.459 132.524 172.514 132.474C172.569 132.424 172.641 132.396 172.716 132.397L180.701 132.731C180.739 132.733 180.775 132.742 180.809 132.758C180.843 132.774 180.873 132.797 180.898 132.825C180.924 132.852 180.943 132.885 180.956 132.92C180.968 132.955 180.974 132.993 180.972 133.03C180.971 133.067 180.962 133.104 180.947 133.138C180.932 133.171 180.91 133.202 180.883 133.227C180.856 133.252 180.824 133.272 180.789 133.284C180.754 133.297 180.717 133.303 180.68 133.301Z" fill="#263238"/>
<path d="M176.794 129.984C176.72 129.982 176.65 129.953 176.597 129.901C176.544 129.85 176.513 129.78 176.509 129.706C176.509 128.283 176.068 125.813 174.737 125.273C174.7 125.26 174.666 125.24 174.637 125.214C174.608 125.189 174.585 125.157 174.569 125.122C174.553 125.086 174.544 125.048 174.543 125.009C174.542 124.97 174.549 124.932 174.564 124.896C174.578 124.86 174.6 124.827 174.628 124.8C174.656 124.773 174.689 124.751 174.725 124.737C174.761 124.723 174.8 124.717 174.839 124.718C174.877 124.72 174.916 124.729 174.951 124.746C176.922 125.557 177.086 129.272 177.086 129.728C177.086 129.803 177.057 129.875 177.005 129.929C176.954 129.984 176.883 130.016 176.808 130.02L176.794 129.984Z" fill="#263238"/>
<path d="M152.347 139.656H152.29C152.216 139.64 152.152 139.597 152.111 139.534C152.069 139.471 152.054 139.395 152.069 139.321C153.008 134.646 156.894 127.265 160.318 125.087C160.349 125.068 160.384 125.055 160.42 125.049C160.456 125.043 160.493 125.045 160.529 125.053C160.565 125.062 160.599 125.078 160.628 125.099C160.658 125.121 160.683 125.149 160.702 125.18C160.723 125.211 160.737 125.245 160.744 125.281C160.751 125.317 160.75 125.355 160.742 125.391C160.734 125.427 160.719 125.461 160.697 125.49C160.676 125.52 160.648 125.545 160.616 125.564C157.307 127.657 153.535 134.816 152.624 139.421C152.613 139.486 152.578 139.546 152.528 139.589C152.477 139.631 152.413 139.655 152.347 139.656Z" fill="#263238"/>
<path d="M154.681 140.389C154.24 141.521 153.258 142.204 152.546 141.912C151.835 141.62 151.557 140.489 151.998 139.328C152.44 138.168 153.422 137.514 154.133 137.813C154.845 138.111 155.13 139.257 154.681 140.389Z" fill="white"/>
<path d="M173.47 151.413C173.47 151.94 173.143 152.36 172.794 152.345C172.446 152.331 172.175 151.89 172.196 151.356C172.218 150.822 172.524 150.403 172.873 150.424C173.221 150.445 173.492 150.879 173.47 151.413Z" fill="white"/>
<path d="M179.605 151.669C179.605 152.196 179.285 152.616 178.929 152.602C178.573 152.587 178.317 152.146 178.338 151.612C178.36 151.079 178.658 150.666 179.05 150.68C179.441 150.694 179.626 151.157 179.605 151.669Z" fill="white"/>
<path d="M300.293 141.798L299.582 141.756C299.7 140.24 299.502 138.717 299.001 137.282C298.499 135.848 297.705 134.533 296.668 133.421C295.632 132.31 294.376 131.426 292.979 130.826C291.583 130.225 290.077 129.922 288.557 129.934V129.223C290.175 129.209 291.777 129.531 293.263 130.17C294.749 130.808 296.086 131.748 297.19 132.931C298.293 134.113 299.139 135.512 299.673 137.038C300.207 138.565 300.419 140.186 300.293 141.798Z" fill="#1470FB"/>
<path d="M300.669 144.782L300.257 150.675L300.969 150.725L301.381 144.832L300.669 144.782Z" fill="#1470FB"/>
<path d="M288.558 131.713H239.451C236.769 131.758 234.199 132.798 232.242 134.631C230.285 136.465 229.079 138.961 228.861 141.635L228.412 148.246C228.31 149.518 228.475 150.798 228.894 152.003C229.314 153.208 229.981 154.313 230.851 155.246C231.722 156.179 232.777 156.921 233.95 157.424C235.123 157.927 236.388 158.18 237.664 158.167H286.771L296.294 164.039L297.802 141.635C297.905 140.363 297.742 139.083 297.323 137.878C296.904 136.673 296.238 135.568 295.368 134.635C294.498 133.701 293.443 132.96 292.271 132.456C291.098 131.953 289.833 131.7 288.558 131.713Z" fill="#1470FB"/>
<path d="M286.067 141.186H240.583V142.837H286.067V141.186Z" fill="white"/>
<path d="M285.669 147.043H251.899V148.695H285.669V147.043Z" fill="white"/>
<path d="M214.684 167.085H264.873C266.178 167.071 267.471 167.329 268.671 167.843C269.87 168.356 270.949 169.115 271.839 170.069C272.729 171.023 273.411 172.153 273.84 173.385C274.269 174.617 274.436 175.926 274.331 177.226L273.876 183.988C273.65 186.719 272.418 189.27 270.417 191.144C268.417 193.018 265.791 194.082 263.051 194.129H212.855L202.308 200.143L203.859 177.226C204.083 174.494 205.315 171.943 207.316 170.068C209.317 168.194 211.943 167.13 214.684 167.085Z" fill="white"/>
<path opacity="0.15" d="M214.684 167.085H264.873C266.178 167.071 267.471 167.329 268.671 167.843C269.87 168.356 270.949 169.115 271.839 170.069C272.729 171.023 273.411 172.153 273.84 173.385C274.269 174.617 274.436 175.926 274.331 177.226L273.876 183.988C273.65 186.719 272.418 189.27 270.417 191.144C268.417 193.018 265.791 194.082 263.051 194.129H212.855L202.308 200.143L203.859 177.226C204.083 174.494 205.315 171.943 207.316 170.068C209.317 168.194 211.943 167.13 214.684 167.085Z" fill="#1470FB"/>
<path opacity="0.5" d="M262.324 176.771H215.808V178.465H262.324V176.771Z" fill="#1470FB"/>
<path opacity="0.5" d="M233.786 182.756H215.403V184.45H233.786V182.756Z" fill="#1470FB"/>
<path opacity="0.5" d="M250.034 182.756H238.291V184.45H250.034V182.756Z" fill="#1470FB"/>
</svg>
