<svg width="375" height="375" viewBox="0 0 375 375" fill="none" xmlns="http://www.w3.org/2000/svg">
<path d="M241.71 256.94C207.168 243.964 194.739 249.313 159.898 252.123C131.435 254.393 97.8129 245.029 76.3929 220.413C19.9637 155.569 105.753 88.6741 154.249 74.3405C188.419 64.2691 209.978 77.2598 233.441 106.547C242.564 117.94 250.096 131.733 260.831 141.301C272.362 151.562 286.149 151.387 297.015 159.926C349.723 201.328 287.805 274.244 241.71 256.94Z" fill="#1470FB"/>
<path opacity="0.9" d="M241.71 256.94C207.168 243.964 194.739 249.313 159.898 252.123C131.435 254.393 97.8129 245.029 76.3929 220.413C19.9637 155.569 105.753 88.6741 154.249 74.3405C188.419 64.2691 209.978 77.2598 233.441 106.547C242.564 117.94 250.096 131.733 260.831 141.301C272.362 151.562 286.149 151.387 297.015 159.926C349.723 201.328 287.805 274.244 241.71 256.94Z" fill="white"/>
<path d="M189.338 343C256.715 343 311.334 338.87 311.334 333.775C311.334 328.68 256.715 324.55 189.338 324.55C121.962 324.55 67.3428 328.68 67.3428 333.775C67.3428 338.87 121.962 343 189.338 343Z" fill="#F5F5F5"/>
<path d="M125.421 281.98H80.5225V332.651H125.421V281.98Z" fill="#1470FB"/>
<path d="M147.87 281.98H102.972V332.651H147.87V281.98Z" fill="#1470FB"/>
<path opacity="0.7" d="M125.421 281.98H80.5225V332.651H125.421V281.98Z" fill="white"/>
<path opacity="0.2" d="M147.862 281.98H125.369V332.651H147.862V281.98Z" fill="white"/>
<path d="M136.146 317.431C139.301 317.357 141.756 312.881 141.628 307.433C141.501 301.985 138.84 297.628 135.685 297.702C132.53 297.776 130.075 302.252 130.203 307.7C130.33 313.148 132.991 317.505 136.146 317.431Z" fill="white"/>
<path d="M139.361 305.903L136.924 305.961L136.829 301.831L134.946 301.874L135.041 306.005L132.362 306.071L132.435 309.289L135.114 309.224L135.216 313.318L137.099 313.274L137.004 309.18L139.442 309.122L139.361 305.903Z" fill="#1470FB"/>
<path d="M108.438 281.98H99.3447V291.073H108.438V281.98Z" fill="#F5F5F5"/>
<path d="M108.438 300.145H99.3447V332.651H108.438V300.145Z" fill="#F5F5F5"/>
<path d="M139.805 240.417H102.972V281.994H139.805V240.417Z" fill="#1470FB"/>
<path d="M158.226 240.417H121.393V281.994H158.226V240.417Z" fill="#1470FB"/>
<path opacity="0.7" d="M134.062 240.417H102.972V281.994H134.062V240.417Z" fill="white"/>
<path opacity="0.2" d="M158.226 240.417H134.062V281.994H158.226V240.417Z" fill="white"/>
<path d="M150.826 261.311C150.935 265.778 148.921 269.456 146.33 269.515C143.739 269.573 141.557 265.997 141.455 261.53C141.353 257.064 143.367 253.364 145.951 253.364C148.534 253.364 150.724 256.838 150.826 261.311Z" fill="white"/>
<path d="M148.987 260.049L146.987 260.093L146.907 256.699L145.359 256.736L145.44 260.129L143.236 260.18L143.301 262.822L145.498 262.771L145.578 266.136L147.126 266.092L147.045 262.735L149.045 262.691L148.987 260.049Z" fill="#1470FB"/>
<path d="M118.414 240.417H110.948V281.994H118.414V240.417Z" fill="#F5F5F5"/>
<path d="M182.266 184.104C182.266 184.104 171.516 235.016 170.589 251.904C169.662 268.792 174.07 311.231 174.07 311.231L187.805 313.42L190.425 259.261L196.446 217.975C196.446 217.975 202.752 251.547 205.467 259.407C208.182 267.267 221.136 290.059 231.835 308.268L241.031 301.531C241.031 301.531 223.843 252.386 220.91 242.789C217.976 233.192 219.961 192.505 210.911 180.952L182.266 184.104Z" fill="#1470FB"/>
<path opacity="0.4" d="M182.266 184.104C182.266 184.104 171.516 235.016 170.589 251.904C169.662 268.792 174.07 311.231 174.07 311.231L187.805 313.42L190.425 259.261L196.446 217.975C196.446 217.975 202.752 251.547 205.467 259.407C208.182 267.267 221.136 290.059 231.835 308.268L241.031 301.531C241.031 301.531 223.843 252.386 220.91 242.789C217.976 233.192 219.961 192.505 210.911 180.952L182.266 184.104Z" fill="white"/>
<path d="M184.822 325.323C184.756 325.732 177.633 324.185 177.633 324.185L177.152 317.149L176.962 314.391L184.26 313.749C184.26 313.749 184.384 315.85 184.515 318.259C184.661 321.412 184.902 325.083 184.822 325.323Z" fill="#B55B52"/>
<path opacity="0.2" d="M184.486 318.259L177.152 317.149L176.962 314.391L184.26 313.749C184.26 313.749 184.355 315.85 184.486 318.259Z" fill="black"/>
<path d="M172.414 326.659L172.122 326.258C172.035 326.133 169.933 323.192 170.239 321.747C170.268 321.607 170.327 321.474 170.413 321.36C170.499 321.245 170.609 321.15 170.736 321.083C170.839 321.021 170.958 320.988 171.079 320.988C171.2 320.988 171.318 321.021 171.422 321.083C172.465 321.718 172.429 325.717 172.422 326.192L172.414 326.659ZM171.101 321.317C171.026 321.319 170.954 321.339 170.889 321.375C170.806 321.422 170.733 321.486 170.677 321.562C170.62 321.639 170.581 321.727 170.561 321.82C170.334 322.813 171.517 324.74 172.093 325.63C172.093 324.221 171.903 321.755 171.254 321.361C171.208 321.332 171.155 321.317 171.101 321.317Z" fill="#1470FB"/>
<path d="M171.677 326.703L171.253 326.528C170.801 326.345 166.831 324.688 166.583 323.265C166.56 323.12 166.576 322.972 166.628 322.835C166.681 322.698 166.768 322.577 166.882 322.484C167.002 322.373 167.146 322.292 167.303 322.247C167.461 322.203 167.627 322.197 167.787 322.229C169.392 322.506 171.378 326.141 171.436 326.294L171.677 326.703ZM167.582 322.536C167.405 322.536 167.234 322.607 167.108 322.733C167.034 322.787 166.976 322.86 166.941 322.946C166.907 323.031 166.896 323.124 166.911 323.214C167.072 324.148 169.553 325.404 170.925 326.031C170.356 325.061 168.882 322.754 167.728 322.55L167.582 322.536Z" fill="#1470FB"/>
<path d="M184.588 324.929L177.217 323.769C176.759 323.697 176.29 323.798 175.903 324.054C174.194 325.207 172.271 326.006 170.247 326.404C167.094 326.849 164.292 326.228 164.029 327.133C163.88 327.721 163.933 328.343 164.179 328.897C164.425 329.452 164.851 329.907 165.387 330.191C166.423 330.731 179.122 332.702 184.479 333.519C184.759 333.561 185.045 333.539 185.316 333.454C185.587 333.37 185.834 333.224 186.04 333.029C186.246 332.835 186.405 332.595 186.505 332.33C186.605 332.065 186.643 331.78 186.617 331.498L186.157 326.608C186.118 326.194 185.942 325.805 185.658 325.502C185.375 325.198 184.998 324.997 184.588 324.929Z" fill="#222221"/>
<path d="M172.253 309.545L173.406 315.617L188.44 317.047L188.885 310.902L172.253 309.545Z" fill="#1470FB"/>
<path d="M245.651 309.151C245.855 309.515 239.316 312.734 239.316 312.734L234.981 307.968L232.711 305.465L235.017 303.276L238.009 300.451C238.009 300.451 238.316 300.801 238.819 301.356L241.476 304.348C243.446 306.582 245.548 308.968 245.651 309.151Z" fill="#B55B52"/>
<path opacity="0.2" d="M241.476 304.356L234.981 307.968L232.711 305.465L235.017 303.276L238.819 301.356L241.476 304.356Z" fill="black"/>
<path d="M237.193 315.646L236.813 315.471C236.674 315.413 233.47 313.946 233.164 312.654C233.136 312.525 233.14 312.391 233.176 312.264C233.211 312.136 233.277 312.02 233.368 311.924C233.466 311.799 233.595 311.702 233.743 311.643C233.89 311.584 234.05 311.565 234.208 311.588C235.507 311.8 236.857 314.916 237.01 315.274L237.193 315.646ZM234.091 311.895C234.003 311.897 233.916 311.919 233.838 311.96C233.759 312 233.691 312.058 233.638 312.128C233.58 312.188 233.538 312.262 233.517 312.342C233.495 312.423 233.494 312.507 233.514 312.588C233.689 313.406 235.499 314.456 236.543 314.982C236.039 313.902 235.003 312.063 234.178 311.902L234.091 311.895Z" fill="#1470FB"/>
<path d="M232.39 317.179C231.733 317.247 231.073 317.079 230.529 316.704C230.391 316.565 230.295 316.39 230.252 316.199C230.21 316.008 230.222 315.809 230.288 315.624C230.339 315.398 230.443 315.188 230.592 315.01C230.74 314.833 230.929 314.693 231.142 314.602C233.047 313.741 237.302 315.909 237.484 316.004L237.849 316.193L237.455 316.31C235.805 316.792 234.106 317.083 232.39 317.179ZM232.251 314.727C231.917 314.716 231.584 314.775 231.273 314.902C231.107 314.973 230.96 315.083 230.844 315.223C230.729 315.362 230.648 315.527 230.609 315.704C230.566 315.828 230.557 315.961 230.582 316.089C230.608 316.218 230.668 316.337 230.755 316.434C231.631 317.281 235.2 316.544 236.944 316.077C236.054 315.69 233.799 314.727 232.251 314.727Z" fill="#1470FB"/>
<path d="M245.228 308.888L238.732 312.537C238.326 312.761 238.021 313.132 237.879 313.573C237.256 315.539 236.243 317.358 234.901 318.923C232.711 321.236 230.128 322.492 230.486 323.36C230.731 323.914 231.157 324.369 231.693 324.651C232.23 324.933 232.846 325.026 233.441 324.915C234.587 324.696 245.768 318.346 250.475 315.675C250.722 315.534 250.933 315.338 251.093 315.103C251.253 314.867 251.357 314.599 251.397 314.317C251.437 314.036 251.412 313.749 251.325 313.478C251.237 313.208 251.089 312.961 250.891 312.756L247.497 309.202C247.206 308.907 246.826 308.717 246.416 308.66C246.006 308.603 245.588 308.683 245.228 308.888Z" fill="#222221"/>
<path d="M226.428 305.13L231.106 309.187L243.783 300.97L240.316 295.875L226.428 305.13Z" fill="#1470FB"/>
<path d="M197.513 120.538C197.915 120.311 206.271 119.932 214.299 121.618C222.327 123.304 208.023 133.178 208.023 133.178L203.542 151.117L195.331 151.19L194.339 125.719L197.513 120.538Z" fill="#EBEBEB"/>
<path d="M214.291 121.64L196.878 149.117L198.804 120.304C198.804 120.304 192.477 120.465 190.514 121.034C188.55 121.603 186.864 126.186 185.456 132.463C184.047 138.739 181.909 153.788 181.909 153.788L171.903 237.717C171.903 237.717 206.11 245.015 222.224 239.344C222.224 239.344 216.167 163.962 217.166 159.305C218.166 154.649 221.399 137.615 221.399 137.615C221.399 137.615 225.88 129.113 223.932 126.61C221.983 124.107 214.291 121.64 214.291 121.64Z" fill="#1470FB"/>
<path d="M193.761 174.507L196.242 241.11" stroke="white" stroke-width="0.75" stroke-linecap="round" stroke-linejoin="round"/>
<path d="M191.647 122.464L131.278 143.038L146.483 187.65L206.851 167.075L191.647 122.464Z" fill="#1470FB"/>
<path d="M191.645 122.464L146.477 187.651L137.996 183.805L122.794 139.199L183.164 118.626L191.645 122.464Z" fill="#1470FB"/>
<path opacity="0.7" d="M191.645 122.464L131.275 143.038L146.477 187.651L137.996 183.805L122.794 139.199L183.164 118.626L191.645 122.464Z" fill="white"/>
<path opacity="0.46" d="M191.647 122.464L131.278 143.038L146.483 187.65L206.851 167.075L191.647 122.464Z" fill="white"/>
<path d="M178.732 168.256C186.01 162.302 187.083 151.575 181.128 144.297C175.173 137.019 164.446 135.946 157.168 141.901C149.89 147.855 148.817 158.583 154.772 165.86C160.727 173.138 171.454 174.211 178.732 168.256Z" fill="#FAFAFA"/>
<path d="M178.173 149.176L171.232 151.445L168.999 144.629L163.635 146.388L165.868 153.204L158.234 155.7L159.964 161.006L167.605 158.503L169.817 165.261L175.181 163.502L172.969 156.744L179.91 154.474L178.173 149.176Z" fill="#1470FB"/>
<path d="M198.769 84.879V74.2602C198.769 74.2602 210.394 69.0275 221.51 79.712L216.401 90.0169L198.769 84.879Z" fill="#1470FB"/>
<path d="M209.934 75.8151L208.616 75.5549L207.82 79.5859L209.138 79.8461L209.934 75.8151Z" fill="white"/>
<path d="M207.008 76.6395L206.748 77.9569L210.779 78.7529L211.039 77.4355L207.008 76.6395Z" fill="white"/>
<path d="M215.553 104.482C213.429 107.54 211.481 107.116 211.481 107.116C210.842 108.278 210.01 109.322 209.021 110.204C208.671 119.742 211.481 122.318 211.481 122.318C208.562 126.821 204.956 126.697 201.307 125.384C197.658 124.07 197.468 121.209 197.468 121.209C200.767 119.589 200.811 117.049 200.337 115.312C200.148 114.64 199.868 113.997 199.505 113.4C193.308 111.7 191.52 105.759 191.944 100.154C192.206 96.7544 193.04 93.4235 194.411 90.3015L198.06 84.7769L212.327 87.6961L213.094 95.257L210.174 100.862C215.32 97.0596 217.699 101.387 215.553 104.482Z" fill="#B55B52"/>
<path d="M198.768 104.409C198.422 104.411 198.075 104.386 197.732 104.336C197.699 104.33 197.667 104.318 197.639 104.3C197.611 104.282 197.586 104.259 197.567 104.231C197.547 104.204 197.534 104.173 197.526 104.14C197.519 104.107 197.518 104.073 197.524 104.04C197.53 104.007 197.542 103.976 197.56 103.947C197.578 103.919 197.601 103.894 197.629 103.875C197.656 103.856 197.687 103.842 197.72 103.835C197.753 103.827 197.787 103.826 197.82 103.832C197.82 103.832 201.469 104.467 203.038 101.767C203.055 101.738 203.077 101.712 203.104 101.691C203.13 101.671 203.161 101.656 203.193 101.647C203.226 101.638 203.26 101.636 203.293 101.64C203.327 101.644 203.359 101.655 203.388 101.672C203.417 101.689 203.443 101.711 203.464 101.738C203.484 101.764 203.499 101.795 203.508 101.827C203.517 101.86 203.519 101.894 203.515 101.927C203.511 101.961 203.5 101.993 203.483 102.022C202.279 104.08 200.053 104.409 198.768 104.409Z" fill="#263238"/>
<path d="M197.768 101.074C197.922 101.074 198.542 96.4174 198.542 96.4174L195.229 100.402C195.57 100.705 195.978 100.923 196.419 101.04C196.86 101.156 197.322 101.168 197.768 101.074Z" fill="#A02724"/>
<path d="M202.898 96.5122C202.818 97.0887 202.46 97.5193 202.103 97.4682C201.745 97.4171 201.519 96.9063 201.599 96.3297C201.679 95.7532 202.037 95.3153 202.395 95.3664C202.752 95.4174 202.979 95.9283 202.898 96.5122Z" fill="#263238"/>
<path d="M195.849 95.8701C195.769 96.4467 195.412 96.8772 195.054 96.8262C194.696 96.7751 194.47 96.2715 194.55 95.6876C194.631 95.1038 194.988 94.6805 195.346 94.7316C195.703 94.7827 195.966 95.2863 195.849 95.8701Z" fill="#263238"/>
<path d="M205.76 93.8995C205.695 93.8988 205.632 93.8799 205.578 93.8451C205.524 93.8102 205.481 93.7608 205.453 93.7025C204.585 91.8561 203.359 92.0969 203.307 92.1042C203.223 92.1168 203.136 92.0972 203.065 92.0493C202.994 92.0015 202.944 91.9288 202.924 91.8455C202.904 91.7622 202.915 91.6745 202.957 91.5994C202.998 91.5244 203.066 91.4676 203.147 91.4401C203.22 91.4401 204.957 91.0314 206.066 93.4106C206.086 93.4517 206.097 93.4963 206.099 93.5418C206.101 93.5874 206.094 93.6328 206.079 93.6757C206.063 93.7185 206.039 93.7577 206.008 93.7911C205.977 93.8246 205.94 93.8515 205.898 93.8703C205.855 93.89 205.807 93.9 205.76 93.8995Z" fill="#263238"/>
<path d="M193.607 92.6734C193.564 92.6738 193.521 92.6656 193.481 92.6493C193.441 92.633 193.404 92.609 193.373 92.5786C193.341 92.5473 193.315 92.5098 193.298 92.4685C193.28 92.4271 193.271 92.3826 193.271 92.3377C193.271 92.2928 193.28 92.2483 193.298 92.207C193.315 92.1656 193.341 92.1282 193.373 92.0969C193.461 92.0093 195.417 90.0096 197.884 90.9949C197.926 91.011 197.964 91.0354 197.997 91.0665C198.03 91.0977 198.056 91.135 198.075 91.1764C198.093 91.2178 198.103 91.2624 198.104 91.3076C198.105 91.3529 198.097 91.3979 198.081 91.44C198.045 91.5246 197.978 91.5919 197.893 91.6274C197.809 91.6628 197.713 91.6637 197.628 91.6298C195.577 90.8124 193.891 92.5494 193.87 92.5713C193.836 92.6071 193.796 92.635 193.75 92.6527C193.705 92.6704 193.656 92.6775 193.607 92.6734Z" fill="#263238"/>
<path opacity="0.2" d="M202.686 113.013C202.116 113.953 201.314 114.732 200.358 115.276C200.169 114.603 199.89 113.96 199.526 113.364C200.593 113.466 201.669 113.347 202.686 113.013Z" fill="black"/>
<path d="M211.649 88.3383C211.649 88.3383 199.337 91.6298 194.433 89.8855C189.528 88.1412 191.243 82.113 191.907 81.5437C192.812 80.7701 194.783 83.9667 194.783 83.9667C194.783 83.9667 193.17 80.5439 194.433 79.7922C195.695 79.0405 195.892 84.1711 200.49 83.631C205.088 83.0909 217.83 79.6243 218.582 87.6377C219.033 92.4385 218.257 97.2751 216.327 101.694C216.327 101.694 215.648 97.315 210.226 100.796C210.226 100.796 208.423 99.5117 210.226 97.7456C213.364 94.6877 212.269 90.6664 211.649 88.3383Z" fill="#263238"/>
<path d="M210.343 87.6961C210.343 87.6961 208.205 94.6877 212.138 94.352C216.072 94.0163 213.656 86.7181 213.656 86.7181L210.343 87.6961Z" fill="#263238"/>
<path d="M200 84.0471C200 84.0471 197.431 82.1569 198.088 80.7848C198.745 79.4128 199.766 82.7261 204.882 82.1204C209.998 81.5146 216.071 81.0549 217.194 84.4485C218.318 87.8421 206.977 85.2586 206.977 85.2586L199.985 86.762L200 84.0471Z" fill="#263238"/>
<path d="M199.112 167.582L194.171 166.188C194.171 166.188 188.332 165.83 187.843 168.056C187.354 170.282 187.113 174.121 189.434 174.427C191.755 174.734 198.98 174.281 198.98 174.281L199.112 167.582Z" fill="#B55B52"/>
<path d="M215.969 133.674L223.931 126.566C223.931 126.566 233.791 148.46 234.346 156.875C234.901 165.29 228.398 169.07 222.888 170.486C217.378 171.902 199.118 175.675 199.118 175.675L198.133 165.516C198.133 165.516 217.582 162.195 225.07 158.758C225.041 158.78 218.305 139.184 215.969 133.674Z" fill="#1470FB"/>
<path opacity="0.1" d="M199.118 175.697L217.524 171.763L217.575 174.537L199.118 175.697Z" fill="black"/>
<path d="M201.323 125.347L203.418 130.879C206.745 128.429 209.808 125.638 212.555 122.552L209.519 117.494C209.519 117.494 206.738 123.026 201.323 125.347Z" fill="#FAFAFA"/>
<path d="M199.789 119.297C199.85 121.402 200.373 123.467 201.322 125.347L199.038 130.456C197.881 129.285 197 127.871 196.457 126.317C195.914 124.763 195.724 123.108 195.899 121.472L199.789 119.297Z" fill="#FAFAFA"/>
</svg>
