<svg width="30" height="30" viewBox="0 0 30 30" fill="none" xmlns="http://www.w3.org/2000/svg">
<path d="M20.1312 1.66669C20.1932 1.66669 20.2553 1.66669 20.3209 1.66669C20.4731 3.54728 19.7553 4.95245 18.8829 5.97003C18.0269 6.98058 16.8548 7.96069 14.959 7.81198C14.8325 5.95832 15.5515 4.65736 16.4227 3.64213C17.2306 2.69598 18.7119 1.85404 20.1312 1.66669Z" fill="#323232"/>
<path d="M25.8702 21.2407C25.8702 21.2595 25.8702 21.2759 25.8702 21.2934C25.3375 22.907 24.5775 24.29 23.6501 25.5734C22.8035 26.7385 21.766 28.3064 19.9135 28.3064C18.3128 28.3064 17.2495 27.2771 15.609 27.249C13.8736 27.2209 12.9192 28.1097 11.3326 28.3334C11.1511 28.3334 10.9696 28.3334 10.7916 28.3334C9.62645 28.1647 8.68615 27.242 8.00113 26.4106C5.9812 23.9539 4.42029 20.7806 4.12988 16.7196C4.12988 16.3215 4.12988 15.9245 4.12988 15.5264C4.25284 12.62 5.66503 10.257 7.54211 9.11176C8.53276 8.50285 9.8946 7.98411 11.411 8.21596C12.0609 8.31667 12.7249 8.53915 13.3068 8.7593C13.8584 8.97124 14.5481 9.34713 15.2015 9.32722C15.6441 9.31434 16.0844 9.08366 16.5305 8.92089C17.8373 8.44899 19.1184 7.908 20.8069 8.1621C22.8362 8.46889 24.2765 9.37055 25.1665 10.7617C23.4498 11.8542 22.0927 13.5006 22.3245 16.3121C22.5306 18.866 24.0154 20.3602 25.8702 21.2407Z" fill="#323232"/>
</svg>
