<svg width="26" height="26" viewBox="0 0 26 26" fill="none" xmlns="http://www.w3.org/2000/svg">
<g clip-path="url(#clip0_87_1874)">
<path d="M5.76215 15.7121L4.85713 19.0907L1.54929 19.1607C0.560727 17.3271 0 15.2293 0 13C0 10.8443 0.524266 8.81141 1.45356 7.02142H1.45427L4.39918 7.56133L5.68923 10.4886C5.41922 11.2757 5.27206 12.1207 5.27206 13C5.27216 13.9543 5.44502 14.8686 5.76215 15.7121Z" fill="#FBBB00"/>
<path d="M25.7732 10.5714C25.9225 11.3578 26.0003 12.17 26.0003 13C26.0003 13.9307 25.9025 14.8386 25.7161 15.7143C25.0832 18.6943 23.4296 21.2964 21.1389 23.1378L21.1382 23.1371L17.429 22.9479L16.904 19.6707C18.424 18.7793 19.6119 17.3843 20.2376 15.7143H13.2861V10.5714H20.339H25.7732Z" fill="#518EF8"/>
<path d="M21.1374 23.1371L21.1381 23.1378C18.9103 24.9285 16.0802 26 12.9995 26C8.04883 26 3.74456 23.2329 1.54883 19.1607L5.76169 15.7122C6.85953 18.6421 9.68596 20.7279 12.9995 20.7279C14.4238 20.7279 15.7581 20.3428 16.9031 19.6707L21.1374 23.1371Z" fill="#28B446"/>
<path d="M21.2974 2.99284L17.086 6.44069C15.901 5.69999 14.5003 5.27211 12.9996 5.27211C9.61098 5.27211 6.73168 7.45352 5.68884 10.4886L1.45384 7.02142H1.45312C3.61671 2.85 7.97527 0 12.9996 0C16.1538 0 19.046 1.12359 21.2974 2.99284Z" fill="#F14336"/>
</g>
<defs>
<clipPath id="clip0_87_1874">
<rect width="26" height="26" fill="white"/>
</clipPath>
</defs>
</svg>
