<svg width="36" height="36" viewBox="0 0 36 36" fill="none" xmlns="http://www.w3.org/2000/svg">
<rect width="36" height="36" rx="8" fill="#1470FB"/>
<path fill-rule="evenodd" clip-rule="evenodd" d="M27.12 13.68C28.7106 13.68 30 14.9694 30 16.56V17.52H22.32V21.84L8.88 21.84C7.28942 21.84 6 20.5506 6 18.96V18L14.16 18V17.52V13.68H12.72V17L6 17V16.3529C6 14.7624 7.28942 13.68 8.88 13.68H27.12ZM23.76 18.5V21.84H27.12C28.7106 21.84 30 20.5506 30 18.96V18.5H23.76Z" fill="white"/>
<path fill-rule="evenodd" clip-rule="evenodd" d="M22.32 27.12C22.32 28.7106 21.0306 30 19.44 30H18.48L18.48 13.68H22.32V12.5H19V6L19.44 6C21.0306 6 22.32 7.28942 22.32 8.88L22.32 27.12ZM17.5 23.28H14.16L14.16 27.12C14.16 28.7106 15.4494 30 17.04 30H17.5L17.5 23.28ZM17.04 6L18 6V21.84H14.16V8.88C14.16 7.28942 15.4494 6 17.04 6Z" fill="white"/>
</svg>
