<svg width="149" height="33" viewBox="0 0 149 33" fill="none" xmlns="http://www.w3.org/2000/svg">
<path d="M20.252 2.726V5.834H12.272V32H8.45V5.834H0.428V2.726H20.252ZM28.7787 12.722C29.4507 11.406 30.4027 10.384 31.6347 9.656C32.8947 8.928 34.4207 8.564 36.2127 8.564V12.512H35.2047C30.9207 12.512 28.7787 14.836 28.7787 19.484V32H24.9567V8.984H28.7787V12.722ZM61.0366 8.984V32H57.2146V28.598C56.4866 29.774 55.4646 30.698 54.1486 31.37C52.8606 32.014 51.4326 32.336 49.8646 32.336C48.0726 32.336 46.4626 31.972 45.0346 31.244C43.6066 30.488 42.4726 29.368 41.6326 27.884C40.8206 26.4 40.4146 24.594 40.4146 22.466V8.984H44.1946V21.962C44.1946 24.23 44.7686 25.98 45.9166 27.212C47.0646 28.416 48.6326 29.018 50.6206 29.018C52.6646 29.018 54.2746 28.388 55.4506 27.128C56.6266 25.868 57.2146 24.034 57.2146 21.626V8.984H61.0366ZM104.282 2.726L95.7979 32H91.5139L84.7099 8.438L77.6539 32L73.4119 32.042L65.2219 2.726H69.2959L75.6799 27.548L82.7359 2.726H87.0199L93.7399 27.464L100.166 2.726H104.282ZM129.464 19.61C129.464 20.338 129.422 21.108 129.338 21.92H110.942C111.082 24.188 111.852 25.966 113.252 27.254C114.68 28.514 116.402 29.144 118.418 29.144C120.07 29.144 121.442 28.766 122.534 28.01C123.654 27.226 124.438 26.19 124.886 24.902H129.002C128.386 27.114 127.154 28.92 125.306 30.32C123.458 31.692 121.162 32.378 118.418 32.378C116.234 32.378 114.274 31.888 112.538 30.908C110.83 29.928 109.486 28.542 108.506 26.75C107.526 24.93 107.036 22.83 107.036 20.45C107.036 18.07 107.512 15.984 108.464 14.192C109.416 12.4 110.746 11.028 112.454 10.076C114.19 9.096 116.178 8.606 118.418 8.606C120.602 8.606 122.534 9.082 124.214 10.034C125.894 10.986 127.182 12.302 128.078 13.982C129.002 15.634 129.464 17.51 129.464 19.61ZM125.516 18.812C125.516 17.356 125.194 16.11 124.55 15.074C123.906 14.01 123.024 13.212 121.904 12.68C120.812 12.12 119.594 11.84 118.25 11.84C116.318 11.84 114.666 12.456 113.294 13.688C111.95 14.92 111.18 16.628 110.984 18.812H125.516ZM138.331 0.92V32H134.509V0.92H138.331ZM148.667 0.92V32H144.845V0.92H148.667Z" fill="#1470FB"/>
</svg>
