<svg width="49" height="48" viewBox="0 0 49 48" fill="none" xmlns="http://www.w3.org/2000/svg">
<path fill-rule="evenodd" clip-rule="evenodd" d="M42.74 15.36C45.9212 15.36 48.5 17.9388 48.5 21.12V23.04H33.14V31.68L6.26 31.68C3.07884 31.68 0.5 29.1011 0.5 25.92V24L16.82 24V23.04V15.36H13.94V22L0.5 22V20.7059C0.5 17.5247 3.07884 15.36 6.26 15.36H42.74ZM36.02 25V31.68H42.74C45.9212 31.68 48.5 29.1011 48.5 25.92V25H36.02Z" fill="#1470FB"/>
<path fill-rule="evenodd" clip-rule="evenodd" d="M33.14 42.24C33.14 45.4212 30.5612 48 27.38 48H25.46L25.46 15.36H33.14V13H26.5V3.67353e-06L27.38 1.71661e-07C30.5612 3.10714e-07 33.14 2.57884 33.14 5.76L33.14 42.24ZM23.5 34.56H16.82L16.82 42.24C16.82 45.4212 19.3988 48 22.58 48H23.5L23.5 34.56ZM22.58 0L24.5 5.72205e-08V31.68H16.82V5.76C16.82 2.57884 19.3988 -1.39053e-07 22.58 0Z" fill="#1470FB"/>
</svg>
