<svg width="375" height="375" viewBox="0 0 375 375" fill="none" xmlns="http://www.w3.org/2000/svg">
<path d="M108.675 239.56C107.037 240.87 106.127 242.935 105.734 245.125C104.706 255.788 90.5011 256.845 91.4184 243.867C91.6865 237.279 95.2939 233.994 99.3722 231.245C107.297 225.293 112.483 232.01 112.884 234.613C113.23 237.195 110.214 238.252 108.675 239.56Z" fill="#1470FB"/>
<path opacity="0.9" d="M108.675 239.56C107.037 240.87 106.127 242.935 105.734 245.125C104.706 255.788 90.5011 256.845 91.4184 243.867C91.6865 237.279 95.2939 233.994 99.3722 231.245C107.297 225.293 112.483 232.01 112.884 234.613C113.23 237.195 110.214 238.252 108.675 239.56Z" fill="white" fill-opacity="0.7"/>
<path d="M116.316 141.931C134.488 139.162 150.445 127.474 163.028 112.58C217.558 36.142 330.013 90.3696 266.177 184.857C235.267 233.695 193.494 242.813 150.49 245.808C64.2517 256.259 54.3283 182.552 62.6933 161.031C71.3803 139.922 98.903 145.112 116.316 141.931Z" fill="#1470FB"/>
<path opacity="0.9" d="M116.316 141.931C134.488 139.162 150.445 127.474 163.028 112.58C217.558 36.142 330.013 90.3696 266.177 184.857C235.267 233.695 193.494 242.813 150.49 245.808C64.2517 256.259 54.3283 182.552 62.6933 161.031C71.3803 139.922 98.903 145.112 116.316 141.931Z" fill="white"/>
<path d="M268.385 210.617C269.898 209.954 271.01 208.569 271.756 206.985C274.71 199.085 285.727 201.176 282.385 210.858C280.839 215.813 277.426 217.575 273.765 218.835C266.526 221.746 263.952 215.582 264.177 213.521C264.44 211.487 266.948 211.298 268.385 210.617Z" fill="#1470FB"/>
<path opacity="0.9" d="M268.385 210.617C269.898 209.954 271.01 208.569 271.756 206.985C274.71 199.085 285.727 201.176 282.385 210.858C280.839 215.813 277.426 217.575 273.765 218.835C266.526 221.746 263.952 215.582 264.177 213.521C264.44 211.487 266.948 211.298 268.385 210.617Z" fill="white"/>
<path d="M285.385 68.6171C286.898 67.9544 288.01 66.5694 288.756 64.9847C291.71 57.0853 302.727 59.1758 299.385 68.8575C297.839 73.8132 294.426 75.5754 290.765 76.8349C283.526 79.7465 280.952 73.5824 281.177 71.5208C281.44 69.4874 283.948 69.2979 285.385 68.6171Z" fill="#1470FB"/>
<path opacity="0.9" d="M285.385 68.6171C286.898 67.9544 288.01 66.5694 288.756 64.9847C291.71 57.0853 302.727 59.1758 299.385 68.8575C297.839 73.8132 294.426 75.5754 290.765 76.8349C283.526 79.7465 280.952 73.5824 281.177 71.5208C281.44 69.4874 283.948 69.2979 285.385 68.6171Z" fill="white" fill-opacity="0.8"/>
<path d="M70.675 189.56C69.0373 190.87 68.1274 192.935 67.7338 195.125C66.7062 205.788 52.5011 206.845 53.4184 193.867C53.6865 187.279 57.2939 183.994 61.3722 181.245C69.2972 175.293 74.4826 182.01 74.8838 184.613C75.2296 187.195 72.214 188.252 70.675 189.56Z" fill="#1470FB"/>
<path opacity="0.9" d="M70.675 189.56C69.0373 190.87 68.1274 192.935 67.7338 195.125C66.7062 205.788 52.5011 206.845 53.4184 193.867C53.6865 187.279 57.2939 183.994 61.3722 181.245C69.2972 175.293 74.4826 182.01 74.8838 184.613C75.2296 187.195 72.214 188.252 70.675 189.56Z" fill="white" fill-opacity="0.7"/>
<path d="M140.492 101.069C139.518 101.848 138.976 103.077 138.742 104.38C138.131 110.725 129.678 111.354 130.224 103.632C130.384 99.7111 132.53 97.757 134.957 96.1211C139.673 92.5792 142.758 96.576 142.997 98.1253C143.203 99.6613 141.408 100.29 140.492 101.069Z" fill="#1470FB"/>
<path opacity="0.9" d="M140.492 101.069C139.518 101.848 138.976 103.077 138.742 104.38C138.131 110.725 129.678 111.354 130.224 103.632C130.384 99.7111 132.53 97.757 134.957 96.1211C139.673 92.5792 142.758 96.576 142.997 98.1253C143.203 99.6613 141.408 100.29 140.492 101.069Z" fill="white"/>
<path d="M200.357 72.5649C201.096 72.2763 201.945 72.3688 202.736 72.654C206.424 74.3341 209.457 69.8809 205.032 67.727C202.823 66.5687 201.065 67.1293 199.393 67.9453C195.945 69.4155 197.164 72.3843 197.941 73.0082C198.721 73.6096 199.638 72.8218 200.357 72.5649Z" fill="#1470FB"/>
<path opacity="0.9" d="M200.357 72.5649C201.096 72.2763 201.945 72.3688 202.736 72.654C206.424 74.3341 209.457 69.8809 205.032 67.727C202.823 66.5687 201.065 67.1293 199.393 67.9453C195.945 69.4155 197.164 72.3843 197.941 73.0082C198.721 73.6096 199.638 72.8218 200.357 72.5649Z" fill="white"/>
<path d="M176.989 325.33C245.945 325.33 301.845 322.066 301.845 318.04C301.845 314.014 245.945 310.751 176.989 310.751C108.032 310.751 52.1318 314.014 52.1318 318.04C52.1318 322.066 108.032 325.33 176.989 325.33Z" fill="#F5F5F5"/>
<path d="M122.897 124.467C124.52 120.751 110.147 117.384 105.8 128.833C101.859 139.22 95.3164 141.873 98.3945 149.066C101.724 156.852 120.56 157.785 128.738 149.156C135.371 142.157 128.171 139.207 129.098 132.626C130.026 126.045 128.081 123.9 122.897 124.467Z" fill="#263238"/>
<path d="M96.7139 146.761C95.9669 142.704 97.4738 141.03 99.3799 138.911C101.956 136.297 103.72 132.994 104.461 129.4C104.845 127.437 105.826 125.641 107.271 124.257C108.715 122.874 110.552 121.971 112.529 121.672C116.78 120.887 121.281 122.278 122.472 124.042C122.662 124.291 122.77 124.592 122.782 124.904C122.793 125.217 122.707 125.525 122.537 125.787L121.996 125.44C122.1 125.284 122.151 125.098 122.14 124.911C122.13 124.724 122.059 124.546 121.938 124.403C120.882 122.831 116.593 121.576 112.652 122.31C109.838 122.831 106.212 124.506 105.092 129.542C104.329 133.243 102.51 136.645 99.8564 139.336C98.0018 141.397 96.6367 142.891 97.3514 146.639L96.7139 146.761Z" fill="#263238"/>
<path d="M87.8592 143.676L87.46 142.388C87.1844 141.513 86.6849 140.725 86.0111 140.102L84.7232 138.93C84.3159 138.554 83.7897 138.331 83.2357 138.302C82.6818 138.273 82.135 138.438 81.6901 138.769L80.3121 139.8C80.0602 139.988 79.8482 140.224 79.6883 140.495C79.5285 140.766 79.424 141.066 79.3809 141.377C79.3377 141.689 79.3568 142.006 79.4371 142.31C79.5174 142.614 79.6572 142.899 79.8484 143.148L80.7371 144.307C80.7371 144.307 82.8235 147.836 85.8437 149.06L86.5391 148.467C87.2045 147.886 87.6844 147.122 87.9191 146.27C88.1538 145.418 88.133 144.516 87.8592 143.676Z" fill="#FFC3BD"/>
<path d="M112.89 166.035L112.478 166.35L112.143 166.595L111.499 167.046C111.068 167.329 110.63 167.593 110.211 167.85C109.335 168.354 108.432 168.81 107.506 169.216C105.603 170.055 103.602 170.652 101.55 170.993C99.3831 171.357 97.1718 171.37 95.0008 171.032C93.8899 170.857 92.7986 170.574 91.7424 170.188C91.4784 170.104 91.2144 169.995 90.9568 169.885L90.5704 169.724L90.3772 169.641L90.1647 169.551L89.8942 169.422C89.3322 169.134 88.814 168.767 88.3552 168.333C88.0254 168.027 87.7216 167.693 87.4472 167.335C86.7186 166.347 86.1293 165.264 85.6956 164.116C85.3093 163.163 85.0131 162.248 84.749 161.353C84.2687 159.621 83.8796 157.865 83.5835 156.092C82.9952 152.666 82.6659 149.2 82.5982 145.724C82.5185 145.073 82.6899 144.417 83.0774 143.888C83.465 143.36 84.0395 142.999 84.6839 142.879C85.3284 142.759 85.9943 142.889 86.546 143.243C87.0977 143.597 87.4937 144.148 87.6533 144.784V144.855C88.7738 147.939 89.8492 151.101 90.9825 154.102C91.5685 155.596 92.1352 157.084 92.7792 158.436C93.0883 159.112 93.4231 159.756 93.7387 160.316C93.9535 160.727 94.2292 161.102 94.5565 161.43C94.5565 161.43 94.5565 161.43 94.5114 161.34C94.3631 161.186 94.1887 161.06 93.9962 160.967L93.8739 160.902C93.8353 160.902 93.758 160.857 93.8031 160.87H93.9061L94.1057 160.922C94.2386 160.963 94.3742 160.995 94.5114 161.018C95.055 161.127 95.6061 161.193 96.1599 161.218C97.3193 161.253 98.4782 161.132 99.6051 160.857C100.842 160.545 102.045 160.114 103.198 159.569C103.797 159.299 104.39 158.983 104.969 158.668C105.259 158.507 105.542 158.333 105.813 158.165L106.457 157.753L106.959 157.438C108.091 156.718 109.457 156.465 110.771 156.732C112.085 156.999 113.245 157.764 114.006 158.867C114.768 159.971 115.073 161.326 114.856 162.65C114.639 163.973 113.919 165.161 112.845 165.964L112.89 166.035Z" fill="#FFC3BD"/>
<path d="M124.185 315.233C128.261 313.887 131.693 311.131 131.004 306.295C130.702 304.221 137.354 303.41 137.354 303.41C136.6 309.997 137.424 311.137 138.216 312.625C139.009 314.112 138.963 315.935 137.573 316.096C135.924 316.295 135.557 316.096 133.509 316.386C131.114 316.701 129.562 317.95 124.777 317.95C122.195 317.95 122.897 315.658 124.185 315.233Z" fill="#1470FB"/>
<path d="M136.581 244.868C137.051 211.871 134.005 193.886 134.005 193.886L109.593 195.103C109.593 195.103 113.205 225.291 119.619 247.527C121.332 259.46 125.189 279.641 127.862 293.197C131.827 292.857 135.747 292.115 139.562 290.981C140.496 279.075 140.663 261.862 136.581 244.868Z" fill="#1470FB"/>
<path d="M137.109 306.642C137.109 306.642 138.062 300.409 138.706 290.981C135.466 292.11 132.105 292.853 128.692 293.197C130.083 301.426 131.075 306.668 131.075 306.668C133.027 307.37 135.163 307.361 137.109 306.642Z" fill="#FFC3BD"/>
<path d="M126.529 289.249C126.741 290.383 127.334 293.222 127.92 294.221C127.954 294.278 128 294.327 128.056 294.364C128.112 294.401 128.175 294.425 128.242 294.433C132.794 295.006 137.341 294.092 139.189 293.267C139.241 293.247 139.287 293.215 139.326 293.175C139.365 293.135 139.395 293.088 139.414 293.036C139.929 291.67 140.116 288.798 140.174 287.588C140.177 287.522 140.166 287.457 140.14 287.397C140.114 287.336 140.075 287.283 140.025 287.24C139.975 287.197 139.917 287.166 139.853 287.149C139.79 287.133 139.723 287.131 139.659 287.143C135.44 287.925 131.178 288.459 126.896 288.74C126.837 288.747 126.781 288.766 126.73 288.796C126.679 288.826 126.635 288.866 126.6 288.914C126.566 288.962 126.541 289.016 126.529 289.074C126.517 289.132 126.517 289.191 126.529 289.249Z" fill="#263238"/>
<path d="M109.915 156.304C106.296 156.948 100.777 160.007 100.777 160.007C100.777 160.007 97.8727 166.962 101.35 171.972C104.776 172.783 106.502 172.12 106.502 172.12L109.915 156.304Z" fill="#263238"/>
<path opacity="0.2" d="M101.35 171.972C104.776 172.783 106.502 172.12 106.502 172.12L106.379 162.737C104.055 165.867 102.116 168.971 101.35 171.972Z" fill="black"/>
<path opacity="0.2" d="M136.453 225.401C133.722 218.723 130.786 213.224 129.659 208.201C127.727 221.859 129.247 234.423 136.594 243.425C136.678 236.78 136.607 230.765 136.453 225.401Z" fill="black"/>
<path d="M173.77 277.767L164.026 284.696C156.074 274.335 144.148 258.507 141.263 251.616C133.934 234.133 119.201 195.592 119.201 195.592L138.326 191.149C138.326 191.149 150.394 202.354 158.179 244.636C164.696 253.896 170.183 267.522 173.77 277.767Z" fill="#1470FB"/>
<path d="M173.209 310.609C175.637 305.863 175.669 300.634 173.048 296.513C171.921 294.749 177.646 291.265 177.646 291.265C179.668 297.582 181.317 297.949 182.721 298.928C184.124 299.907 184.266 302.012 183.081 302.727C181.788 303.487 180.687 304.534 179.861 305.786C178.393 307.718 177.569 310.371 175.463 312.026C174.117 313.076 172.14 312.689 173.209 310.609Z" fill="#1470FB"/>
<path d="M178.708 294.163C178.708 294.163 177.028 288.251 173.731 279.397C171.241 281.755 168.485 283.817 165.52 285.54C170.176 292.469 173.583 297.447 173.583 297.447C175.562 296.847 177.336 295.71 178.708 294.163Z" fill="#FFC3BD"/>
<path d="M161.921 282.835C162.565 283.776 164.291 286.126 165.237 286.789C165.293 286.828 165.356 286.854 165.423 286.866C165.49 286.877 165.558 286.873 165.624 286.854C170.003 285.501 173.77 282.79 175.148 281.264C175.186 281.223 175.216 281.174 175.233 281.121C175.251 281.068 175.257 281.011 175.251 280.955C175.161 279.506 174.143 276.808 173.699 275.681C173.675 275.621 173.637 275.568 173.589 275.524C173.542 275.481 173.485 275.449 173.423 275.43C173.361 275.412 173.296 275.407 173.232 275.417C173.169 275.427 173.108 275.451 173.055 275.488C169.541 277.94 165.885 280.182 162.108 282.204C162.05 282.23 161.999 282.267 161.958 282.314C161.916 282.361 161.886 282.417 161.868 282.477C161.85 282.537 161.846 282.6 161.855 282.662C161.864 282.724 161.887 282.783 161.921 282.835Z" fill="#263238"/>
<path d="M104.389 165.912C105.265 171.611 101.871 176.029 107.094 178.656C106.225 182.99 107.513 191.645 109.58 195.077C112.484 196.655 126.69 194.324 138.3 191.142C138.133 186.184 134.056 176.428 135.19 160.187C135.251 159.299 135.124 158.408 134.819 157.571C134.513 156.735 134.035 155.972 133.416 155.332C132.797 154.692 132.05 154.189 131.224 153.857C130.398 153.524 129.511 153.368 128.621 153.4C127.617 153.4 126.548 153.497 125.466 153.593C121.662 153.837 117.881 154.354 114.152 155.139C112.947 155.422 111.705 155.744 110.526 156.079C108.478 156.684 106.722 158.018 105.591 159.83C104.46 161.643 104.033 163.806 104.389 165.912Z" fill="#263238"/>
<path d="M112.594 161.578C112.594 161.578 116.232 160.252 118.138 163.51C121.313 161.726 125.775 154.186 125.46 153.613C120.147 155.074 112.594 161.578 112.594 161.578Z" fill="white"/>
<path d="M112.594 161.578C112.594 161.578 109.831 161.25 109.052 163.697C109.052 158.867 112.31 155.828 113.733 155.261C113.237 156.523 112.594 161.578 112.594 161.578Z" fill="white"/>
<path d="M124.069 140.83C123.663 144.597 123.599 150.65 125.466 153.619C125.466 153.619 118.383 158.468 112.587 161.578C110.765 157.36 113.727 155.261 113.727 155.261C116.49 154.205 116.464 150.67 116.09 147.965L124.069 140.83Z" fill="#FFC3BD"/>
<path opacity="0.2" d="M116.103 147.965L120.611 143.908C120.762 144.665 120.714 145.449 120.469 146.181C119.689 148.292 118.188 150.059 116.232 151.172C116.303 150.101 116.26 149.026 116.103 147.965Z" fill="black"/>
<path d="M125.525 133.83C124.881 139.948 124.784 142.543 121.629 145.57C116.876 150.122 109.645 148.036 108.453 141.867C107.378 136.309 108.556 127.243 114.532 125.034C120.508 122.825 126.117 127.719 125.525 133.83Z" fill="#FFC3BD"/>
<path d="M124.185 138.306C123.241 137.402 122.689 136.164 122.648 134.857C122.607 133.551 123.08 132.28 123.966 131.319C125.576 129.69 127.83 133.064 127.83 133.064L124.185 138.306Z" fill="#263238"/>
<path d="M116.721 135.524C116.721 136.026 116.418 136.419 116.077 136.406C115.736 136.393 115.504 135.975 115.523 135.479C115.543 134.983 115.826 134.584 116.167 134.597C116.509 134.609 116.74 135.002 116.721 135.524Z" fill="#263238"/>
<path d="M110.578 135.376C110.578 135.872 110.282 136.264 109.934 136.252C109.587 136.239 109.361 135.827 109.381 135.324C109.4 134.822 109.677 134.436 110.025 134.448C110.372 134.461 110.598 134.873 110.578 135.376Z" fill="#263238"/>
<path d="M110.166 134.481L108.981 134.088C108.981 134.088 109.561 135.047 110.166 134.481Z" fill="#263238"/>
<path d="M112.091 135.569C111.594 136.692 110.944 137.741 110.159 138.686C110.407 138.876 110.693 139.011 110.998 139.08C111.302 139.149 111.618 139.15 111.924 139.085L112.091 135.569Z" fill="#ED847E"/>
<path d="M114.751 141.043C114.472 141.082 114.189 141.095 113.907 141.081C113.869 141.08 113.833 141.063 113.807 141.036C113.78 141.008 113.766 140.971 113.766 140.933C113.766 140.914 113.771 140.895 113.779 140.877C113.788 140.859 113.799 140.843 113.814 140.83C113.828 140.817 113.845 140.807 113.863 140.8C113.881 140.794 113.901 140.791 113.92 140.791C114.54 140.828 115.16 140.72 115.731 140.474C116.301 140.227 116.806 139.851 117.204 139.375C117.215 139.359 117.228 139.345 117.244 139.335C117.26 139.324 117.277 139.317 117.296 139.313C117.315 139.31 117.334 139.31 117.352 139.314C117.371 139.318 117.388 139.325 117.404 139.336C117.42 139.347 117.434 139.361 117.444 139.377C117.455 139.394 117.462 139.412 117.466 139.431C117.47 139.45 117.469 139.47 117.465 139.489C117.461 139.508 117.454 139.526 117.443 139.542C116.775 140.374 115.809 140.912 114.751 141.043Z" fill="#263238"/>
<path d="M126.541 138.956C126.303 139.462 125.958 139.911 125.532 140.273C125.105 140.635 124.607 140.902 124.069 141.055C122.697 141.397 122.059 139.89 122.485 138.383C122.864 137.024 124.043 135.215 125.395 135.543C126.748 135.872 127.205 137.636 126.541 138.956Z" fill="#FFC3BD"/>
<path d="M122.356 125.13C118.021 127.835 113.153 129.572 108.086 130.224C108.086 125.826 116.689 120.887 122.356 125.13Z" fill="#263238"/>
<path d="M119.034 125.665C118.035 129.529 128.049 136.612 126.117 143.425C129.388 138.332 127.031 126.869 127.031 126.869C127.031 126.869 118.596 121.531 119.034 125.665Z" fill="#263238"/>
<path d="M118.003 132.24C117.964 132.234 117.926 132.22 117.893 132.199C117.859 132.178 117.831 132.15 117.809 132.117C117.611 131.807 117.341 131.548 117.024 131.361C116.706 131.174 116.349 131.065 115.981 131.042C115.942 131.044 115.904 131.038 115.868 131.024C115.832 131.011 115.8 130.99 115.772 130.964C115.744 130.937 115.722 130.905 115.707 130.87C115.692 130.835 115.684 130.797 115.684 130.759C115.683 130.719 115.689 130.68 115.703 130.644C115.716 130.607 115.737 130.574 115.765 130.545C115.792 130.517 115.824 130.495 115.86 130.479C115.896 130.464 115.935 130.456 115.974 130.456C116.439 130.476 116.892 130.608 117.296 130.84C117.699 131.072 118.041 131.397 118.292 131.789C118.314 131.821 118.33 131.856 118.338 131.894C118.346 131.931 118.346 131.97 118.339 132.008C118.332 132.046 118.317 132.082 118.296 132.114C118.274 132.146 118.247 132.173 118.215 132.195C118.184 132.216 118.15 132.231 118.113 132.238C118.077 132.246 118.039 132.247 118.003 132.24Z" fill="#263238"/>
<path d="M107.861 132.027C107.786 132.022 107.715 131.99 107.661 131.937C107.634 131.91 107.612 131.878 107.598 131.843C107.583 131.807 107.575 131.769 107.575 131.731C107.575 131.693 107.583 131.655 107.598 131.619C107.612 131.584 107.634 131.552 107.661 131.525C107.982 131.187 108.38 130.932 108.82 130.779C109.26 130.627 109.731 130.582 110.192 130.649C110.268 130.666 110.333 130.712 110.376 130.777C110.418 130.842 110.433 130.921 110.417 130.997C110.41 131.035 110.395 131.071 110.373 131.103C110.351 131.134 110.323 131.162 110.291 131.183C110.259 131.204 110.222 131.218 110.184 131.225C110.146 131.232 110.107 131.231 110.07 131.222C109.704 131.176 109.333 131.216 108.986 131.34C108.639 131.464 108.326 131.669 108.073 131.937C108.017 131.994 107.941 132.026 107.861 132.027Z" fill="#263238"/>
<path d="M116.309 134.629L115.124 134.242C115.124 134.242 115.697 135.202 116.309 134.629Z" fill="#263238"/>
<path opacity="0.2" d="M135.035 163.336C134.92 166.775 135.034 170.217 135.377 173.64C132.157 170.24 128.113 163.819 127.849 160.599L135.035 163.336Z" fill="black"/>
<path d="M156.061 151.243L156.762 147.154L163.118 149.607C163.118 149.607 161.644 153.413 158.933 155.094L158.179 154.617C157.588 154.258 157.089 153.766 156.722 153.18C156.354 152.594 156.128 151.931 156.061 151.243Z" fill="#FFC3BD"/>
<path d="M160.729 144.874L162.822 146.014C163.279 146.262 163.62 146.681 163.77 147.179C163.919 147.677 163.866 148.215 163.621 148.673L163.125 149.607L156.769 147.154L158.282 145.344C158.574 144.997 158.977 144.761 159.422 144.675C159.868 144.589 160.329 144.66 160.729 144.874Z" fill="#FFC3BD"/>
<path d="M133.902 155.912L134.713 156.749L135.595 157.644C136.194 158.23 136.793 158.829 137.411 159.395C138.635 160.548 139.897 161.617 141.166 162.615C142.362 163.553 143.633 164.393 144.965 165.127C145.984 165.699 147.092 166.096 148.243 166.299L146.511 166.621C146.085 166.827 146.111 166.917 146.201 166.846C146.375 166.729 146.535 166.593 146.678 166.44C147.149 165.95 147.58 165.422 147.966 164.863C148.842 163.62 149.73 162.209 150.542 160.748C151.353 159.286 152.216 157.785 153.047 156.24L155.526 151.655V151.616C155.817 151.07 156.292 150.645 156.868 150.417C157.443 150.189 158.081 150.173 158.667 150.372C159.253 150.571 159.749 150.972 160.067 151.503C160.384 152.034 160.503 152.661 160.401 153.271C160.104 155.126 159.699 156.877 159.248 158.661C158.797 160.445 158.314 162.209 157.67 163.98C157.039 165.806 156.291 167.589 155.429 169.319C154.93 170.292 154.364 171.23 153.736 172.126C153.339 172.679 152.895 173.196 152.409 173.672C151.689 174.39 150.839 174.965 149.904 175.365C149.445 175.561 148.954 175.668 148.455 175.681H148.172C145.627 175.696 143.109 175.167 140.786 174.129C139.76 173.691 138.759 173.198 137.785 172.654C136.853 172.105 135.954 171.536 135.087 170.948C133.402 169.768 131.797 168.477 130.283 167.084C129.542 166.402 128.808 165.713 128.106 164.985C127.758 164.624 127.404 164.264 127.063 163.884C126.722 163.504 126.419 163.156 126 162.673C125.075 161.648 124.594 160.298 124.664 158.919C124.734 157.54 125.349 156.245 126.374 155.319C127.399 154.393 128.749 153.913 130.128 153.983C131.507 154.053 132.802 154.668 133.728 155.693L133.902 155.912Z" fill="#FFC3BD"/>
<path d="M128.905 153.432C133.626 153.574 138.32 159.228 138.32 159.228C138.32 159.228 136.504 166.73 131.333 169.963C128.422 167.696 125.956 165.88 125.956 165.88C121.841 159.846 123.213 155.841 128.905 153.432Z" fill="#263238"/>
<path d="M108.64 194.658C108.988 196.674 109.406 198.258 109.542 198.741C109.555 198.792 109.578 198.84 109.61 198.882C109.642 198.924 109.682 198.96 109.728 198.986C110.417 199.366 113.56 200.918 119.33 200.576C125.769 200.229 135.216 196.713 140.117 192.971C140.188 192.916 140.239 192.839 140.263 192.751C140.286 192.664 140.28 192.572 140.245 192.488C139.867 191.649 139.426 190.84 138.925 190.067C138.876 189.993 138.805 189.936 138.721 189.906C138.638 189.876 138.547 189.874 138.462 189.9C136.35 190.543 123.052 194.349 109.046 194.182C108.986 194.182 108.928 194.195 108.874 194.22C108.82 194.245 108.772 194.282 108.733 194.327C108.695 194.372 108.667 194.425 108.65 194.482C108.634 194.54 108.631 194.6 108.64 194.658Z" fill="#1470FB"/>
<path opacity="0.3" d="M108.64 194.658C108.988 196.674 109.406 198.258 109.542 198.741C109.555 198.792 109.578 198.84 109.61 198.882C109.642 198.924 109.682 198.96 109.728 198.986C110.417 199.366 113.56 200.918 119.33 200.576C125.769 200.229 135.216 196.713 140.117 192.971C140.188 192.916 140.239 192.839 140.263 192.751C140.286 192.664 140.28 192.572 140.245 192.488C139.867 191.649 139.426 190.84 138.925 190.067C138.876 189.993 138.805 189.936 138.721 189.906C138.638 189.876 138.547 189.874 138.462 189.9C136.35 190.543 123.052 194.349 109.046 194.182C108.986 194.182 108.928 194.195 108.874 194.22C108.82 194.245 108.772 194.282 108.733 194.327C108.695 194.372 108.667 194.425 108.65 194.482C108.634 194.54 108.631 194.6 108.64 194.658Z" fill="white"/>
<path d="M237.695 298.831H152.911C151.343 298.846 149.789 298.536 148.347 297.92C146.904 297.305 145.605 296.398 144.53 295.256C143.455 294.114 142.628 292.762 142.101 291.285C141.575 289.808 141.359 288.238 141.468 286.673L151.772 110.455C152.007 107.184 153.46 104.12 155.845 101.869C158.229 99.6178 161.372 98.3431 164.651 98.2967H249.453C251.022 98.2823 252.576 98.5924 254.018 99.2078C255.461 99.8231 256.76 100.73 257.835 101.872C258.91 103.014 259.736 104.366 260.263 105.843C260.79 107.32 261.006 108.89 260.897 110.455L250.561 286.673C250.326 289.942 248.875 293.004 246.493 295.255C244.111 297.506 240.972 298.782 237.695 298.831Z" fill="#1470FB"/>
<path opacity="0.8" d="M237.695 298.831H152.911C151.343 298.846 149.789 298.536 148.347 297.92C146.904 297.305 145.605 296.398 144.53 295.256C143.455 294.114 142.628 292.762 142.101 291.285C141.575 289.808 141.359 288.238 141.468 286.673L151.772 110.455C152.007 107.184 153.46 104.12 155.845 101.869C158.229 99.6178 161.372 98.3431 164.651 98.2967H249.453C251.022 98.2823 252.576 98.5924 254.018 99.2078C255.461 99.8231 256.76 100.73 257.835 101.872C258.91 103.014 259.736 104.366 260.263 105.843C260.79 107.32 261.006 108.89 260.897 110.455L250.561 286.673C250.326 289.942 248.875 293.004 246.493 295.255C244.111 297.506 240.972 298.782 237.695 298.831Z" fill="white"/>
<path d="M237.193 295.302H154.766C153.664 295.313 152.572 295.096 151.559 294.664C150.545 294.232 149.632 293.595 148.876 292.793C148.121 291.991 147.54 291.041 147.169 290.003C146.798 288.966 146.647 287.863 146.723 286.763L157.026 111.311C157.192 109.019 158.208 106.871 159.876 105.289C161.545 103.708 163.744 102.808 166.042 102.766H248.468C249.57 102.756 250.662 102.974 251.676 103.407C252.69 103.84 253.603 104.477 254.358 105.28C255.114 106.082 255.695 107.032 256.065 108.07C256.436 109.108 256.588 110.212 256.511 111.311L246.208 286.763C246.043 289.055 245.026 291.203 243.358 292.783C241.689 294.363 239.49 295.262 237.193 295.302Z" fill="#1470FB"/>
<path d="M236.304 294.362H153.877C152.775 294.372 151.683 294.154 150.67 293.721C149.656 293.288 148.743 292.651 147.987 291.848C147.232 291.046 146.651 290.096 146.28 289.058C145.91 288.02 145.758 286.916 145.834 285.817L156.138 110.364C156.303 108.072 157.319 105.924 158.988 104.343C160.656 102.762 162.855 101.861 165.153 101.819H247.58C248.682 101.809 249.774 102.028 250.787 102.46C251.801 102.893 252.714 103.531 253.47 104.333C254.225 105.136 254.806 106.086 255.177 107.124C255.547 108.162 255.699 109.265 255.623 110.364L245.319 285.817C245.154 288.109 244.138 290.257 242.469 291.838C240.801 293.42 238.602 294.32 236.304 294.362Z" fill="white"/>
<path opacity="0.1" d="M233.896 287.839H157.027C156.346 287.845 155.671 287.71 155.044 287.443C154.418 287.176 153.853 286.782 153.386 286.286C152.92 285.79 152.56 285.203 152.331 284.561C152.102 283.92 152.008 283.238 152.055 282.558L156.383 209.373C156.484 207.953 157.115 206.622 158.15 205.645C159.185 204.667 160.549 204.113 161.972 204.092H238.809C239.49 204.086 240.165 204.221 240.792 204.488C241.418 204.756 241.982 205.15 242.449 205.646C242.916 206.142 243.275 206.729 243.505 207.37C243.734 208.011 243.828 208.693 243.78 209.373L239.485 282.558C239.384 283.979 238.753 285.309 237.718 286.287C236.683 287.264 235.319 287.818 233.896 287.839Z" fill="#1470FB"/>
<path opacity="0.1" d="M216.824 114.834H194.421C194.178 114.836 193.936 114.788 193.712 114.692C193.488 114.597 193.286 114.456 193.119 114.279C192.953 114.102 192.824 113.892 192.742 113.663C192.66 113.433 192.627 113.19 192.644 112.947C192.679 112.437 192.905 111.96 193.276 111.609C193.647 111.259 194.136 111.06 194.646 111.054H217.043C217.289 111.047 217.534 111.093 217.762 111.187C217.989 111.281 218.194 111.422 218.364 111.601C218.534 111.779 218.665 111.991 218.748 112.223C218.831 112.454 218.864 112.701 218.846 112.947C218.81 113.459 218.582 113.938 218.207 114.288C217.831 114.638 217.337 114.833 216.824 114.834Z" fill="#1470FB"/>
<path opacity="0.1" d="M225.737 185.468C239.532 172.071 240.474 150.665 227.84 137.655C215.207 124.646 193.782 124.959 179.986 138.356C166.191 151.753 165.249 173.16 177.883 186.169C190.516 199.179 211.941 198.865 225.737 185.468Z" fill="#1470FB"/>
<path d="M179.179 184.31C176.36 181.309 174.191 177.758 172.81 173.879C171.428 170.001 170.862 165.879 171.148 161.771H171.792C171.513 165.791 172.067 169.824 173.419 173.619C174.771 177.414 176.892 180.889 179.649 183.827L179.179 184.31Z" fill="#1470FB"/>
<path d="M234.572 162.048L233.928 162.01C234.104 159.173 233.887 156.326 233.284 153.548L233.928 153.407C234.544 156.243 234.761 159.152 234.572 162.048Z" fill="#1470FB"/>
<path d="M231.417 147.946C229.841 144.449 227.586 141.3 224.784 138.682C221.982 136.063 218.687 134.026 215.092 132.69L215.318 132.085C218.995 133.449 222.364 135.53 225.229 138.209C228.093 140.888 230.396 144.11 232.003 147.688L231.417 147.946Z" fill="#1470FB"/>
<path d="M222.794 182.438C234.816 170.763 235.638 152.109 224.63 140.773C213.621 129.437 194.951 129.712 182.929 141.387C170.907 153.061 170.085 171.715 181.093 183.051C192.102 194.387 210.772 194.112 222.794 182.438Z" fill="#1470FB"/>
<path d="M199.585 165.912C201.002 165.597 201.665 164.386 201.968 163.008C202 162.86 202.026 162.718 202.052 162.576V162.448C202.129 161.873 202.172 161.295 202.181 160.715C200.809 160.58 199.535 159.944 198.602 158.93C197.669 157.916 197.141 156.594 197.119 155.216C197.048 152.483 197.654 149.776 198.884 147.334C198.567 147.375 198.267 147.5 198.014 147.695C197.99 147.713 197.962 147.726 197.932 147.733C197.902 147.74 197.87 147.74 197.84 147.733C197.785 147.724 197.734 147.694 197.699 147.65C197.664 147.601 197.65 147.541 197.658 147.483C197.667 147.424 197.697 147.371 197.744 147.334C198.144 147.031 198.633 146.868 199.135 146.87C199.231 146.716 199.321 146.555 199.418 146.407C199.006 146.407 198.607 146.407 198.22 146.407C198.645 143.432 204.37 140.933 208.272 143.187C210.011 143.535 212.883 146.02 212.883 146.02C212.941 147.604 212.896 149.189 212.748 150.766C212.49 153.458 211.853 156.62 210.301 158.384C210.687 157.482 210.829 156.494 210.713 155.519C210.341 155.887 209.879 156.151 209.374 156.285C209.19 156.68 208.975 157.059 208.73 157.418C208.124 160.181 207.693 163.858 208.614 165.977C209.444 166.028 210.249 166.105 211.016 166.189L211.202 166.221C211.708 165.924 212.194 165.595 212.658 165.236C218.453 160.728 212.304 155.435 213.753 150.586C215.201 145.737 213.978 143.895 210.018 143.741C211.66 141.12 201.228 136.934 196.643 145.067C192.489 152.441 191.15 156.124 192.644 161.887C193.205 163.771 194.478 165.362 196.192 166.324C196.484 166.244 196.781 166.184 197.081 166.144C197.898 166.067 198.748 165.977 199.585 165.912Z" fill="#263238"/>
<path d="M190.577 177.246C190.34 176.828 190.125 176.398 189.933 175.958C189.495 177.246 189.063 178.534 188.645 179.822C188.246 180.981 187.866 182.14 187.466 183.247L186.867 184.812L186.61 185.456C186.52 185.63 186.61 185.527 186.61 185.579C186.335 185.898 186.031 186.192 185.702 186.454C185.631 186.525 185.541 186.59 185.464 186.654C187.245 187.856 189.163 188.844 191.176 189.597C191.221 186.654 191.581 183.595 191.968 182.777C189.649 181.167 189.997 179.435 190.577 177.246Z" fill="#FFC3BD"/>
<path d="M192.831 168.559L192.67 168.784C192.721 168.707 192.779 168.636 192.837 168.565L192.831 168.559Z" fill="#263238"/>
<path d="M191.343 172.873C191.334 171.456 191.763 170.07 192.573 168.907C191.338 170.849 190.323 172.922 189.546 175.089C189.546 175.089 189.662 175.43 189.907 175.964C190.1 176.404 190.315 176.834 190.551 177.252C191.01 175.835 191.277 174.362 191.343 172.873Z" fill="#263238"/>
<path d="M213.791 182.217C213.028 181.095 212.35 179.918 211.763 178.695C211.569 178.798 211.37 178.901 211.164 178.991C209.232 176.95 207.583 175.301 207.583 175.301C205.175 170.278 206.662 167.419 211.228 166.253C211.937 166.399 212.613 166.672 213.224 167.058C212.622 166.635 211.93 166.357 211.202 166.247L211.016 166.215C210.249 166.131 209.444 166.054 208.614 166.002C208.794 166.472 204.66 172.442 202.065 173.389C201.002 170.71 198.021 170.529 198.021 170.529C198.021 170.529 195.239 169.956 194.376 171.708C194.942 168.089 198.426 166.183 199.585 165.912C198.748 165.983 197.898 166.073 197.08 166.176C196.78 166.216 196.484 166.277 196.192 166.357C194.867 166.72 193.691 167.496 192.837 168.572C192.779 168.643 192.721 168.713 192.669 168.791L192.573 168.913C191.763 170.077 191.333 171.462 191.343 172.88C191.284 174.365 191.026 175.836 190.576 177.252C189.997 179.416 189.649 181.174 191.922 182.784C191.536 183.602 191.175 186.648 191.13 189.603C194.33 190.79 197.718 191.392 201.131 191.381C205.501 191.374 209.819 190.428 213.791 188.605C213.68 186.208 213.7 183.807 213.849 181.412C213.83 181.67 213.804 181.953 213.791 182.217Z" fill="#263238"/>
<path d="M198.021 170.529C198.021 170.529 201.002 170.71 202.065 173.389C204.641 172.41 208.794 166.472 208.614 166.002C208.614 166.002 202.747 168.849 198.021 170.529Z" fill="white"/>
<path d="M199.598 165.912C198.439 166.189 194.955 168.095 194.388 171.708C195.251 169.956 198.033 170.529 198.033 170.529C197.132 167.142 199.598 165.912 199.598 165.912Z" fill="white"/>
<path d="M208.73 157.444C208.17 158.256 207.462 158.955 206.644 159.505C206.299 159.753 205.933 159.968 205.549 160.149C204.705 161.503 203.447 162.548 201.962 163.13V163.021C201.659 164.399 200.996 165.597 199.579 165.925C199.579 165.925 197.113 167.161 198.002 170.549C202.735 168.868 208.595 166.041 208.595 166.041C207.693 163.89 208.125 160.207 208.73 157.444Z" fill="#FFC3BD"/>
<path d="M201.981 163.001C202.013 162.853 202.039 162.712 202.065 162.57C202.039 162.692 202.013 162.853 201.981 163.001Z" fill="#263238"/>
<path opacity="0.2" d="M201.981 163.001C202.013 162.853 202.039 162.712 202.065 162.57C202.039 162.692 202.013 162.853 201.981 163.001Z" fill="black"/>
<path d="M202.213 160.709C202.204 161.288 202.161 161.867 202.084 162.441C202.164 161.867 202.207 161.289 202.213 160.709Z" fill="#263238"/>
<path opacity="0.2" d="M202.213 160.709C202.204 161.288 202.161 161.867 202.084 162.441C202.164 161.867 202.207 161.289 202.213 160.709Z" fill="black"/>
<path d="M205.548 160.117C204.511 160.613 203.357 160.814 202.213 160.696C202.207 161.276 202.164 161.854 202.084 162.428V162.557C202.084 162.699 202.032 162.841 202 162.989V163.098C203.471 162.509 204.715 161.464 205.548 160.117Z" fill="#FFC3BD"/>
<path opacity="0.2" d="M205.548 160.117C204.511 160.613 203.357 160.814 202.213 160.696C202.207 161.276 202.164 161.854 202.084 162.428V162.557C202.084 162.699 202.032 162.841 202 162.989V163.098C203.471 162.509 204.715 161.464 205.548 160.117Z" fill="black"/>
<path d="M205.549 160.117C205.933 159.936 206.299 159.72 206.643 159.473C207.462 158.923 208.17 158.224 208.73 157.412C208.975 157.052 209.19 156.673 209.374 156.279C209.252 156.279 209.129 156.343 209.013 156.356C207.938 156.452 207.635 155.242 208.125 154.16C208.29 153.794 208.507 153.454 208.769 153.149C208.488 152.23 208.556 151.239 208.962 150.367C207.983 148.358 206.946 146.503 206.85 145.157C204.44 145.902 201.94 146.312 199.418 146.375C199.322 146.523 199.232 146.684 199.135 146.838C199.353 146.837 199.57 146.87 199.779 146.935C199.806 146.945 199.831 146.96 199.852 146.98C199.873 147 199.89 147.023 199.902 147.05C199.914 147.076 199.921 147.104 199.922 147.133C199.923 147.162 199.918 147.191 199.908 147.218C199.887 147.273 199.846 147.318 199.793 147.343C199.741 147.368 199.68 147.372 199.624 147.353C199.393 147.283 199.149 147.266 198.91 147.302C197.697 149.745 197.106 152.451 197.19 155.177C197.212 156.555 197.74 157.877 198.673 158.892C199.606 159.906 200.88 160.541 202.252 160.677C203.381 160.794 204.521 160.6 205.549 160.117ZM204.113 147.469C204.463 147.538 204.792 147.692 205.07 147.916C205.349 148.14 205.568 148.429 205.71 148.757C205.735 148.811 205.738 148.873 205.719 148.929C205.7 148.985 205.659 149.032 205.607 149.06C205.553 149.082 205.493 149.082 205.439 149.06C205.41 149.052 205.384 149.037 205.361 149.017C205.339 148.997 205.321 148.972 205.311 148.944C205.194 148.684 205.015 148.456 204.791 148.28C204.567 148.104 204.303 147.985 204.023 147.933C203.965 147.923 203.912 147.892 203.876 147.845C203.841 147.799 203.824 147.74 203.829 147.682C203.832 147.649 203.842 147.617 203.858 147.588C203.875 147.559 203.897 147.535 203.924 147.516C203.951 147.496 203.982 147.484 204.015 147.478C204.047 147.472 204.081 147.474 204.113 147.482V147.469ZM203.887 150.65C203.995 150.731 204.074 150.843 204.115 150.972C204.155 151.1 204.154 151.237 204.113 151.365C204.042 151.739 203.784 152.009 203.54 151.951C203.295 151.893 203.153 151.565 203.224 151.191C203.26 151.002 203.357 150.83 203.501 150.702C203.3 150.596 203.143 150.423 203.057 150.213L203.887 150.65ZM198.607 150.38C198.642 150.194 198.737 150.024 198.877 149.897C198.68 149.785 198.526 149.611 198.439 149.401L199.283 149.833C199.387 149.916 199.464 150.029 199.504 150.156C199.544 150.283 199.546 150.419 199.508 150.547C199.431 150.921 199.18 151.191 198.935 151.14C198.691 151.088 198.536 150.766 198.607 150.393V150.38ZM200.101 153.51C199.862 153.524 199.623 153.485 199.401 153.398C199.178 153.31 198.978 153.174 198.813 153.001C199.502 152.376 200.105 151.661 200.603 150.876L200.101 153.51ZM201.344 155.235C201.315 155.228 201.291 155.21 201.275 155.184C201.259 155.159 201.254 155.129 201.26 155.1C201.266 155.072 201.283 155.048 201.307 155.032C201.331 155.016 201.361 155.011 201.389 155.016C201.854 155.117 202.335 155.106 202.795 154.985C203.255 154.864 203.68 154.637 204.035 154.321C204.046 154.31 204.058 154.302 204.071 154.296C204.085 154.29 204.099 154.287 204.114 154.287C204.128 154.286 204.143 154.289 204.157 154.294C204.17 154.3 204.183 154.308 204.193 154.318C204.204 154.328 204.212 154.34 204.218 154.353C204.224 154.367 204.227 154.381 204.228 154.396C204.228 154.411 204.225 154.425 204.22 154.439C204.215 154.452 204.207 154.465 204.196 154.476C203.598 155.027 202.808 155.322 201.994 155.3C201.776 155.298 201.559 155.281 201.344 155.248V155.235Z" fill="#FFC3BD"/>
<path d="M209.831 152.389C209.56 151.745 209.251 151.056 208.936 150.412C208.53 151.284 208.461 152.275 208.742 153.194C209.028 152.835 209.403 152.557 209.831 152.389Z" fill="#263238"/>
<path d="M203.488 150.721C203.344 150.849 203.246 151.021 203.211 151.211C203.14 151.584 203.282 151.925 203.526 151.971C203.771 152.016 204.029 151.758 204.1 151.385C204.141 151.257 204.142 151.119 204.102 150.991C204.061 150.863 203.982 150.75 203.874 150.67C203.82 150.711 203.756 150.738 203.688 150.747C203.62 150.756 203.551 150.747 203.488 150.721Z" fill="#263238"/>
<path d="M199.527 150.567C199.564 150.439 199.563 150.302 199.523 150.175C199.483 150.048 199.406 149.936 199.302 149.852C199.246 149.893 199.181 149.919 199.113 149.93C199.044 149.94 198.974 149.933 198.909 149.91C198.768 150.037 198.673 150.206 198.639 150.393C198.568 150.766 198.709 151.108 198.954 151.159C199.199 151.211 199.418 150.94 199.527 150.567Z" fill="#263238"/>
<path d="M199.27 149.852L198.427 149.42C198.513 149.63 198.667 149.805 198.865 149.916C198.932 149.941 199.005 149.948 199.076 149.936C199.147 149.925 199.214 149.896 199.27 149.852Z" fill="#263238"/>
<path d="M198.819 153.033C198.984 153.206 199.184 153.342 199.407 153.43C199.629 153.518 199.868 153.556 200.107 153.542L200.616 150.908C200.115 151.694 199.511 152.409 198.819 153.033Z" fill="#ED847E"/>
<path d="M204.183 154.321C204.162 154.3 204.133 154.288 204.103 154.288C204.073 154.288 204.044 154.3 204.022 154.321C203.668 154.635 203.245 154.861 202.788 154.982C202.331 155.103 201.851 155.114 201.388 155.016C201.36 155.011 201.331 155.016 201.307 155.032C201.283 155.048 201.266 155.072 201.26 155.1C201.254 155.129 201.259 155.159 201.275 155.184C201.29 155.21 201.315 155.228 201.343 155.235C201.556 155.272 201.771 155.293 201.987 155.3C202.801 155.322 203.591 155.027 204.19 154.476C204.208 154.453 204.217 154.426 204.216 154.397C204.215 154.368 204.203 154.341 204.183 154.321Z" fill="#263238"/>
<path d="M209.831 152.389C209.404 152.557 209.028 152.835 208.743 153.194C208.481 153.499 208.264 153.839 208.099 154.205C207.609 155.287 207.912 156.498 208.987 156.401C209.103 156.401 209.226 156.349 209.348 156.324C209.854 156.189 210.315 155.925 210.687 155.557C210.553 154.466 210.264 153.4 209.831 152.389Z" fill="#FFC3BD"/>
<path d="M206.972 144.224C207.011 143.296 207.539 143.071 208.26 143.213C204.358 140.933 198.633 143.432 198.208 146.432C198.594 146.432 198.993 146.432 199.406 146.432C201.927 146.37 204.427 145.96 206.837 145.215C206.799 144.879 206.846 144.538 206.972 144.224Z" fill="#263238"/>
<path d="M206.971 144.224C206.849 144.53 206.803 144.861 206.836 145.19C206.933 146.555 207.969 148.409 208.948 150.399C209.264 151.043 209.592 151.687 209.843 152.376C210.277 153.387 210.565 154.453 210.7 155.544C210.816 156.519 210.674 157.507 210.288 158.41C211.84 156.646 212.477 153.484 212.735 150.792C212.882 149.215 212.928 147.629 212.87 146.046C212.87 146.046 209.998 143.56 208.259 143.213C207.538 143.071 207.01 143.296 206.971 144.224Z" fill="#263238"/>
<path d="M204.035 147.926C204.316 147.978 204.579 148.097 204.804 148.274C205.028 148.45 205.206 148.677 205.323 148.938C205.334 148.966 205.351 148.991 205.374 149.011C205.396 149.031 205.423 149.045 205.452 149.053C205.506 149.076 205.566 149.076 205.619 149.053C205.672 149.026 205.712 148.979 205.731 148.923C205.751 148.866 205.747 148.805 205.722 148.751C205.581 148.423 205.361 148.134 205.083 147.909C204.805 147.685 204.476 147.532 204.125 147.463C204.066 147.456 204.007 147.472 203.96 147.508C203.913 147.544 203.882 147.597 203.874 147.656C203.862 147.713 203.872 147.773 203.902 147.823C203.932 147.873 203.979 147.91 204.035 147.926Z" fill="#263238"/>
<path d="M199.585 147.386C199.641 147.404 199.702 147.401 199.755 147.375C199.807 147.35 199.848 147.305 199.869 147.25C199.879 147.223 199.884 147.194 199.883 147.166C199.882 147.137 199.876 147.108 199.864 147.082C199.852 147.055 199.834 147.032 199.813 147.012C199.792 146.992 199.767 146.977 199.74 146.967C199.532 146.902 199.314 146.87 199.096 146.87C198.594 146.868 198.106 147.031 197.705 147.334C197.659 147.371 197.628 147.424 197.62 147.483C197.611 147.542 197.626 147.601 197.66 147.65C197.695 147.694 197.746 147.724 197.802 147.733C197.832 147.74 197.863 147.74 197.893 147.733C197.923 147.726 197.951 147.713 197.976 147.695C198.228 147.5 198.528 147.375 198.845 147.334C199.092 147.294 199.346 147.311 199.585 147.386Z" fill="#263238"/>
<path d="M203.488 150.721C203.551 150.747 203.62 150.756 203.688 150.747C203.756 150.738 203.82 150.711 203.874 150.67L203.031 150.238C203.122 150.448 203.284 150.619 203.488 150.721Z" fill="#263238"/>
<path d="M213.791 182.217C213.791 181.953 213.83 181.67 213.843 181.399C213.482 180.826 213.115 180.247 212.735 179.673L211.995 178.572L211.763 178.695C212.35 179.918 213.028 181.095 213.791 182.217Z" fill="#263238"/>
<path opacity="0.2" d="M213.791 182.217C213.791 181.953 213.83 181.67 213.843 181.399C213.482 180.826 213.115 180.247 212.735 179.673L211.995 178.572L211.763 178.695C212.35 179.918 213.028 181.095 213.791 182.217Z" fill="black"/>
<path d="M215.704 187.549V187.652C218.273 186.264 220.639 184.531 222.736 182.501C222.385 181.462 221.972 180.445 221.5 179.455C220.875 178.108 220.181 176.795 219.42 175.52C218.776 174.412 218.093 173.356 217.391 172.3C216.747 173.646 214.919 176.885 212.014 178.553L212.755 179.654C213.135 180.227 213.502 180.807 213.863 181.38C214.178 181.882 214.507 182.391 214.771 182.893C215.266 183.763 215.73 184.638 216.058 185.469L215.994 185.907C215.917 186.442 215.82 186.989 215.704 187.549Z" fill="#FFC3BD"/>
<path d="M207.584 175.301C207.584 175.301 209.232 176.95 211.164 178.991C211.37 178.901 211.57 178.798 211.763 178.695L211.995 178.572C214.899 176.905 216.715 173.665 217.372 172.32C217.559 171.94 217.655 171.708 217.655 171.708C217.655 171.708 215.788 168.617 213.225 167.058C212.613 166.672 211.937 166.399 211.228 166.253C206.663 167.419 205.175 170.278 207.584 175.301Z" fill="#263238"/>
<path d="M238.462 110.706H247.535C247.783 110.702 248.02 110.605 248.2 110.434C248.38 110.264 248.49 110.032 248.507 109.785C248.515 109.667 248.499 109.549 248.459 109.438C248.419 109.327 248.357 109.225 248.276 109.139C248.195 109.053 248.097 108.985 247.988 108.939C247.88 108.893 247.763 108.869 247.644 108.871H238.565C238.318 108.875 238.081 108.971 237.902 109.14C237.722 109.309 237.611 109.539 237.592 109.785C237.583 109.904 237.599 110.023 237.639 110.136C237.679 110.248 237.742 110.351 237.824 110.437C237.905 110.524 238.004 110.593 238.114 110.639C238.224 110.685 238.342 110.708 238.462 110.706Z" fill="#1470FB"/>
<path d="M238.274 113.868H247.348C247.596 113.863 247.833 113.767 248.013 113.596C248.193 113.426 248.302 113.194 248.32 112.947C248.329 112.828 248.313 112.71 248.274 112.598C248.234 112.486 248.172 112.383 248.091 112.297C248.01 112.21 247.912 112.141 247.803 112.095C247.694 112.048 247.576 112.025 247.457 112.026H238.384C238.135 112.029 237.896 112.125 237.715 112.295C237.533 112.466 237.423 112.698 237.405 112.947C237.398 113.065 237.415 113.184 237.456 113.295C237.496 113.407 237.559 113.509 237.641 113.595C237.722 113.681 237.82 113.75 237.929 113.797C238.038 113.844 238.156 113.868 238.274 113.868Z" fill="#1470FB"/>
<path d="M164.87 113.868H173.943C174.192 113.864 174.43 113.767 174.611 113.597C174.792 113.426 174.903 113.195 174.922 112.947C174.93 112.828 174.914 112.709 174.873 112.597C174.833 112.485 174.77 112.383 174.689 112.296C174.607 112.21 174.508 112.141 174.399 112.095C174.29 112.048 174.172 112.025 174.053 112.026H164.979C164.731 112.029 164.493 112.125 164.313 112.296C164.132 112.466 164.023 112.699 164.007 112.947C163.999 113.065 164.016 113.183 164.055 113.295C164.095 113.406 164.157 113.508 164.238 113.595C164.319 113.681 164.417 113.75 164.526 113.797C164.634 113.844 164.752 113.868 164.87 113.868Z" fill="#1470FB"/>
<path d="M238.088 117.023H247.181C247.429 117.02 247.668 116.924 247.85 116.754C248.031 116.583 248.142 116.35 248.159 116.102C248.166 115.984 248.149 115.865 248.109 115.754C248.068 115.642 248.005 115.54 247.924 115.454C247.842 115.368 247.744 115.299 247.635 115.252C247.526 115.205 247.409 115.181 247.29 115.181H238.197C237.949 115.185 237.711 115.282 237.53 115.452C237.349 115.623 237.238 115.854 237.219 116.102C237.211 116.221 237.227 116.34 237.267 116.452C237.307 116.564 237.37 116.666 237.452 116.752C237.534 116.839 237.632 116.908 237.742 116.954C237.851 117.001 237.969 117.024 238.088 117.023Z" fill="#1470FB"/>
<path d="M226.162 232.555H171.271C170.246 232.565 169.23 232.362 168.287 231.96C167.344 231.558 166.494 230.965 165.792 230.219C165.089 229.472 164.548 228.589 164.203 227.623C163.859 226.658 163.717 225.631 163.788 224.609C163.943 222.471 164.893 220.47 166.451 218.999C168.009 217.527 170.062 216.694 172.205 216.662H227.096C228.121 216.653 229.137 216.855 230.08 217.258C231.023 217.66 231.873 218.252 232.575 218.999C233.278 219.745 233.819 220.629 234.164 221.594C234.508 222.56 234.65 223.586 234.579 224.609C234.424 226.746 233.474 228.748 231.916 230.219C230.358 231.69 228.305 232.524 226.162 232.555Z" fill="white"/>
<path d="M224.913 253.915H170.015C168.99 253.923 167.974 253.719 167.032 253.316C166.089 252.913 165.24 252.319 164.538 251.572C163.835 250.826 163.294 249.942 162.949 248.977C162.604 248.011 162.462 246.985 162.533 245.962C162.692 243.829 163.644 241.831 165.201 240.364C166.759 238.897 168.809 238.066 170.949 238.035H225.846C226.871 238.026 227.887 238.228 228.83 238.63C229.773 239.033 230.623 239.625 231.326 240.372C232.029 241.118 232.57 242.002 232.914 242.967C233.259 243.933 233.4 244.959 233.329 245.982C233.17 248.116 232.218 250.114 230.661 251.582C229.103 253.05 227.053 253.883 224.913 253.915Z" fill="white"/>
<path d="M223.656 275.269H168.766C167.74 275.278 166.724 275.076 165.781 274.674C164.838 274.272 163.989 273.679 163.286 272.932C162.583 272.186 162.042 271.302 161.698 270.337C161.353 269.371 161.212 268.345 161.283 267.322C161.437 265.184 162.387 263.182 163.945 261.71C165.503 260.238 167.556 259.403 169.699 259.37H224.59C225.616 259.361 226.632 259.564 227.575 259.967C228.518 260.37 229.367 260.963 230.07 261.71C230.773 262.457 231.313 263.341 231.658 264.307C232.003 265.273 232.144 266.299 232.073 267.322C231.918 269.46 230.968 271.462 229.41 272.933C227.852 274.404 225.799 275.237 223.656 275.269Z" fill="white"/>
<path d="M175.535 227.457C177.206 225.834 177.322 223.242 175.793 221.668C174.264 220.094 171.67 220.133 169.999 221.756C168.328 223.379 168.213 225.971 169.741 227.545C171.27 229.119 173.864 229.08 175.535 227.457Z" fill="#1470FB"/>
<path d="M172.282 242.092L172.823 244.134C172.854 244.246 172.921 244.344 173.015 244.414C173.108 244.484 173.222 244.521 173.338 244.52H175.482C175.603 244.521 175.721 244.562 175.816 244.636C175.912 244.71 175.981 244.813 176.012 244.93C176.043 245.047 176.036 245.171 175.99 245.283C175.944 245.395 175.863 245.489 175.759 245.55L173.95 246.838C173.847 246.907 173.768 247.005 173.724 247.121C173.68 247.236 173.674 247.363 173.705 247.482L174.246 249.523C174.278 249.641 174.273 249.765 174.232 249.879C174.191 249.994 174.116 250.093 174.017 250.163C173.918 250.233 173.8 250.271 173.678 250.272C173.557 250.273 173.438 250.236 173.338 250.167L171.677 248.879C171.582 248.813 171.47 248.778 171.355 248.778C171.239 248.778 171.127 248.813 171.033 248.879L169.223 250.167C169.128 250.243 169.011 250.284 168.89 250.285C168.769 250.286 168.651 250.246 168.555 250.172C168.459 250.097 168.391 249.993 168.362 249.876C168.332 249.758 168.343 249.634 168.392 249.523L169.172 247.482C169.219 247.371 169.229 247.248 169.199 247.131C169.168 247.015 169.1 246.911 169.004 246.838L167.343 245.55C167.251 245.472 167.186 245.367 167.157 245.25C167.127 245.133 167.134 245.01 167.177 244.897C167.22 244.784 167.297 244.688 167.397 244.62C167.497 244.553 167.615 244.518 167.736 244.52H169.88C170.001 244.52 170.12 244.483 170.22 244.414C170.32 244.345 170.397 244.247 170.44 244.134L171.194 242.092C171.228 241.974 171.299 241.871 171.398 241.797C171.496 241.724 171.615 241.684 171.738 241.684C171.86 241.684 171.98 241.724 172.078 241.797C172.176 241.871 172.248 241.974 172.282 242.092Z" fill="#1470FB"/>
<path d="M173.769 265.159L173.428 270.89C173.411 271.13 173.305 271.356 173.129 271.52C172.954 271.685 172.722 271.778 172.481 271.779H167.465C167.354 271.772 167.245 271.743 167.146 271.694C167.046 271.645 166.957 271.577 166.885 271.493C166.812 271.408 166.757 271.311 166.723 271.205C166.688 271.099 166.676 270.988 166.686 270.877L167.104 263.742C167.119 263.502 167.224 263.276 167.398 263.11C167.573 262.944 167.803 262.85 168.044 262.847H171.65L173.769 265.159Z" fill="#1470FB"/>
<path d="M171.618 262.86L173.789 265.159H172.378C172.264 265.16 172.15 265.137 172.044 265.092C171.939 265.047 171.844 264.981 171.765 264.898C171.686 264.814 171.626 264.715 171.587 264.607C171.549 264.499 171.533 264.384 171.541 264.27L171.618 262.86ZM171.045 261.282L170.955 262.821L170.871 264.231C170.86 264.437 170.89 264.642 170.96 264.836C171.03 265.03 171.138 265.207 171.277 265.358C171.419 265.508 171.59 265.627 171.779 265.707C171.968 265.788 172.172 265.829 172.378 265.828H175.328L174.271 264.702L172.108 262.403L171.045 261.282Z" fill="white"/>
<path opacity="0.2" d="M224.32 223.765H183.242C183.076 223.766 182.911 223.733 182.758 223.668C182.605 223.603 182.467 223.507 182.353 223.386C182.239 223.265 182.151 223.122 182.094 222.966C182.038 222.81 182.014 222.643 182.025 222.477C182.052 222.13 182.208 221.806 182.462 221.568C182.715 221.33 183.049 221.195 183.397 221.189H224.468C224.634 221.188 224.799 221.221 224.952 221.286C225.105 221.352 225.243 221.448 225.357 221.568C225.471 221.689 225.559 221.832 225.616 221.989C225.672 222.145 225.696 222.311 225.685 222.477C225.659 222.824 225.505 223.148 225.253 223.386C225 223.625 224.667 223.76 224.32 223.765Z" fill="#1470FB"/>
<path opacity="0.2" d="M216.535 228.041H182.997C182.831 228.042 182.666 228.009 182.513 227.944C182.359 227.879 182.221 227.783 182.106 227.662C181.992 227.542 181.903 227.399 181.846 227.242C181.789 227.086 181.764 226.919 181.774 226.753C181.801 226.406 181.957 226.082 182.21 225.844C182.464 225.606 182.797 225.471 183.145 225.465H216.683C216.849 225.463 217.015 225.495 217.169 225.56C217.322 225.625 217.461 225.721 217.576 225.842C217.691 225.963 217.779 226.106 217.836 226.263C217.893 226.42 217.917 226.587 217.906 226.753C217.878 227.1 217.721 227.423 217.468 227.661C217.215 227.899 216.882 228.034 216.535 228.041Z" fill="#1470FB"/>
<path opacity="0.2" d="M222.968 246.806H211.634C211.286 246.81 210.952 246.944 210.698 247.183C210.444 247.421 210.289 247.746 210.263 248.094C210.252 248.26 210.276 248.426 210.332 248.583C210.389 248.739 210.477 248.882 210.591 249.003C210.705 249.124 210.843 249.22 210.996 249.285C211.149 249.35 211.314 249.383 211.48 249.382H222.813C223.162 249.378 223.496 249.243 223.75 249.005C224.004 248.766 224.159 248.441 224.185 248.094C224.196 247.928 224.172 247.762 224.116 247.605C224.059 247.449 223.971 247.306 223.857 247.185C223.743 247.064 223.605 246.968 223.452 246.903C223.299 246.838 223.134 246.805 222.968 246.806Z" fill="#1470FB"/>
<path opacity="0.2" d="M205.008 246.806H181.896C181.548 246.81 181.214 246.944 180.96 247.183C180.706 247.421 180.55 247.746 180.525 248.094C180.513 248.26 180.536 248.427 180.592 248.584C180.648 248.74 180.736 248.884 180.851 249.005C180.965 249.126 181.103 249.222 181.257 249.287C181.41 249.352 181.575 249.384 181.742 249.382H204.86C205.208 249.376 205.541 249.241 205.795 249.003C206.048 248.765 206.204 248.441 206.231 248.094C206.242 247.927 206.218 247.761 206.161 247.604C206.104 247.447 206.016 247.304 205.901 247.183C205.786 247.062 205.647 246.966 205.494 246.901C205.34 246.836 205.175 246.804 205.008 246.806Z" fill="#1470FB"/>
<path opacity="0.2" d="M215.684 242.543H182.141C181.792 242.547 181.458 242.681 181.204 242.92C180.95 243.158 180.795 243.483 180.769 243.831C180.758 243.997 180.782 244.163 180.839 244.319C180.895 244.476 180.983 244.619 181.097 244.74C181.212 244.861 181.349 244.957 181.502 245.022C181.655 245.087 181.82 245.12 181.986 245.119H215.523C215.871 245.113 216.205 244.978 216.458 244.74C216.712 244.502 216.868 244.178 216.895 243.831C216.906 243.666 216.882 243.5 216.826 243.344C216.77 243.188 216.682 243.045 216.569 242.924C216.455 242.804 216.318 242.708 216.166 242.642C216.014 242.576 215.85 242.543 215.684 242.543Z" fill="#1470FB"/>
<path opacity="0.2" d="M221.712 268.16H180.64C180.293 268.166 179.96 268.302 179.707 268.54C179.454 268.778 179.297 269.101 179.269 269.447C179.258 269.614 179.282 269.781 179.339 269.938C179.396 270.094 179.484 270.238 179.599 270.359C179.714 270.48 179.853 270.576 180.006 270.64C180.16 270.705 180.326 270.738 180.492 270.735H221.564C221.911 270.73 222.244 270.595 222.496 270.356C222.749 270.118 222.903 269.794 222.929 269.447C222.94 269.282 222.916 269.115 222.86 268.959C222.803 268.803 222.715 268.659 222.601 268.539C222.487 268.418 222.349 268.322 222.196 268.257C222.043 268.191 221.878 268.158 221.712 268.16Z" fill="#1470FB"/>
<path opacity="0.2" d="M214.428 263.89H180.891C180.543 263.895 180.21 264.03 179.956 264.269C179.702 264.507 179.547 264.831 179.52 265.178C179.509 265.344 179.533 265.51 179.589 265.667C179.646 265.823 179.734 265.966 179.848 266.087C179.962 266.208 180.1 266.304 180.253 266.369C180.406 266.434 180.57 266.467 180.737 266.466H214.28C214.628 266.46 214.96 266.325 215.213 266.087C215.466 265.849 215.62 265.524 215.646 265.178C215.656 265.012 215.632 264.846 215.576 264.689C215.52 264.533 215.431 264.39 215.317 264.269C215.203 264.148 215.065 264.052 214.912 263.987C214.759 263.922 214.595 263.889 214.428 263.89Z" fill="#1470FB"/>
</svg>
