<svg width="245" height="249" viewBox="0 0 245 249" fill="none" xmlns="http://www.w3.org/2000/svg">
<path d="M221.695 248.831H136.911C135.343 248.846 133.789 248.536 132.347 247.92C130.904 247.305 129.605 246.398 128.53 245.256C127.455 244.114 126.628 242.762 126.101 241.285C125.575 239.808 125.359 238.238 125.468 236.673L135.772 60.4546C136.007 57.1838 137.46 54.12 139.845 51.8689C142.229 49.6178 145.372 48.3431 148.651 48.2967H233.453C235.022 48.2823 236.576 48.5924 238.018 49.2078C239.461 49.8231 240.76 50.7303 241.835 51.8722C242.91 53.0142 243.736 54.3662 244.263 55.8432C244.79 57.3202 245.006 58.8903 244.897 60.4546L234.561 236.673C234.326 239.942 232.875 243.004 230.493 245.255C228.111 247.506 224.972 248.782 221.695 248.831Z" fill="#1470FB"/>
<path opacity="0.8" d="M221.695 248.831H136.911C135.343 248.846 133.789 248.536 132.347 247.92C130.904 247.305 129.605 246.398 128.53 245.256C127.455 244.114 126.628 242.762 126.101 241.285C125.575 239.808 125.359 238.238 125.468 236.673L135.772 60.4546C136.007 57.1838 137.46 54.12 139.845 51.8689C142.229 49.6178 145.372 48.3431 148.651 48.2967H233.453C235.022 48.2823 236.576 48.5924 238.018 49.2078C239.461 49.8231 240.76 50.7303 241.835 51.8722C242.91 53.0142 243.736 54.3662 244.263 55.8432C244.79 57.3202 245.006 58.8903 244.897 60.4546L234.561 236.673C234.326 239.942 232.875 243.004 230.493 245.255C228.111 247.506 224.972 248.782 221.695 248.831Z" fill="white"/>
<path d="M221.193 245.302H138.766C137.664 245.313 136.572 245.096 135.559 244.664C134.545 244.232 133.632 243.595 132.876 242.793C132.121 241.991 131.54 241.041 131.169 240.003C130.798 238.966 130.647 237.863 130.723 236.763L141.026 61.3111C141.192 59.0186 142.208 56.8707 143.876 55.2895C145.545 53.7083 147.744 52.8081 150.042 52.7658H232.468C233.57 52.7561 234.662 52.9744 235.676 53.407C236.69 53.8396 237.603 54.4772 238.358 55.2798C239.114 56.0823 239.695 57.0324 240.065 58.0704C240.436 59.1083 240.588 60.2117 240.511 61.3111L230.208 236.763C230.043 239.055 229.026 241.203 227.358 242.783C225.689 244.363 223.49 245.262 221.193 245.302Z" fill="#1470FB"/>
<path d="M220.304 244.362H137.877C136.775 244.372 135.683 244.154 134.67 243.721C133.656 243.288 132.743 242.651 131.987 241.848C131.232 241.046 130.651 240.096 130.28 239.058C129.91 238.02 129.758 236.916 129.834 235.817L140.138 60.3645C140.303 58.0719 141.319 55.924 142.988 54.3428C144.656 52.7616 146.855 51.8614 149.153 51.8192H231.58C232.682 51.8094 233.774 52.0277 234.787 52.4603C235.801 52.893 236.714 53.5306 237.47 54.3331C238.225 55.1356 238.806 56.0857 239.177 57.1237C239.547 58.1616 239.699 59.265 239.623 60.3645L229.319 235.817C229.154 238.109 228.138 240.257 226.469 241.838C224.801 243.42 222.602 244.32 220.304 244.362Z" fill="white"/>
<path opacity="0.1" d="M217.896 237.839H141.027C140.346 237.845 139.671 237.71 139.044 237.443C138.418 237.176 137.853 236.782 137.386 236.286C136.92 235.79 136.56 235.203 136.331 234.561C136.102 233.92 136.008 233.238 136.055 232.558L140.383 159.373C140.484 157.953 141.115 156.622 142.15 155.645C143.185 154.667 144.549 154.113 145.972 154.092H222.809C223.49 154.086 224.165 154.221 224.792 154.488C225.418 154.756 225.982 155.15 226.449 155.646C226.916 156.142 227.275 156.729 227.505 157.37C227.734 158.011 227.828 158.693 227.78 159.373L223.485 232.558C223.384 233.979 222.753 235.309 221.718 236.287C220.683 237.264 219.319 237.818 217.896 237.839Z" fill="#1470FB"/>
<path opacity="0.1" d="M200.824 64.8335H178.421C178.178 64.8359 177.936 64.7879 177.712 64.6924C177.488 64.597 177.286 64.4562 177.119 64.279C176.953 64.1018 176.824 63.8919 176.742 63.6627C176.66 63.4334 176.627 63.1896 176.644 62.9467C176.679 62.4375 176.905 61.9602 177.276 61.6095C177.647 61.2588 178.136 61.0604 178.646 61.0535H201.043C201.289 61.0475 201.534 61.093 201.762 61.1872C201.989 61.2814 202.194 61.4222 202.364 61.6006C202.534 61.7789 202.665 61.9908 202.748 62.2226C202.831 62.4545 202.864 62.7011 202.846 62.9467C202.81 63.4587 202.582 63.938 202.207 64.2882C201.831 64.6383 201.337 64.8332 200.824 64.8335Z" fill="#1470FB"/>
<path opacity="0.1" d="M209.737 135.468C223.532 122.071 224.474 100.665 211.84 87.6552C199.207 74.6456 177.782 74.9594 163.986 88.3562C150.191 101.753 149.249 123.16 161.883 136.169C174.516 149.179 195.941 148.865 209.737 135.468Z" fill="#1470FB"/>
<path d="M163.179 134.31C160.36 131.309 158.191 127.758 156.81 123.879C155.428 120.001 154.862 115.879 155.148 111.771H155.792C155.513 115.791 156.067 119.824 157.419 123.619C158.771 127.414 160.892 130.889 163.649 133.827L163.179 134.31Z" fill="#1470FB"/>
<path d="M218.572 112.048L217.928 112.01C218.104 109.173 217.887 106.326 217.284 103.548L217.928 103.407C218.544 106.243 218.761 109.152 218.572 112.048Z" fill="#1470FB"/>
<path d="M215.417 97.9458C213.841 94.4492 211.586 91.3003 208.784 88.6816C205.982 86.0628 202.687 84.0265 199.092 82.6905L199.318 82.0851C202.995 83.4486 206.364 85.5304 209.229 88.2093C212.093 90.8881 214.396 94.1104 216.003 97.6882L215.417 97.9458Z" fill="#1470FB"/>
<path d="M206.794 132.438C218.816 120.763 219.638 102.109 208.63 90.7731C197.621 79.4372 178.951 79.7119 166.929 91.3867C154.907 103.061 154.085 121.715 165.093 133.051C176.102 144.387 194.772 144.112 206.794 132.438Z" fill="#1470FB"/>
<path d="M183.585 115.912C185.002 115.597 185.665 114.386 185.968 113.008C186 112.86 186.026 112.718 186.052 112.576V112.448C186.129 111.873 186.172 111.295 186.181 110.715C184.809 110.58 183.535 109.944 182.602 108.93C181.669 107.916 181.141 106.594 181.119 105.216C181.048 102.483 181.654 99.7756 182.884 97.334C182.567 97.3754 182.267 97.4998 182.014 97.6946C181.99 97.7133 181.962 97.7264 181.932 97.733C181.902 97.7397 181.87 97.7398 181.84 97.7333C181.785 97.7236 181.734 97.6938 181.699 97.6495C181.664 97.6012 181.65 97.5415 181.658 97.4828C181.667 97.4241 181.697 97.3709 181.744 97.334C182.144 97.0314 182.633 96.8685 183.135 96.8703C183.231 96.7158 183.321 96.5548 183.418 96.4067C183.006 96.4067 182.607 96.4067 182.22 96.4067C182.645 93.4316 188.37 90.9331 192.272 93.1869C194.011 93.5347 196.883 96.0203 196.883 96.0203C196.941 97.6036 196.896 99.1889 196.748 100.766C196.49 103.458 195.853 106.62 194.301 108.384C194.687 107.482 194.829 106.494 194.713 105.519C194.341 105.887 193.879 106.151 193.374 106.285C193.19 106.68 192.975 107.059 192.73 107.418C192.124 110.181 191.693 113.858 192.614 115.977C193.444 116.028 194.249 116.105 195.016 116.189L195.202 116.221C195.708 115.924 196.194 115.595 196.658 115.236C202.453 110.728 196.304 105.435 197.753 100.586C199.201 95.737 197.978 93.8953 194.018 93.7407C195.66 91.1198 185.228 86.9341 180.643 95.0673C176.489 102.441 175.15 106.124 176.644 111.887C177.205 113.771 178.478 115.362 180.192 116.324C180.484 116.244 180.781 116.184 181.081 116.144C181.898 116.067 182.748 115.977 183.585 115.912Z" fill="#263238"/>
<path d="M174.577 127.246C174.34 126.828 174.125 126.398 173.933 125.958C173.495 127.246 173.063 128.534 172.645 129.822C172.246 130.981 171.866 132.14 171.466 133.247L170.867 134.812L170.61 135.456C170.52 135.63 170.61 135.527 170.61 135.579C170.335 135.898 170.031 136.192 169.702 136.454C169.631 136.525 169.541 136.59 169.464 136.654C171.245 137.856 173.163 138.844 175.176 139.597C175.221 136.654 175.581 133.595 175.968 132.777C173.649 131.167 173.997 129.435 174.577 127.246Z" fill="#FFC3BD"/>
<path d="M176.831 118.559L176.67 118.784C176.721 118.707 176.779 118.636 176.837 118.565L176.831 118.559Z" fill="#263238"/>
<path d="M175.343 122.873C175.334 121.456 175.763 120.07 176.573 118.907C175.338 120.849 174.323 122.922 173.546 125.089C173.546 125.089 173.662 125.43 173.907 125.964C174.1 126.404 174.315 126.834 174.551 127.252C175.01 125.835 175.277 124.362 175.343 122.873Z" fill="#263238"/>
<path d="M197.791 132.217C197.028 131.095 196.35 129.918 195.763 128.695C195.569 128.798 195.37 128.901 195.164 128.991C193.232 126.95 191.583 125.301 191.583 125.301C189.175 120.278 190.662 117.419 195.228 116.253C195.937 116.399 196.613 116.672 197.224 117.058C196.622 116.635 195.93 116.357 195.202 116.247L195.016 116.215C194.249 116.131 193.444 116.054 192.614 116.002C192.794 116.472 188.66 122.442 186.065 123.389C185.002 120.71 182.021 120.529 182.021 120.529C182.021 120.529 179.239 119.956 178.376 121.708C178.942 118.089 182.426 116.183 183.585 115.912C182.748 115.983 181.898 116.073 181.08 116.176C180.78 116.216 180.484 116.277 180.192 116.357C178.867 116.72 177.691 117.496 176.837 118.572C176.779 118.643 176.721 118.713 176.669 118.791L176.573 118.913C175.763 120.077 175.333 121.462 175.343 122.88C175.284 124.365 175.026 125.836 174.576 127.252C173.997 129.416 173.649 131.174 175.922 132.784C175.536 133.602 175.175 136.648 175.13 139.603C178.33 140.79 181.718 141.392 185.131 141.381C189.501 141.374 193.819 140.428 197.791 138.605C197.68 136.208 197.7 133.807 197.849 131.412C197.83 131.67 197.804 131.953 197.791 132.217Z" fill="#263238"/>
<path d="M182.021 120.529C182.021 120.529 185.002 120.71 186.065 123.389C188.641 122.41 192.794 116.472 192.614 116.002C192.614 116.002 186.747 118.849 182.021 120.529Z" fill="white"/>
<path d="M183.598 115.912C182.439 116.189 178.955 118.095 178.388 121.708C179.251 119.956 182.033 120.529 182.033 120.529C181.132 117.142 183.598 115.912 183.598 115.912Z" fill="white"/>
<path d="M192.73 107.444C192.17 108.256 191.462 108.955 190.644 109.505C190.299 109.753 189.933 109.968 189.549 110.149C188.705 111.503 187.447 112.548 185.962 113.13V113.021C185.659 114.399 184.996 115.597 183.579 115.925C183.579 115.925 181.113 117.161 182.002 120.549C186.735 118.868 192.595 116.041 192.595 116.041C191.693 113.89 192.125 110.207 192.73 107.444Z" fill="#FFC3BD"/>
<path d="M185.981 113.001C186.013 112.853 186.039 112.712 186.065 112.57C186.039 112.692 186.013 112.853 185.981 113.001Z" fill="#263238"/>
<path opacity="0.2" d="M185.981 113.001C186.013 112.853 186.039 112.712 186.065 112.57C186.039 112.692 186.013 112.853 185.981 113.001Z" fill="black"/>
<path d="M186.213 110.709C186.204 111.288 186.161 111.867 186.084 112.441C186.164 111.867 186.207 111.289 186.213 110.709Z" fill="#263238"/>
<path opacity="0.2" d="M186.213 110.709C186.204 111.288 186.161 111.867 186.084 112.441C186.164 111.867 186.207 111.289 186.213 110.709Z" fill="black"/>
<path d="M189.548 110.117C188.511 110.613 187.357 110.814 186.213 110.696C186.207 111.276 186.164 111.854 186.084 112.428V112.557C186.084 112.699 186.032 112.841 186 112.989V113.098C187.471 112.509 188.715 111.464 189.548 110.117Z" fill="#FFC3BD"/>
<path opacity="0.2" d="M189.548 110.117C188.511 110.613 187.357 110.814 186.213 110.696C186.207 111.276 186.164 111.854 186.084 112.428V112.557C186.084 112.699 186.032 112.841 186 112.989V113.098C187.471 112.509 188.715 111.464 189.548 110.117Z" fill="black"/>
<path d="M189.549 110.117C189.933 109.936 190.299 109.72 190.643 109.473C191.462 108.923 192.17 108.224 192.73 107.412C192.975 107.052 193.19 106.673 193.374 106.279C193.252 106.279 193.129 106.343 193.013 106.356C191.938 106.452 191.635 105.242 192.125 104.16C192.29 103.794 192.507 103.454 192.769 103.149C192.488 102.23 192.556 101.239 192.962 100.367C191.983 98.3579 190.946 96.5033 190.85 95.1575C188.44 95.9023 185.94 96.3118 183.418 96.3745C183.322 96.5227 183.232 96.6836 183.135 96.8382C183.353 96.8373 183.57 96.8699 183.779 96.9348C183.806 96.9448 183.831 96.9601 183.852 96.9798C183.873 96.9995 183.89 97.0232 183.902 97.0496C183.914 97.0759 183.921 97.1044 183.922 97.1333C183.923 97.1623 183.918 97.1911 183.908 97.2181C183.887 97.2731 183.846 97.3179 183.793 97.3432C183.741 97.3684 183.68 97.3721 183.624 97.3534C183.393 97.2831 183.149 97.2655 182.91 97.3018C181.697 99.7455 181.106 102.451 181.19 105.177C181.212 106.555 181.74 107.877 182.673 108.892C183.606 109.906 184.88 110.541 186.252 110.677C187.381 110.794 188.521 110.6 189.549 110.117ZM188.113 97.4693C188.463 97.5382 188.792 97.6915 189.07 97.9159C189.349 98.1403 189.568 98.429 189.71 98.7572C189.735 98.8112 189.738 98.8728 189.719 98.9291C189.7 98.9855 189.659 99.0323 189.607 99.0598C189.553 99.082 189.493 99.082 189.439 99.0598C189.41 99.0519 189.384 99.0373 189.361 99.0171C189.339 98.997 189.321 98.9719 189.311 98.9439C189.194 98.6839 189.015 98.4561 188.791 98.28C188.567 98.1039 188.303 97.9848 188.023 97.9329C187.965 97.9234 187.912 97.8921 187.876 97.8455C187.841 97.7989 187.824 97.7403 187.829 97.6818C187.832 97.6488 187.842 97.6168 187.858 97.5881C187.875 97.5593 187.897 97.5346 187.924 97.5155C187.951 97.4965 187.982 97.4836 188.015 97.4778C188.047 97.4721 188.081 97.4735 188.113 97.4822V97.4693ZM187.887 100.65C187.995 100.731 188.074 100.843 188.115 100.972C188.155 101.1 188.154 101.237 188.113 101.365C188.042 101.739 187.784 102.009 187.54 101.951C187.295 101.893 187.153 101.565 187.224 101.191C187.26 101.002 187.357 100.83 187.501 100.702C187.3 100.596 187.143 100.423 187.057 100.213L187.887 100.65ZM182.607 100.38C182.642 100.194 182.737 100.024 182.877 99.897C182.68 99.7855 182.526 99.6109 182.439 99.4011L183.283 99.8326C183.387 99.9162 183.464 100.029 183.504 100.156C183.544 100.283 183.546 100.419 183.508 100.547C183.431 100.921 183.18 101.191 182.935 101.14C182.691 101.088 182.536 100.766 182.607 100.393V100.38ZM184.101 103.51C183.862 103.524 183.623 103.485 183.401 103.398C183.178 103.31 182.978 103.174 182.813 103.001C183.502 102.376 184.105 101.661 184.603 100.876L184.101 103.51ZM185.344 105.235C185.315 105.228 185.291 105.21 185.275 105.184C185.259 105.159 185.254 105.129 185.26 105.1C185.266 105.072 185.283 105.048 185.307 105.032C185.331 105.016 185.361 105.011 185.389 105.016C185.854 105.117 186.335 105.106 186.795 104.985C187.255 104.864 187.68 104.637 188.035 104.321C188.046 104.31 188.058 104.302 188.071 104.296C188.085 104.29 188.099 104.287 188.114 104.287C188.128 104.286 188.143 104.289 188.157 104.294C188.17 104.3 188.183 104.308 188.193 104.318C188.204 104.328 188.212 104.34 188.218 104.353C188.224 104.367 188.227 104.381 188.228 104.396C188.228 104.411 188.225 104.425 188.22 104.439C188.215 104.452 188.207 104.465 188.196 104.476C187.598 105.027 186.808 105.322 185.994 105.3C185.776 105.298 185.559 105.281 185.344 105.248V105.235Z" fill="#FFC3BD"/>
<path d="M193.831 102.389C193.56 101.745 193.251 101.056 192.936 100.412C192.53 101.284 192.461 102.275 192.742 103.194C193.028 102.835 193.403 102.557 193.831 102.389Z" fill="#263238"/>
<path d="M187.488 100.721C187.344 100.849 187.246 101.021 187.211 101.211C187.14 101.584 187.282 101.925 187.526 101.971C187.771 102.016 188.029 101.758 188.1 101.385C188.141 101.257 188.142 101.119 188.102 100.991C188.061 100.863 187.982 100.75 187.874 100.67C187.82 100.711 187.756 100.738 187.688 100.747C187.62 100.756 187.551 100.747 187.488 100.721Z" fill="#263238"/>
<path d="M183.527 100.567C183.564 100.439 183.563 100.302 183.523 100.175C183.483 100.048 183.406 99.9355 183.302 99.8519C183.246 99.8928 183.181 99.9194 183.113 99.9295C183.044 99.9396 182.974 99.9329 182.909 99.9098C182.768 100.037 182.673 100.206 182.639 100.393C182.568 100.766 182.709 101.108 182.954 101.159C183.199 101.211 183.418 100.94 183.527 100.567Z" fill="#263238"/>
<path d="M183.27 99.8519L182.427 99.4204C182.513 99.6301 182.667 99.8048 182.865 99.9163C182.932 99.9407 183.005 99.9476 183.076 99.9363C183.147 99.9251 183.214 99.896 183.27 99.8519Z" fill="#263238"/>
<path d="M182.819 103.033C182.984 103.206 183.184 103.342 183.407 103.43C183.629 103.518 183.868 103.556 184.107 103.542L184.616 100.908C184.115 101.694 183.511 102.409 182.819 103.033Z" fill="#ED847E"/>
<path d="M188.183 104.321C188.162 104.3 188.133 104.288 188.103 104.288C188.073 104.288 188.044 104.3 188.022 104.321C187.668 104.635 187.245 104.861 186.788 104.982C186.331 105.103 185.851 105.114 185.388 105.016C185.36 105.011 185.331 105.016 185.307 105.032C185.283 105.048 185.266 105.072 185.26 105.1C185.254 105.129 185.259 105.159 185.275 105.184C185.29 105.21 185.315 105.228 185.343 105.235C185.556 105.272 185.771 105.293 185.987 105.3C186.801 105.322 187.591 105.027 188.19 104.476C188.208 104.453 188.217 104.426 188.216 104.397C188.215 104.368 188.203 104.341 188.183 104.321Z" fill="#263238"/>
<path d="M193.831 102.389C193.404 102.557 193.028 102.835 192.743 103.194C192.481 103.499 192.264 103.839 192.099 104.205C191.609 105.287 191.912 106.498 192.987 106.401C193.103 106.401 193.226 106.349 193.348 106.324C193.854 106.189 194.315 105.925 194.687 105.557C194.553 104.466 194.264 103.4 193.831 102.389Z" fill="#FFC3BD"/>
<path d="M190.972 94.2237C191.011 93.2964 191.539 93.071 192.26 93.2127C188.358 90.9331 182.633 93.4317 182.208 96.4325C182.594 96.4325 182.993 96.4325 183.406 96.4325C185.927 96.3698 188.427 95.9602 190.837 95.2154C190.799 94.8788 190.846 94.5381 190.972 94.2237Z" fill="#263238"/>
<path d="M190.971 94.2237C190.849 94.5302 190.803 94.8615 190.836 95.1897C190.933 96.5548 191.969 98.4094 192.948 100.399C193.264 101.043 193.592 101.687 193.843 102.376C194.277 103.387 194.565 104.453 194.7 105.544C194.816 106.519 194.674 107.507 194.288 108.41C195.84 106.646 196.477 103.484 196.735 100.792C196.882 99.2147 196.928 97.6294 196.87 96.0461C196.87 96.0461 193.998 93.5604 192.259 93.2127C191.538 93.071 191.01 93.2964 190.971 94.2237Z" fill="#263238"/>
<path d="M188.035 97.9265C188.316 97.9784 188.579 98.0975 188.804 98.2736C189.028 98.4496 189.206 98.6775 189.323 98.9375C189.334 98.9655 189.351 98.9906 189.374 99.0107C189.396 99.0308 189.423 99.0455 189.452 99.0534C189.506 99.0756 189.566 99.0756 189.619 99.0534C189.672 99.0258 189.712 98.979 189.731 98.9227C189.751 98.8663 189.747 98.8048 189.722 98.7508C189.581 98.4226 189.361 98.1339 189.083 97.9095C188.805 97.6851 188.476 97.5318 188.125 97.4628C188.066 97.4555 188.007 97.4717 187.96 97.5079C187.913 97.544 187.882 97.5973 187.874 97.656C187.862 97.7131 187.872 97.7726 187.902 97.8228C187.932 97.8729 187.979 97.9099 188.035 97.9265Z" fill="#263238"/>
<path d="M183.585 97.3855C183.641 97.4043 183.702 97.4006 183.755 97.3754C183.807 97.3501 183.848 97.3053 183.869 97.2503C183.879 97.2233 183.884 97.1945 183.883 97.1655C183.882 97.1366 183.876 97.1081 183.864 97.0818C183.852 97.0554 183.834 97.0317 183.813 97.012C183.792 96.9923 183.767 96.977 183.74 96.967C183.532 96.9021 183.314 96.8695 183.096 96.8704C182.594 96.8685 182.106 97.0314 181.705 97.334C181.659 97.3709 181.628 97.4241 181.62 97.4828C181.611 97.5415 181.626 97.6012 181.66 97.6496C181.695 97.6939 181.746 97.7236 181.802 97.7333C181.832 97.7398 181.863 97.7397 181.893 97.7331C181.923 97.7264 181.951 97.7133 181.976 97.6947C182.228 97.4999 182.528 97.3754 182.845 97.334C183.092 97.2937 183.346 97.3114 183.585 97.3855Z" fill="#263238"/>
<path d="M187.488 100.721C187.551 100.747 187.62 100.756 187.688 100.747C187.756 100.738 187.82 100.711 187.874 100.67L187.031 100.238C187.122 100.448 187.284 100.619 187.488 100.721Z" fill="#263238"/>
<path d="M197.791 132.217C197.791 131.953 197.83 131.67 197.843 131.399C197.482 130.826 197.115 130.247 196.735 129.673L195.995 128.572L195.763 128.695C196.35 129.918 197.028 131.095 197.791 132.217Z" fill="#263238"/>
<path opacity="0.2" d="M197.791 132.217C197.791 131.953 197.83 131.67 197.843 131.399C197.482 130.826 197.115 130.247 196.735 129.673L195.995 128.572L195.763 128.695C196.35 129.918 197.028 131.095 197.791 132.217Z" fill="black"/>
<path d="M199.704 137.549V137.652C202.273 136.264 204.639 134.531 206.736 132.501C206.385 131.462 205.972 130.445 205.5 129.455C204.875 128.108 204.181 126.795 203.42 125.52C202.776 124.412 202.093 123.356 201.391 122.3C200.747 123.646 198.919 126.885 196.014 128.553L196.755 129.654C197.135 130.227 197.502 130.807 197.863 131.38C198.178 131.882 198.507 132.391 198.771 132.893C199.266 133.763 199.73 134.638 200.058 135.469L199.994 135.907C199.917 136.442 199.82 136.989 199.704 137.549Z" fill="#FFC3BD"/>
<path d="M191.584 125.301C191.584 125.301 193.232 126.95 195.164 128.991C195.37 128.901 195.57 128.798 195.763 128.695L195.995 128.572C198.899 126.905 200.715 123.665 201.372 122.32C201.559 121.94 201.655 121.708 201.655 121.708C201.655 121.708 199.788 118.617 197.225 117.058C196.613 116.672 195.937 116.399 195.228 116.253C190.663 117.419 189.175 120.278 191.584 125.301Z" fill="#263238"/>
<path d="M222.462 60.7058H231.535C231.783 60.7016 232.02 60.6047 232.2 60.4343C232.38 60.2639 232.49 60.0322 232.507 59.7849C232.515 59.6671 232.499 59.549 232.459 59.4378C232.419 59.3267 232.357 59.225 232.276 59.1391C232.195 59.0533 232.097 58.9851 231.988 58.9389C231.88 58.8926 231.763 58.8694 231.644 58.8705H222.565C222.318 58.8746 222.081 58.9705 221.902 59.1397C221.722 59.3088 221.611 59.5388 221.592 59.7849C221.583 59.9038 221.599 60.0232 221.639 60.1356C221.679 60.2479 221.742 60.3507 221.824 60.4374C221.905 60.5241 222.004 60.5927 222.114 60.6389C222.224 60.6852 222.342 60.7079 222.462 60.7058Z" fill="#1470FB"/>
<path d="M222.274 63.8676H231.348C231.596 63.8634 231.833 63.7666 232.013 63.5961C232.193 63.4257 232.302 63.194 232.32 62.9468C232.329 62.8285 232.313 62.7096 232.274 62.5977C232.234 62.4858 232.172 62.3833 232.091 62.2967C232.01 62.2101 231.912 62.1414 231.803 62.0947C231.694 62.0481 231.576 62.0247 231.457 62.0259H222.384C222.135 62.0285 221.896 62.1247 221.715 62.2953C221.533 62.4659 221.423 62.6984 221.405 62.9468C221.398 63.0652 221.415 63.1838 221.456 63.2953C221.496 63.4068 221.559 63.5088 221.641 63.5951C221.722 63.6813 221.82 63.75 221.929 63.7969C222.038 63.8438 222.156 63.8678 222.274 63.8676Z" fill="#1470FB"/>
<path d="M148.87 63.8676H157.943C158.192 63.8636 158.43 63.7669 158.611 63.5966C158.792 63.4263 158.903 63.1946 158.922 62.9468C158.93 62.8281 158.914 62.7091 158.873 62.5972C158.833 62.4853 158.77 62.3829 158.689 62.2964C158.607 62.21 158.508 62.1413 158.399 62.0947C158.29 62.0482 158.172 62.0248 158.053 62.0259H148.979C148.731 62.0286 148.493 62.125 148.313 62.2957C148.132 62.4665 148.023 62.699 148.007 62.9468C147.999 63.0649 148.016 63.1833 148.055 63.2948C148.095 63.4063 148.157 63.5084 148.238 63.5948C148.319 63.6811 148.417 63.7499 148.526 63.7969C148.634 63.8438 148.752 63.8679 148.87 63.8676Z" fill="#1470FB"/>
<path d="M222.088 67.023H231.181C231.429 67.0204 231.668 66.9242 231.85 66.7536C232.031 66.583 232.142 66.3505 232.159 66.1021C232.166 65.9837 232.149 65.8651 232.109 65.7536C232.068 65.6421 232.005 65.5401 231.924 65.4538C231.842 65.3676 231.744 65.2989 231.635 65.252C231.526 65.2051 231.409 65.1811 231.29 65.1813H222.197C221.949 65.1853 221.711 65.282 221.53 65.4523C221.349 65.6226 221.238 65.8543 221.219 66.1021C221.211 66.2208 221.227 66.3398 221.267 66.4517C221.307 66.5636 221.37 66.666 221.452 66.7525C221.534 66.839 221.632 66.9076 221.742 66.9542C221.851 67.0007 221.969 67.0241 222.088 67.023Z" fill="#1470FB"/>
<path d="M210.162 182.555H155.271C154.246 182.565 153.23 182.362 152.287 181.96C151.344 181.558 150.494 180.965 149.792 180.219C149.089 179.472 148.548 178.589 148.203 177.623C147.859 176.658 147.717 175.631 147.788 174.609C147.943 172.471 148.893 170.47 150.451 168.999C152.009 167.527 154.062 166.694 156.205 166.662H211.096C212.121 166.653 213.137 166.855 214.08 167.258C215.023 167.66 215.873 168.252 216.575 168.999C217.278 169.745 217.819 170.629 218.164 171.594C218.508 172.56 218.65 173.586 218.579 174.609C218.424 176.746 217.474 178.748 215.916 180.219C214.358 181.69 212.305 182.524 210.162 182.555Z" fill="white"/>
<path d="M208.913 203.915H154.015C152.99 203.923 151.974 203.719 151.032 203.316C150.089 202.913 149.24 202.319 148.538 201.572C147.835 200.826 147.294 199.942 146.949 198.977C146.604 198.011 146.462 196.985 146.533 195.962C146.692 193.829 147.644 191.831 149.201 190.364C150.759 188.897 152.809 188.066 154.949 188.035H209.846C210.871 188.026 211.887 188.228 212.83 188.63C213.773 189.033 214.623 189.625 215.326 190.372C216.029 191.118 216.57 192.002 216.914 192.967C217.259 193.933 217.4 194.959 217.329 195.982C217.17 198.116 216.218 200.114 214.661 201.582C213.103 203.05 211.053 203.883 208.913 203.915Z" fill="white"/>
<path d="M207.656 225.269H152.766C151.74 225.278 150.724 225.076 149.781 224.674C148.838 224.272 147.989 223.679 147.286 222.932C146.583 222.186 146.042 221.302 145.698 220.337C145.353 219.371 145.212 218.345 145.283 217.322C145.437 215.184 146.387 213.182 147.945 211.71C149.503 210.238 151.556 209.403 153.699 209.37H208.59C209.616 209.361 210.632 209.564 211.575 209.967C212.518 210.37 213.367 210.963 214.07 211.71C214.773 212.457 215.313 213.341 215.658 214.307C216.003 215.273 216.144 216.299 216.073 217.322C215.918 219.46 214.968 221.462 213.41 222.933C211.852 224.404 209.799 225.237 207.656 225.269Z" fill="white"/>
<path d="M159.535 177.457C161.206 175.834 161.322 173.242 159.793 171.668C158.264 170.094 155.67 170.133 153.999 171.756C152.328 173.379 152.213 175.971 153.741 177.545C155.27 179.119 157.864 179.08 159.535 177.457Z" fill="#1470FB"/>
<path d="M156.282 192.092L156.823 194.134C156.854 194.246 156.921 194.344 157.015 194.414C157.108 194.484 157.222 194.521 157.338 194.52H159.482C159.603 194.521 159.721 194.562 159.816 194.636C159.912 194.71 159.981 194.813 160.012 194.93C160.043 195.047 160.036 195.171 159.99 195.283C159.944 195.395 159.863 195.489 159.759 195.55L157.95 196.838C157.847 196.907 157.768 197.005 157.724 197.121C157.68 197.236 157.674 197.363 157.705 197.482L158.246 199.523C158.278 199.641 158.273 199.765 158.232 199.879C158.191 199.994 158.116 200.093 158.017 200.163C157.918 200.233 157.8 200.271 157.678 200.272C157.557 200.273 157.438 200.236 157.338 200.167L155.677 198.879C155.582 198.813 155.47 198.778 155.355 198.778C155.239 198.778 155.127 198.813 155.033 198.879L153.223 200.167C153.128 200.243 153.011 200.284 152.89 200.285C152.769 200.286 152.651 200.246 152.555 200.172C152.459 200.097 152.391 199.993 152.362 199.876C152.332 199.758 152.343 199.634 152.392 199.523L153.172 197.482C153.219 197.371 153.229 197.248 153.199 197.131C153.168 197.015 153.1 196.911 153.004 196.838L151.343 195.55C151.251 195.472 151.186 195.367 151.157 195.25C151.127 195.133 151.134 195.01 151.177 194.897C151.22 194.784 151.297 194.688 151.397 194.62C151.497 194.553 151.615 194.518 151.736 194.52H153.88C154.001 194.52 154.12 194.483 154.22 194.414C154.32 194.345 154.397 194.247 154.44 194.134L155.194 192.092C155.228 191.974 155.299 191.871 155.398 191.797C155.496 191.724 155.615 191.684 155.738 191.684C155.86 191.684 155.98 191.724 156.078 191.797C156.176 191.871 156.248 191.974 156.282 192.092Z" fill="#1470FB"/>
<path d="M157.769 215.159L157.428 220.89C157.411 221.13 157.305 221.356 157.129 221.52C156.954 221.685 156.722 221.778 156.481 221.779H151.465C151.354 221.772 151.245 221.743 151.146 221.694C151.046 221.645 150.957 221.577 150.885 221.493C150.812 221.408 150.757 221.311 150.723 221.205C150.688 221.099 150.676 220.988 150.686 220.877L151.104 213.742C151.119 213.502 151.224 213.276 151.398 213.11C151.573 212.944 151.803 212.85 152.044 212.847H155.65L157.769 215.159Z" fill="#1470FB"/>
<path d="M155.618 212.86L157.789 215.159H156.378C156.264 215.16 156.15 215.137 156.044 215.092C155.939 215.047 155.844 214.981 155.765 214.898C155.686 214.814 155.626 214.715 155.587 214.607C155.549 214.499 155.533 214.384 155.541 214.27L155.618 212.86ZM155.045 211.282L154.955 212.821L154.871 214.231C154.86 214.437 154.89 214.642 154.96 214.836C155.03 215.03 155.138 215.207 155.277 215.358C155.419 215.508 155.59 215.627 155.779 215.707C155.968 215.788 156.172 215.829 156.378 215.828H159.328L158.271 214.702L156.108 212.403L155.045 211.282Z" fill="white"/>
<path opacity="0.2" d="M208.32 173.765H167.242C167.076 173.766 166.911 173.733 166.758 173.668C166.605 173.603 166.467 173.507 166.353 173.386C166.239 173.265 166.151 173.122 166.094 172.966C166.038 172.81 166.014 172.643 166.025 172.477C166.052 172.13 166.208 171.806 166.462 171.568C166.715 171.33 167.049 171.195 167.397 171.189H208.468C208.634 171.188 208.799 171.221 208.952 171.286C209.105 171.352 209.243 171.448 209.357 171.568C209.471 171.689 209.559 171.832 209.616 171.989C209.672 172.145 209.696 172.311 209.685 172.477C209.659 172.824 209.505 173.148 209.253 173.386C209 173.625 208.667 173.76 208.32 173.765Z" fill="#1470FB"/>
<path opacity="0.2" d="M200.535 178.041H166.997C166.831 178.042 166.666 178.009 166.513 177.944C166.359 177.879 166.221 177.783 166.106 177.662C165.992 177.542 165.903 177.399 165.846 177.242C165.789 177.086 165.764 176.919 165.774 176.753C165.801 176.406 165.957 176.082 166.21 175.844C166.464 175.606 166.797 175.471 167.145 175.465H200.683C200.849 175.463 201.015 175.495 201.169 175.56C201.322 175.625 201.461 175.721 201.576 175.842C201.691 175.963 201.779 176.106 201.836 176.263C201.893 176.42 201.917 176.587 201.906 176.753C201.878 177.1 201.721 177.423 201.468 177.661C201.215 177.899 200.882 178.034 200.535 178.041Z" fill="#1470FB"/>
<path opacity="0.2" d="M206.968 196.806H195.634C195.286 196.81 194.952 196.944 194.698 197.183C194.444 197.421 194.289 197.746 194.263 198.094C194.252 198.26 194.276 198.426 194.332 198.583C194.389 198.739 194.477 198.882 194.591 199.003C194.705 199.124 194.843 199.22 194.996 199.285C195.149 199.35 195.314 199.383 195.48 199.382H206.813C207.162 199.378 207.496 199.243 207.75 199.005C208.004 198.766 208.159 198.441 208.185 198.094C208.196 197.928 208.172 197.762 208.116 197.605C208.059 197.449 207.971 197.306 207.857 197.185C207.743 197.064 207.605 196.968 207.452 196.903C207.299 196.838 207.134 196.805 206.968 196.806Z" fill="#1470FB"/>
<path opacity="0.2" d="M189.008 196.806H165.896C165.548 196.81 165.214 196.944 164.96 197.183C164.706 197.421 164.55 197.746 164.525 198.094C164.513 198.26 164.536 198.427 164.592 198.584C164.648 198.74 164.736 198.884 164.851 199.005C164.965 199.126 165.103 199.222 165.257 199.287C165.41 199.352 165.575 199.384 165.742 199.382H188.86C189.208 199.376 189.541 199.241 189.795 199.003C190.048 198.765 190.204 198.441 190.231 198.094C190.242 197.927 190.218 197.761 190.161 197.604C190.104 197.447 190.016 197.304 189.901 197.183C189.786 197.062 189.647 196.966 189.494 196.901C189.34 196.836 189.175 196.804 189.008 196.806Z" fill="#1470FB"/>
<path opacity="0.2" d="M199.684 192.543H166.141C165.792 192.547 165.458 192.681 165.204 192.92C164.95 193.158 164.795 193.483 164.769 193.831C164.758 193.997 164.782 194.163 164.839 194.319C164.895 194.476 164.983 194.619 165.097 194.74C165.212 194.861 165.349 194.957 165.502 195.022C165.655 195.087 165.82 195.12 165.986 195.119H199.523C199.871 195.113 200.205 194.978 200.458 194.74C200.712 194.502 200.868 194.178 200.895 193.831C200.906 193.666 200.882 193.5 200.826 193.344C200.77 193.188 200.682 193.045 200.569 192.924C200.455 192.804 200.318 192.708 200.166 192.642C200.014 192.576 199.85 192.543 199.684 192.543Z" fill="#1470FB"/>
<path opacity="0.2" d="M205.712 218.16H164.64C164.293 218.166 163.96 218.302 163.707 218.54C163.454 218.778 163.297 219.101 163.269 219.447C163.258 219.614 163.282 219.781 163.339 219.938C163.396 220.094 163.484 220.238 163.599 220.359C163.714 220.48 163.853 220.576 164.006 220.64C164.16 220.705 164.326 220.738 164.492 220.735H205.564C205.911 220.73 206.244 220.595 206.496 220.356C206.749 220.118 206.903 219.794 206.929 219.447C206.94 219.282 206.916 219.115 206.86 218.959C206.803 218.803 206.715 218.659 206.601 218.539C206.487 218.418 206.349 218.322 206.196 218.257C206.043 218.191 205.878 218.158 205.712 218.16Z" fill="#1470FB"/>
<path opacity="0.2" d="M198.428 213.89H164.891C164.543 213.895 164.21 214.03 163.956 214.269C163.702 214.507 163.547 214.831 163.52 215.178C163.509 215.344 163.533 215.51 163.589 215.667C163.646 215.823 163.734 215.966 163.848 216.087C163.962 216.208 164.1 216.304 164.253 216.369C164.406 216.434 164.57 216.467 164.737 216.466H198.28C198.628 216.46 198.96 216.325 199.213 216.087C199.466 215.849 199.62 215.524 199.646 215.178C199.656 215.012 199.632 214.846 199.576 214.689C199.52 214.533 199.431 214.39 199.317 214.269C199.203 214.148 199.065 214.052 198.912 213.987C198.759 213.922 198.595 213.889 198.428 213.89Z" fill="#1470FB"/>
</svg>
